<?xml version="1.0" encoding="UTF-8" standalone="no"?><!-- Generator: Gravit.io --><svg xmlns="http://www.w3.org/2000/svg" xmlns:xlink="http://www.w3.org/1999/xlink" style="isolation:isolate" viewBox="0 0 666.667 666.667" width="666.667pt" height="666.667pt"><defs><clipPath id="_clipPath_C6sx0HiV3ozzKyivmo62VsskQACM65jj"><rect width="666.667" height="666.667"/></clipPath></defs><g clip-path="url(#_clipPath_C6sx0HiV3ozzKyivmo62VsskQACM65jj)"><g><path d=" M 172.341 214.756 C 172.341 214.756 164.581 209.476 153.233 213.543 C 141.884 217.609 139.335 232.893 142.131 245.297 C 144.925 257.701 129.301 300.051 129.301 300.051 C 129.301 300.051 137.421 311.472 165.805 307.1 C 165.805 307.1 186.969 268.639 185.397 241.027 C 183.827 213.415 172.341 214.756 172.341 214.756" fill="rgb(27,53,64)"/><path d=" M 181.301 262.467 C 191.968 259.056 198.496 267.939 204.608 284.468 C 210.719 300.999 212.775 302.656 212.775 302.656 L 236.365 317.813 L 234.405 326.648 C 234.405 326.648 211.953 317.856 206.525 312.265 C 201.097 306.673 185.481 278.351 185.481 278.351 L 181.301 262.467" fill="rgb(239,86,64)"/><path d=" M 129.311 369.26 C 129.311 369.26 124.684 392.699 125.446 427.98 C 125.446 427.98 107.209 454.873 122.259 531.604 L 130.155 531.604 C 130.155 531.604 136.604 466.321 141.539 448.631 C 146.473 430.941 164.695 425.513 165.681 371.728 L 129.311 369.26" fill="rgb(245,117,89)"/><path d=" M 93.23 438.18 C 88.642 423.061 76.852 397.74 46.604 363.417 C 46.604 363.417 44.8 362.488 42.361 363.977 C 39.787 365.551 39.787 367.4 39.787 367.4 C 39.787 367.4 54.954 400.453 64.626 424.671 C 67.882 432.824 75.759 438.18 84.538 438.18 L 93.23 438.18 Z " fill="rgb(245,117,89)"/><path d=" M 148.299 467.415 C 148.299 467.415 148.401 478.695 141 478.887 C 130.549 479.168 130.164 467.784 118.321 468.155 C 106.479 468.524 82.053 471.485 74.281 452.981 C 70.269 443.417 75.761 431.145 62.809 421.893 C 49.856 412.641 56.147 402.279 62.809 396.728 C 69.47 391.192 59.937 385.121 66.88 382.295 C 68.537 381.628 70.166 381.703 71.676 382.205 C 72.564 382.516 73.393 382.945 74.192 383.479 C 77.864 385.921 80.44 390.169 80.44 390.169 C 100.054 336.448 134.975 329.357 134.975 329.357 L 169.512 341.275 C 170.34 424.855 148.299 467.415 148.299 467.415 Z " fill="rgb(32,62,80)"/><path d=" M 181.301 262.467 C 181.301 262.467 173.244 265.185 161.783 263.445 C 150.323 261.704 146.596 254.509 138.54 259.141 C 126.446 266.093 132.105 290.027 135.141 302.471 C 136.275 307.109 137.709 319.3 134.977 329.36 C 134.977 329.36 151.081 341.889 169.513 341.268 L 179.569 319.396 C 179.569 319.396 201.439 293.229 181.301 262.467 Z " fill="rgb(210,218,220)"/><path d=" M 160.837 242.392 C 160.837 242.392 162.177 253.715 157.989 264.013 C 157.989 264.013 163.968 272.841 169.675 267.032 C 169.675 267.032 170.197 256.656 176.607 244.917 C 180.9 237.056 160.837 242.392 160.837 242.392" fill="rgb(239,86,64)"/><path d=" M 151.673 242.777 C 151.673 242.777 146.629 239.587 147.199 244.509 C 147.859 250.213 153.421 251.325 154.015 249.331 C 154.607 247.337 151.673 242.777 151.673 242.777" fill="rgb(245,117,89)"/><path d=" M 180.609 236.603 C 180.609 236.603 183.812 231.565 185.396 236.261 C 187.232 241.703 182.673 245.08 181.287 243.529 C 179.901 241.979 180.609 236.603 180.609 236.603" fill="rgb(245,117,89)"/><path d=" M 170.195 259.827 C 161.045 261.875 154.544 257.056 150.532 239.133 C 148.461 229.888 151.896 223.164 162.143 220.871 C 172.389 218.576 177.975 223.28 180.045 232.525 C 184.357 251.783 179.645 257.711 170.195 259.827 Z " fill="rgb(245,117,89)"/><path d=" M 178.447 239.596 C 178.812 240.479 178.213 241.567 177.109 242.025 C 176.004 242.483 174.811 242.139 174.444 241.255 C 174.079 240.371 174.677 239.283 175.783 238.825 C 176.887 238.367 178.08 238.712 178.447 239.596 Z " fill="rgb(220,75,68)"/><path d=" M 159.741 244.309 C 159.889 245.255 159.051 246.171 157.869 246.356 C 156.688 246.54 155.609 245.924 155.461 244.979 C 155.315 244.033 156.152 243.117 157.333 242.933 C 158.516 242.748 159.593 243.364 159.741 244.309 Z " fill="rgb(220,75,68)"/><path d=" M 172.076 231.244 C 171.987 231.244 171.897 231.219 171.817 231.165 C 170.253 230.121 168.036 230.677 168.012 230.681 C 167.757 230.748 167.507 230.595 167.441 230.344 C 167.377 230.093 167.528 229.839 167.779 229.773 C 167.887 229.747 170.428 229.111 172.337 230.387 C 172.552 230.529 172.611 230.82 172.467 231.036 C 172.376 231.171 172.228 231.244 172.076 231.244" fill="rgb(27,53,64)"/><path d=" M 154.851 235.101 C 154.769 235.101 154.685 235.08 154.609 235.033 C 154.388 234.901 154.316 234.613 154.451 234.392 C 155.633 232.424 158.204 231.915 158.313 231.893 C 158.563 231.853 158.811 232.011 158.86 232.265 C 158.908 232.519 158.743 232.764 158.488 232.813 C 158.467 232.819 156.217 233.271 155.252 234.875 C 155.165 235.02 155.009 235.101 154.851 235.101 Z " fill="rgb(27,53,64)"/><path d=" M 172.477 236.264 C 172.731 237.4 172.425 238.436 171.795 238.576 C 171.163 238.717 170.445 237.912 170.191 236.776 C 169.936 235.64 170.241 234.604 170.873 234.463 C 171.504 234.321 172.223 235.128 172.477 236.264" fill="rgb(34,67,77)"/><path d=" M 159.767 239 C 160.021 240.136 159.715 241.171 159.084 241.312 C 158.453 241.453 157.735 240.648 157.48 239.511 C 157.227 238.375 157.532 237.34 158.163 237.199 C 158.795 237.057 159.512 237.863 159.767 239 Z " fill="rgb(34,67,77)"/><path d=" M 163.876 249.759 C 163.876 249.759 169.752 249.28 172.341 247.093 C 172.341 247.093 171.629 251.684 168.432 252.003 C 165.235 252.321 163.876 249.759 163.876 249.759" fill="rgb(34,67,77)"/><path d=" M 169.275 236.388 C 169.275 236.388 169.481 233.404 170.625 233.357 C 171.769 233.313 173.14 235.523 173.14 235.523 L 174.571 234.299 L 172.995 234.875 C 172.995 234.875 171.589 232.564 170.501 232.803 C 168.953 233.143 169.275 236.388 169.275 236.388 Z " fill="rgb(34,67,77)"/><path d=" M 160.468 238.72 C 160.468 238.72 159.008 236.108 157.955 236.555 C 156.9 237.001 156.604 239.585 156.604 239.585 L 154.787 239.088 L 156.459 238.937 C 156.459 238.937 156.744 236.248 157.831 236 C 159.376 235.647 160.468 238.72 160.468 238.72" fill="rgb(34,67,77)"/><path d=" M 166.84 244.459 L 166.369 243.565 C 167.131 243.164 167.195 242.623 167.116 242.24 C 167.004 241.699 166.563 241.269 166.244 241.244 C 166.061 241.235 165.904 241.391 165.781 241.716 L 164.835 241.364 C 165.24 240.273 166.008 240.215 166.321 240.237 C 167.125 240.297 167.908 241.087 168.105 242.033 C 168.312 243.025 167.839 243.932 166.84 244.459" fill="rgb(220,75,68)"/><path d=" M 152.397 246.004 C 152.397 246.004 149.576 235.623 151.251 228.281 C 151.251 228.281 159.209 217.199 174.571 222.677 C 174.571 222.677 179.127 230.013 181.384 240.28 C 181.384 240.28 181.957 236.592 180.429 228.379 C 178.9 220.165 171.613 215.063 161.621 216.707 C 151.629 218.349 140.936 228.291 152.397 246.004" fill="rgb(27,53,64)"/><path d=" M 168.504 220.375 C 168.504 220.375 169.113 223.084 166.477 230.061 C 166.477 230.061 164.581 228.08 162.361 230.061 C 160.141 232.043 155.632 231.381 154.093 232.452 C 152.555 233.523 152.555 235.972 152.555 235.972 C 152.555 235.972 151.221 232.923 152.555 229.267 C 152.555 229.267 149.559 233.075 149.956 237.779 C 149.956 237.779 145.893 237.121 146.077 230.419 C 146.263 223.716 155.791 212.872 166.477 213.576 C 177.165 214.279 179.709 231.201 179.709 231.201 C 179.709 231.201 178.735 230.435 177.209 230.776 C 177.209 230.776 176.973 227.192 174.571 222.677 C 174.571 222.677 175.679 225.936 174.571 229.452 C 174.571 229.452 171.593 227.891 169.247 228.379 C 169.247 228.379 170.696 225.544 168.504 220.375" fill="rgb(27,53,64)"/><path d=" M 135.827 261.28 C 141.029 257.179 145.079 262.395 146.072 269.609 C 147.064 276.823 137.659 319.383 130.405 317.813 C 127.605 317.208 126.464 306.06 126.464 306.06 C 126.464 306.06 129.301 294.093 131.136 276.083 C 131.98 267.805 133.115 263.417 135.827 261.28" fill="rgb(245,117,89)"/><path d=" M 120.693 311.799 C 113.69 305.124 101.134 282.984 97.944 271.705 L 103.259 269.567 C 103.259 269.567 119.263 292.46 126.557 298.233 C 133.852 304.005 136.417 310.435 133.159 315.94 C 129.901 321.445 122.166 313.203 120.693 311.799" fill="rgb(245,117,89)"/><path d=" M 100.127 256.936 C 99.76 264.176 105.661 265.892 103.043 271.449 C 102.503 272.597 101.681 273.207 100.826 273.509 C 99.205 274.083 97.403 273.541 96.194 272.319 C 93.389 269.484 89.053 266.48 86.745 265.163 C 84.12 263.649 85.607 263.236 85.607 263.236 C 85.353 263.116 85.105 263.016 84.858 262.916 C 82.985 262.132 81.488 261.836 82.846 261.004 C 84.373 260.053 89.79 262.032 89.79 262.032 C 82.741 257.337 80.827 258.481 82.115 257.484 C 83.871 256.119 90.573 259.26 90.774 259.355 C 87.049 255.832 84.348 255.035 85.826 254.504 C 87.323 253.965 94.693 259.303 97.382 261.305 C 97.989 261.755 98.359 262.044 98.359 262.044 C 98.267 256.125 100.127 256.936 100.127 256.936" fill="rgb(245,117,89)"/><path d=" M 97.382 261.305 C 97.989 261.755 98.359 262.044 98.359 262.044 C 98.359 262.044 97.098 264.165 98.732 266.916 C 98.732 266.916 95.732 264.947 97.382 261.305 Z " fill="rgb(239,86,64)"/><path d=" M 91.202 265.463 C 90.578 265.12 87.021 263.117 85.607 263.236 C 85.353 263.116 85.105 263.016 84.858 262.916 C 85.808 261.663 90.494 264.949 91.202 265.463 Z " fill="rgb(239,86,64)"/><path d=" M 119.154 372.896 C 119.154 373.683 118.516 374.32 117.73 374.32 C 116.945 374.32 116.307 373.683 116.307 372.896 C 116.307 372.111 116.945 371.473 117.73 371.473 C 118.516 371.473 119.154 372.111 119.154 372.896 Z " fill="rgb(97,150,180)"/><path d=" M 144.54 382.691 C 144.54 383.476 143.903 384.113 143.117 384.113 C 142.331 384.113 141.693 383.476 141.693 382.691 C 141.693 381.904 142.331 381.267 143.117 381.267 C 143.903 381.267 144.54 381.904 144.54 382.691 Z " fill="rgb(97,150,180)"/><path d=" M 166.172 387.941 C 166.172 388.728 165.535 389.365 164.749 389.365 C 163.963 389.365 163.327 388.728 163.327 387.941 C 163.327 387.156 163.963 386.519 164.749 386.519 C 165.535 386.519 166.172 387.156 166.172 387.941 Z " fill="rgb(97,150,180)"/><path d=" M 132.935 354.316 C 132.935 355.101 132.297 355.739 131.511 355.739 C 130.725 355.739 130.088 355.101 130.088 354.316 C 130.088 353.529 130.725 352.892 131.511 352.892 C 132.297 352.892 132.935 353.529 132.935 354.316 Z " fill="rgb(97,150,180)"/><path d=" M 137.727 367.837 C 137.727 368.623 137.089 369.26 136.304 369.26 C 135.517 369.26 134.88 368.623 134.88 367.837 C 134.88 367.051 135.517 366.413 136.304 366.413 C 137.089 366.413 137.727 367.051 137.727 367.837 Z " fill="rgb(97,150,180)"/><path d=" M 160.237 375.544 C 160.237 376.331 159.6 376.967 158.815 376.967 C 158.028 376.967 157.391 376.331 157.391 375.544 C 157.391 374.759 158.028 374.121 158.815 374.121 C 159.6 374.121 160.237 374.759 160.237 375.544 Z " fill="rgb(97,150,180)"/><path d=" M 163.327 352.22 C 163.327 353.005 162.689 353.643 161.903 353.643 C 161.117 353.643 160.48 353.005 160.48 352.22 C 160.48 351.433 161.117 350.796 161.903 350.796 C 162.689 350.796 163.327 351.433 163.327 352.22 Z " fill="rgb(97,150,180)"/><path d=" M 148.576 347.365 C 148.576 348.151 147.94 348.788 147.153 348.788 C 146.368 348.788 145.731 348.151 145.731 347.365 C 145.731 346.579 146.368 345.941 147.153 345.941 C 147.94 345.941 148.576 346.579 148.576 347.365 Z " fill="rgb(97,150,180)"/><path d=" M 106.561 400.656 C 106.561 401.441 105.925 402.079 105.139 402.079 C 104.353 402.079 103.715 401.441 103.715 400.656 C 103.715 399.869 104.353 399.232 105.139 399.232 C 105.925 399.232 106.561 399.869 106.561 400.656 Z " fill="rgb(97,150,180)"/><path d=" M 86.281 394.605 C 86.281 395.391 85.644 396.028 84.858 396.028 C 84.072 396.028 83.434 395.391 83.434 394.605 C 83.434 393.819 84.072 393.181 84.858 393.181 C 85.644 393.181 86.281 393.819 86.281 394.605" fill="rgb(97,150,180)"/><path d=" M 74.192 383.479 C 73.941 383.864 73.497 384.115 72.993 384.115 C 72.209 384.115 71.572 383.479 71.572 382.695 C 71.572 382.516 71.602 382.353 71.676 382.205 C 72.564 382.516 73.393 382.945 74.192 383.479" fill="rgb(97,150,180)"/><path d=" M 113.828 419.215 C 113.828 420 113.191 420.637 112.405 420.637 C 111.619 420.637 110.981 420 110.981 419.215 C 110.981 418.428 111.619 417.791 112.405 417.791 C 113.191 417.791 113.828 418.428 113.828 419.215 Z " fill="rgb(97,150,180)"/><path d=" M 77.429 439.384 C 77.429 440.169 76.792 440.807 76.006 440.807 C 75.22 440.807 74.583 440.169 74.583 439.384 C 74.583 438.597 75.22 437.961 76.006 437.961 C 76.792 437.961 77.429 438.597 77.429 439.384 Z " fill="rgb(97,150,180)"/><path d=" M 92.299 427.157 C 92.299 427.944 91.662 428.581 90.876 428.581 C 90.09 428.581 89.453 427.944 89.453 427.157 C 89.453 426.372 90.09 425.735 90.876 425.735 C 91.662 425.735 92.299 426.372 92.299 427.157 Z " fill="rgb(97,150,180)"/><path d=" M 70.153 416.34 C 70.153 417.127 69.516 417.764 68.73 417.764 C 67.944 417.764 67.307 417.127 67.307 416.34 C 67.307 415.555 67.944 414.917 68.73 414.917 C 69.516 414.917 70.153 415.555 70.153 416.34 Z " fill="rgb(97,150,180)"/><path d=" M 88.03 458.936 C 88.03 459.723 87.393 460.36 86.607 460.36 C 85.82 460.36 85.183 459.723 85.183 458.936 C 85.183 458.151 85.82 457.513 86.607 457.513 C 87.393 457.513 88.03 458.151 88.03 458.936 Z " fill="rgb(97,150,180)"/><path d=" M 101.578 384.113 C 101.578 384.899 100.941 385.536 100.155 385.536 C 99.369 385.536 98.732 384.899 98.732 384.113 C 98.732 383.327 99.369 382.691 100.155 382.691 C 100.941 382.691 101.578 383.327 101.578 384.113 Z " fill="rgb(97,150,180)"/><path d=" M 115.251 360.147 C 115.251 360.933 114.614 361.571 113.828 361.571 C 113.042 361.571 112.405 360.933 112.405 360.147 C 112.405 359.361 113.042 358.724 113.828 358.724 C 114.614 358.724 115.251 359.361 115.251 360.147 Z " fill="rgb(97,150,180)"/><path d=" M 130.724 340.201 C 130.724 340.987 130.086 341.624 129.301 341.624 C 128.515 341.624 127.878 340.987 127.878 340.201 C 127.878 339.415 128.515 338.777 129.301 338.777 C 130.086 338.777 130.724 339.415 130.724 340.201 Z " fill="rgb(97,150,180)"/><path d=" M 99.367 369.26 C 99.367 370.047 98.73 370.683 97.944 370.683 C 97.158 370.683 96.521 370.047 96.521 369.26 C 96.521 368.475 97.158 367.837 97.944 367.837 C 98.73 367.837 99.367 368.475 99.367 369.26 Z " fill="rgb(97,150,180)"/><path d=" M 116.675 345.941 C 116.675 346.728 116.037 347.365 115.251 347.365 C 114.465 347.365 113.828 346.728 113.828 345.941 C 113.828 345.156 114.465 344.519 115.251 344.519 C 116.037 344.519 116.675 345.156 116.675 345.941 Z " fill="rgb(97,150,180)"/><path d=" M 89.453 410.019 C 89.453 410.805 88.816 411.443 88.03 411.443 C 87.244 411.443 86.607 410.805 86.607 410.019 C 86.607 409.233 87.244 408.596 88.03 408.596 C 88.816 408.596 89.453 409.233 89.453 410.019 Z " fill="rgb(97,150,180)"/><path d=" M 71.576 397.451 C 71.576 398.237 70.939 398.875 70.153 398.875 C 69.367 398.875 68.73 398.237 68.73 397.451 C 68.73 396.665 69.367 396.028 70.153 396.028 C 70.939 396.028 71.576 396.665 71.576 397.451 Z " fill="rgb(97,150,180)"/><path d=" M 123.423 393.181 C 123.423 393.968 122.786 394.605 122 394.605 C 121.214 394.605 120.577 393.968 120.577 393.181 C 120.577 392.396 121.214 391.759 122 391.759 C 122.786 391.759 123.423 392.396 123.423 393.181 Z " fill="rgb(97,150,180)"/><path d=" M 152.847 400.656 C 152.847 401.441 152.209 402.079 151.423 402.079 C 150.637 402.079 150 401.441 150 400.656 C 150 399.869 150.637 399.232 151.423 399.232 C 152.209 399.232 152.847 399.869 152.847 400.656 Z " fill="rgb(97,150,180)"/><path d=" M 151.423 360.147 C 151.423 360.933 150.785 361.571 150 361.571 C 149.213 361.571 148.576 360.933 148.576 360.147 C 148.576 359.361 149.213 358.724 150 358.724 C 150.785 358.724 151.423 359.361 151.423 360.147 Z " fill="rgb(97,150,180)"/><path d=" M 168.528 363.131 C 168.528 363.917 167.891 364.555 167.105 364.555 C 166.319 364.555 165.681 363.917 165.681 363.131 C 165.681 362.345 166.319 361.708 167.105 361.708 C 167.891 361.708 168.528 362.345 168.528 363.131 Z " fill="rgb(97,150,180)"/><path d=" M 134.357 411.443 C 134.357 412.228 133.72 412.865 132.935 412.865 C 132.148 412.865 131.511 412.228 131.511 411.443 C 131.511 410.656 132.148 410.019 132.935 410.019 C 133.72 410.019 134.357 410.656 134.357 411.443 Z " fill="rgb(97,150,180)"/><path d=" M 122 436.757 C 122 437.543 121.363 438.18 120.577 438.18 C 119.791 438.18 119.154 437.543 119.154 436.757 C 119.154 435.971 119.791 435.333 120.577 435.333 C 121.363 435.333 122 435.971 122 436.757 Z " fill="rgb(97,150,180)"/><path d=" M 100.155 440.807 C 100.155 441.593 99.518 442.231 98.732 442.231 C 97.946 442.231 97.309 441.593 97.309 440.807 C 97.309 440.021 97.946 439.384 98.732 439.384 C 99.518 439.384 100.155 440.021 100.155 440.807 Z " fill="rgb(97,150,180)"/><path d=" M 160.237 419.215 C 160.237 420 159.6 420.637 158.815 420.637 C 158.028 420.637 157.391 420 157.391 419.215 C 157.391 418.428 158.028 417.791 158.815 417.791 C 159.6 417.791 160.237 418.428 160.237 419.215 Z " fill="rgb(97,150,180)"/><path d=" M 140.573 430.004 C 140.573 430.789 139.936 431.427 139.151 431.427 C 138.364 431.427 137.727 430.789 137.727 430.004 C 137.727 429.217 138.364 428.581 139.151 428.581 C 139.936 428.581 140.573 429.217 140.573 430.004 Z " fill="rgb(97,150,180)"/><path d=" M 110.981 461.783 C 110.981 462.569 110.344 463.207 109.558 463.207 C 108.772 463.207 108.135 462.569 108.135 461.783 C 108.135 460.997 108.772 460.36 109.558 460.36 C 110.344 460.36 110.981 460.997 110.981 461.783 Z " fill="rgb(97,150,180)"/><path d=" M 132.935 454.372 C 132.935 455.159 132.297 455.796 131.511 455.796 C 130.725 455.796 130.088 455.159 130.088 454.372 C 130.088 453.587 130.725 452.949 131.511 452.949 C 132.297 452.949 132.935 453.587 132.935 454.372 Z " fill="rgb(97,150,180)"/><path d=" M 154.083 445.988 C 154.083 446.775 153.445 447.412 152.66 447.412 C 151.873 447.412 151.236 446.775 151.236 445.988 C 151.236 445.203 151.873 444.565 152.66 444.565 C 153.445 444.565 154.083 445.203 154.083 445.988 Z " fill="rgb(97,150,180)"/><path d=" M 144.54 470.471 C 144.54 471.257 143.903 471.895 143.117 471.895 C 142.331 471.895 141.693 471.257 141.693 470.471 C 141.693 469.685 142.331 469.048 143.117 469.048 C 143.903 469.048 144.54 469.685 144.54 470.471 Z " fill="rgb(97,150,180)"/><path d=" M 142.984 545.414 L 119.609 545.414 C 118.084 541.061 120.897 536.695 120.423 532.86 C 119.609 526.376 123.384 529.959 123.384 529.959 C 124.051 522.987 133.851 521.668 133.747 524.777 C 133.584 529.352 134.472 532.179 135.775 534.073 C 138.409 537.879 142.732 537.849 143.472 540.572 C 143.547 540.839 143.605 541.105 143.649 541.343 C 144.375 544.747 142.984 545.414 142.984 545.414" fill="rgb(32,62,80)"/><path d=" M 143.649 541.343 C 138.809 542.468 127.647 541.002 127.204 538.189 C 126.774 535.465 132.784 534.192 135.775 534.073 C 138.409 537.879 142.732 537.849 143.472 540.572 C 143.547 540.839 143.605 541.105 143.649 541.343" fill="rgb(40,77,94)"/><path d=" M 46.895 364.353 C 44.408 362.088 40.367 365.833 40.367 365.833 C 40.367 365.833 42.543 369.06 41.136 370.363 C 39.73 371.665 38.102 368.691 35.333 369.993 C 35.111 370.096 34.875 370.229 34.653 370.377 C 32.491 371.665 30.241 374.375 28.42 376.432 C 28.051 376.847 27.695 377.232 27.369 377.572 C 25.253 379.793 19.79 381.096 18.768 375.175 C 17.747 369.253 24.408 362.309 31.721 355.929 C 39.034 349.549 43.757 353.339 43.757 353.339 C 43.757 353.339 45.415 356.019 45.415 357.691 C 45.415 359.349 46.895 360.179 47.724 361.763 C 48.553 363.331 46.895 364.353 46.895 364.353" fill="rgb(32,62,80)"/><path d=" M 34.653 370.377 C 32.491 371.665 30.241 374.375 28.42 376.432 C 25.682 377.084 23.225 376.891 22.84 374.316 C 21.907 368.097 34.312 360.193 33.32 364.56 C 32.817 366.751 33.675 368.839 34.653 370.377 Z " fill="rgb(40,77,94)"/><path d=" M 467.495 535.305 C 466.343 534.7 465.28 533.369 464.325 531.687 C 464.325 531.685 463.504 526.709 464.325 521.481 C 465.148 516.252 462.871 511.983 455.469 510.379 C 448.273 508.82 444.004 512.287 445.665 526.753 C 445.665 526.755 445.667 526.756 445.667 526.759 C 444.572 532.768 444.345 539.631 446.841 545.414 L 468.992 545.414 C 468.992 545.414 472.485 537.925 467.495 535.305" fill="rgb(210,218,220)"/><path d=" M 486.927 457.333 C 486.927 457.333 486.927 471.767 478.784 486.569 C 470.493 501.644 460.244 522.333 460.244 522.333 C 460.244 522.333 453.415 528.996 449.075 517.96 C 449.075 517.96 452.139 479.539 459.169 465.475 C 466.201 451.412 486.927 457.333 486.927 457.333" fill="rgb(245,117,89)"/><path d=" M 593.141 410.332 C 593.141 410.332 606.333 465.812 614.725 480.447 C 614.725 480.447 612.795 486.569 603.708 488.42 C 603.708 488.42 575.007 446.231 573.156 428.467 C 571.305 410.703 593.141 410.332 593.141 410.332 Z " fill="rgb(245,117,89)"/><path d=" M 599.521 423.373 C 596.012 431.827 568.908 432.285 568.908 432.285 L 566.835 429.236 L 566.287 428.437 L 562.053 422.189 C 562.053 422.189 517.14 378.135 508.391 381.836 L 508.376 381.836 C 508.125 381.953 507.873 382.087 507.636 382.265 C 501.627 386.557 501.064 410.08 493.957 449.561 C 493.277 453.307 491.767 457.673 490.627 460.693 C 490.493 461.019 490.376 461.329 490.257 461.625 C 489.605 463.299 489.147 464.364 489.147 464.364 C 461.731 475.467 452.685 453.528 452.685 453.528 C 452.685 453.528 453.012 452.892 453.485 451.871 C 453.589 451.648 453.708 451.397 453.825 451.131 C 455.261 447.963 457.556 442.471 457.527 439.569 C 457.497 436.387 457.468 433.321 457.453 430.376 C 457.453 430.109 457.453 429.857 457.437 429.607 C 457.393 420.117 457.408 411.872 457.468 404.707 L 457.468 403.952 C 457.497 400.828 457.541 397.912 457.601 395.188 L 457.601 394.419 C 457.837 381.939 458.237 373.605 458.667 368.053 C 458.681 367.803 458.711 367.536 458.725 367.299 C 459.481 357.957 460.28 357.04 460.28 357.04 L 454.788 318.861 L 514.712 318.861 C 514.712 318.861 523.712 327.877 535.392 339.779 C 535.644 340.016 535.881 340.253 536.117 340.504 C 540.352 344.812 544.925 349.491 549.515 354.243 C 549.708 354.435 549.885 354.612 550.048 354.789 C 551.853 356.655 553.66 358.52 555.451 360.371 C 555.673 360.592 555.88 360.829 556.103 361.052 C 562.113 367.284 567.945 373.427 572.935 378.801 C 573.112 378.979 573.275 379.156 573.437 379.333 C 580.261 386.721 585.457 392.627 587.249 395.38 C 592.001 402.649 595.701 412.108 597.744 417.956 C 597.744 417.956 597.744 417.956 597.744 417.971 C 597.848 418.237 597.937 418.475 598.025 418.725 C 598.988 421.568 599.521 423.373 599.521 423.373" fill="rgb(135,43,57)"/><path d=" M 469.251 362.753 C 466.808 365.64 463.256 367.417 458.667 368.053 C 458.681 367.803 458.711 367.536 458.725 367.299 C 463.048 366.677 466.393 364.989 468.688 362.265 C 472.804 357.409 472.137 350.852 472.123 350.793 L 472.863 350.704 C 472.892 350.985 473.573 357.647 469.251 362.753 Z " fill="rgb(97,36,47)"/><path d=" M 536.117 340.504 C 535.881 340.519 535.659 340.535 535.423 340.535 C 528.761 340.535 521.803 333.251 521.448 332.881 L 521.981 332.363 C 522.069 332.467 528.997 339.72 535.392 339.779 C 535.644 340.016 535.881 340.253 536.117 340.504 Z " fill="rgb(97,36,47)"/><path d=" M 490.627 460.693 C 490.493 461.019 490.376 461.329 490.257 461.625 C 485.816 463.255 481.745 463.92 478.029 463.92 C 466.187 463.92 457.985 457.067 453.485 451.871 C 453.589 451.648 453.708 451.397 453.825 451.131 C 459.584 457.881 471.887 467.844 490.627 460.693" fill="rgb(97,36,47)"/><path d=" M 506.719 368.083 C 507.711 372.332 508.347 376.965 508.376 381.836 C 508.125 381.953 507.873 382.087 507.636 382.265 C 507.607 359.912 494.668 342.473 494.52 342.281 L 495.112 341.837 C 495.231 341.985 502.899 352.347 506.525 367.313 C 508.036 366.321 509.057 364.9 509.487 363.065 C 511.352 355.219 502.869 342.399 502.796 342.267 L 503.403 341.852 C 503.757 342.399 512.136 355.071 510.212 363.228 C 509.709 365.36 508.524 366.973 506.719 368.083" fill="rgb(97,36,47)"/><path d=" M 573.437 379.333 C 571.232 381.732 569.159 383.775 568.967 383.952 L 568.567 384.352 L 568.375 383.819 C 565.473 376.225 546.821 359.764 546.628 359.601 L 546.407 359.393 L 549.515 354.243 C 549.708 354.435 549.885 354.612 550.048 354.789 L 547.443 359.112 C 551.069 360.371 553.645 360.592 555.451 360.371 C 555.673 360.592 555.88 360.829 556.103 361.052 C 555.496 361.155 554.844 361.215 554.163 361.215 C 552.491 361.215 550.581 360.873 548.435 360.223 C 552.668 364.041 565.828 376.24 568.848 383.035 C 570.017 381.88 571.499 380.355 572.935 378.801 C 573.112 378.979 573.275 379.156 573.437 379.333" fill="rgb(97,36,47)"/><path d=" M 471.087 430.243 L 470.791 430.303 C 470.509 430.376 467.149 431.072 463.285 431.072 C 461.345 431.072 459.303 430.895 457.453 430.376 C 457.453 430.109 457.453 429.857 457.437 429.607 C 462.323 431.012 468.851 429.932 470.332 429.651 L 469.088 398.845 C 468.392 400.532 467.016 402.841 464.44 404.115 C 463.211 404.736 461.835 405.032 460.324 405.032 C 459.421 405.032 458.475 404.929 457.468 404.707 L 457.468 403.952 C 460.028 404.544 462.249 404.381 464.1 403.448 C 467.237 401.895 468.481 398.564 468.867 397.245 C 466.393 397.616 461.405 396.357 457.601 395.188 L 457.601 394.419 C 461.701 395.661 467.252 397.097 469.251 396.403 L 469.725 396.239 L 471.087 430.243" fill="rgb(97,36,47)"/><path d=" M 598.025 418.725 C 593.719 422.975 584.895 429.473 571.32 429.473 C 569.884 429.473 568.389 429.399 566.835 429.236 L 566.287 428.437 C 582.793 430.332 593.141 422.589 597.744 417.971 C 597.848 418.237 597.937 418.475 598.025 418.725 Z " fill="rgb(97,36,47)"/><path d=" M 525.785 156.547 C 525.785 156.547 524.137 152.755 517.181 152.753 C 511.82 152.752 509.768 155.713 509.768 155.713 C 506.56 165.089 503.113 200.987 501.879 202.265 C 501.253 202.912 461.485 229.696 461.485 229.696 C 483.067 230.101 496.532 256.703 496.532 256.703 C 497.229 247.961 521.603 213.321 521.864 210.232 C 522.357 204.405 532.668 178.381 525.785 156.547" fill="rgb(207,37,72)"/><path d=" M 456.745 344.245 C 456.745 344.245 456.545 351.735 458.968 352.229 C 461.391 352.723 481.128 358.556 503.827 348.237 C 526.525 337.919 530.473 330.271 523.812 324.596 C 517.149 318.921 456.745 344.245 456.745 344.245 Z " fill="rgb(207,37,72)"/><path d=" M 447.651 234.88 C 447.651 234.88 426.999 232.433 415.156 237.559 C 415.156 237.559 411.853 252.213 428.123 285.012 C 444.392 317.811 440.619 338.468 458.968 346.244 C 475.235 353.137 523.195 332.623 524.701 325.819 C 528.493 308.691 499.165 278.631 497.315 261.212 C 495.464 243.793 478.44 217.605 447.651 234.88" fill="rgb(239,41,77)"/><path d=" M 415.156 237.559 C 400.723 242.684 384.485 258.889 384.461 266.7 C 384.439 274.511 398.004 277.521 398.004 277.521 L 420.245 266.7 C 420.245 266.7 426.608 262.257 422.557 249.312 C 418.508 236.365 415.156 237.559 415.156 237.559 Z " fill="rgb(207,37,72)"/><path d=" M 474.46 252.001 C 470.148 252.001 464.799 250.448 461.476 248.079 C 459.644 246.773 458.551 245.301 458.316 243.82 C 457.5 238.693 462.492 236.088 462.705 235.98 L 463.379 237.297 C 463.204 237.387 459.133 239.533 459.779 243.588 C 459.949 244.668 460.833 245.803 462.335 246.873 C 466.056 249.525 472.492 251.083 476.683 250.343 C 478.571 250.011 479.807 249.331 480.355 248.325 C 481.025 247.095 480.452 245.703 480.447 245.688 L 481.807 245.104 C 481.844 245.187 482.671 247.147 481.664 249.015 C 480.893 250.447 479.304 251.384 476.94 251.8 C 476.173 251.936 475.337 252.001 474.46 252.001" fill="rgb(210,218,220)"/><path d=" M 456.157 267.62 C 452.964 267.62 447.661 266.289 446.917 261.045 C 446.539 258.377 446.784 256.152 446.997 254.189 C 447.315 251.299 447.564 249.016 445.88 246.279 C 443.099 241.763 439.312 241.459 439.152 241.448 L 439.241 239.971 C 439.431 239.981 443.936 240.3 447.14 245.503 C 449.091 248.672 448.788 251.431 448.469 254.351 C 448.253 256.319 448.031 258.353 448.384 260.837 C 449.187 266.495 456.397 266.14 456.703 266.124 L 456.791 267.601 C 456.591 267.613 456.379 267.62 456.157 267.62" fill="rgb(210,218,220)"/><path d=" M 460.651 241.052 C 460.651 241.052 471.568 233.616 468.977 225.567 C 466.387 217.517 431.228 218.073 422.161 227.695 C 413.095 237.317 441.776 243.704 441.776 243.704 C 443.996 239.229 458.183 238.736 460.651 241.052" fill="rgb(207,37,72)"/><path d=" M 441.021 239.793 C 435.841 238.033 432.771 234.295 433.881 229.977 C 434.991 225.66 457.261 225.545 461.485 228.995 C 465.708 232.444 459.759 246.155 441.021 239.793 Z " fill="rgb(159,34,64)"/><path d=" M 438.556 227.657 C 438.556 227.657 443.139 235.488 441.021 239.793 C 441.021 239.793 456.745 245.221 456.745 236.424 C 456.745 236.424 453.781 229.829 454.899 225.567 L 438.556 227.657" fill="rgb(239,86,64)"/><path d=" M 433.313 220.82 C 433.313 220.82 425.588 208.447 426.304 196.629 C 426.663 190.72 429.701 188.405 429.701 188.405 C 429.701 188.405 427.248 184.995 429.877 179.783 C 429.877 179.783 433.516 183.992 446.287 182.664 C 458.601 181.384 459.829 190.163 459.829 190.163 C 468.631 191.471 462.693 218.099 456.551 220.82 L 433.313 220.82 Z " fill="rgb(249,173,99)"/><path d=" M 430.036 209.395 C 430.036 209.395 425.596 204.964 425.049 210.144 C 424.416 216.145 429.865 218.563 430.932 216.653 C 431.996 214.745 430.036 209.395 430.036 209.395 Z " fill="rgb(245,117,89)"/><path d=" M 461.128 209.708 C 461.128 209.708 465.568 205.276 466.115 210.456 C 466.748 216.457 461.297 218.875 460.232 216.967 C 459.167 215.057 461.128 209.708 461.128 209.708 Z " fill="rgb(245,117,89)"/><path d=" M 445.113 231.132 C 435.261 231.132 429.701 224.696 429.701 205.396 C 429.701 195.44 434.767 189.333 445.801 189.333 C 456.837 189.333 461.485 195.439 461.485 205.396 C 461.485 226.135 455.292 231.132 445.113 231.132 Z " fill="rgb(245,117,89)"/><path d=" M 458.223 212.28 C 458.395 213.269 457.531 214.248 456.292 214.464 C 455.055 214.68 453.911 214.052 453.737 213.061 C 453.565 212.072 454.429 211.093 455.667 210.877 C 456.905 210.661 458.049 211.289 458.223 212.28 Z " fill="rgb(220,75,68)"/><path d=" M 437.957 212.819 C 437.892 213.823 436.823 214.569 435.568 214.487 C 434.313 214.405 433.349 213.525 433.415 212.523 C 433.481 211.52 434.551 210.772 435.805 210.855 C 437.06 210.936 438.023 211.816 437.957 212.819" fill="rgb(220,75,68)"/><path d=" M 453.884 201.931 C 453.755 201.951 453.62 201.92 453.509 201.835 C 451.94 200.629 449.587 201.056 449.551 201.061 C 449.289 201.104 449.027 200.936 448.977 200.668 C 448.925 200.401 449.103 200.144 449.371 200.093 C 449.473 200.071 452.195 199.583 454.108 201.055 C 454.324 201.22 454.364 201.529 454.199 201.745 C 454.119 201.849 454.004 201.912 453.884 201.931" fill="rgb(249,173,99)"/><path d=" M 435.028 202 C 434.907 201.984 434.791 201.925 434.708 201.824 C 434.536 201.613 434.567 201.303 434.776 201.131 C 436.643 199.601 439.375 200.007 439.481 200.024 C 439.749 200.067 439.933 200.317 439.892 200.587 C 439.851 200.855 439.588 201.033 439.329 200.997 C 439.312 200.992 436.915 200.649 435.401 201.892 C 435.291 201.981 435.156 202.016 435.028 202" fill="rgb(249,173,99)"/><path d=" M 452.865 207.492 C 452.865 208.716 452.315 209.708 451.635 209.708 C 450.955 209.708 450.404 208.716 450.404 207.492 C 450.404 206.268 450.955 205.276 451.635 205.276 C 452.313 205.276 452.865 206.268 452.865 207.492 Z " fill="rgb(34,67,77)"/><path d=" M 439.708 207.492 C 439.708 208.716 439.157 209.708 438.477 209.708 C 437.797 209.708 437.247 208.716 437.247 207.492 C 437.247 206.268 437.797 205.276 438.477 205.276 C 439.157 205.276 439.708 206.268 439.708 207.492 Z " fill="rgb(34,67,77)"/><path d=" M 432.724 191.471 C 432.724 191.471 443.223 195.315 458.276 194.233 C 458.276 194.233 461.485 198.235 461.096 212.349 C 461.096 212.349 469.909 186.923 444.179 186.923 C 418.448 186.923 430.04 211.785 430.04 211.785 C 430.04 211.785 427.937 196.235 432.724 191.471" fill="rgb(249,173,99)"/><path d=" M 445.737 214.071 L 445 213.328 L 446.948 211.392 C 445.059 208.72 445.069 202.537 445.071 202.261 L 446.117 202.268 C 446.117 202.335 446.107 208.987 448.036 211.077 L 448.379 211.448 L 445.737 214.071" fill="rgb(220,75,68)"/><path d=" M 439.199 217.293 C 439.199 217.293 448.895 217.703 453.791 216.408 C 453.791 216.408 454.656 223.459 447.141 223.809 C 439.199 224.179 439.199 217.293 439.199 217.293" fill="rgb(34,67,77)"/><path d=" M 480.635 243.952 C 482.485 243.609 482.3 248.451 480.635 247.048 C 478.969 245.644 478.784 244.296 480.635 243.952 Z " fill="rgb(210,218,220)"/><path d=" M 458.32 267.417 C 458.037 269.279 453.524 267.516 455.396 266.403 C 457.267 265.289 458.601 265.556 458.32 267.417 Z " fill="rgb(210,218,220)"/><path d=" M 438.457 277.521 C 438.457 277.521 435.519 285.057 435.687 289.313 C 435.855 293.571 437.247 293.015 437.247 293.015 C 437.247 293.015 435.019 293.892 434.596 296.345 C 434.175 298.8 440.369 300.601 440.795 300.601 C 441.221 300.601 445.593 298.936 445.593 298.936 L 446.509 285.012 L 442.64 282.581 L 438.457 277.521" fill="rgb(239,86,64)"/><path d=" M 440.795 276.547 C 440.795 276.547 446.144 279.877 448.216 281.912 C 450.288 283.948 449.105 299.676 448.216 300.417 C 447.327 301.157 440.507 302.683 439.199 301.828 C 437.889 300.972 439.708 296.345 439.708 296.345 C 439.708 296.345 443.133 295.605 442.64 296.901 C 442.145 298.196 442.64 299.307 442.64 299.307 L 444.047 298.752 C 444.047 298.752 443.356 295.236 444.047 292.645 C 444.736 290.055 439.224 287.323 438.556 282.581 C 437.889 277.841 440.795 276.547 440.795 276.547" fill="rgb(245,117,89)"/><path d=" M 385.351 268.884 C 383.637 261.487 390.977 258.871 401.189 260.132 C 413.032 261.595 437.353 264.692 442.64 277.521 C 442.64 277.521 444.367 282.581 439.897 285.012 C 427.405 291.807 388.567 282.775 385.351 268.884 Z " fill="rgb(207,37,72)"/><path d=" M 422.397 263.983 C 422.397 263.983 408.283 258.119 401.252 257.525 C 394.22 256.932 410.975 263.076 422.397 263.983 Z " fill="rgb(159,34,64)"/><path d=" M 528.199 136.913 C 527.132 138.127 525.371 142.849 525.371 142.849 C 524.631 146.816 524.201 149.008 522.809 150.828 C 521.433 152.649 522.159 155.861 522.159 155.861 C 522.159 155.861 516.769 158.629 512.24 155.211 C 512.24 155.211 512.713 152.028 512.24 151.124 C 511.308 149.319 508.317 148.356 507.296 144.715 C 506.275 141.059 503.209 136.987 503.209 136.987 C 503.209 136.987 504.084 135.092 505.683 136.247 C 507.296 137.416 508.317 140.333 509.191 140.629 C 509.368 140.688 509.545 140.732 509.724 140.748 C 509.724 140.748 509.739 140.748 509.768 140.763 C 510.435 140.851 511.115 140.703 511.529 140.303 C 511.559 140.288 511.604 140.259 511.633 140.215 C 513.099 138.512 513.439 133.508 513.38 131.273 C 513.291 128.164 513.409 123.872 515.304 124.597 C 517.199 125.321 515.467 127.055 516.933 133.908 L 517.643 133.997 C 517.776 134.485 519.079 129.837 519.391 125.471 C 519.612 122.465 521.581 123.576 522.011 124.523 C 522.455 125.471 521.788 128.46 521.655 130.636 C 521.552 132.072 521.433 133.568 521.359 134.456 L 522.188 134.915 C 525.179 129.704 524.157 127.543 525.904 127.439 C 527.636 127.336 527.013 131.732 526.081 133.405 C 525.681 134.131 525.296 135.64 524.985 137.12 C 528.051 133.583 527.709 131.732 529.116 131.955 C 530.567 132.191 529.264 135.699 528.199 136.913 Z " fill="rgb(245,117,89)"/><path d=" M 514.964 145.069 C 513.928 142.213 510.227 140.911 509.768 140.763 C 510.435 140.851 511.115 140.703 511.529 140.303 C 515.156 141.932 514.964 145.069 514.964 145.069" fill="rgb(239,86,64)"/><path d=" M 450.657 523.7 C 450.657 523.7 448.609 519.52 450.436 517.724 C 452.261 515.928 454.412 519.259 457.531 518.519 C 460.651 517.779 461.373 515.561 462.184 518.581 C 462.995 521.603 462.007 531.101 450.657 523.7" fill="rgb(210,218,220)"/><path d=" M 462.4 523.515 C 462.4 523.515 454.021 526.483 449.677 523.515 L 450.781 527.141 C 450.781 527.141 459.888 528.107 461.144 525.811 L 462.4 523.515 Z " fill="rgb(172,191,195)"/><path d=" M 462.287 528.021 C 462.287 528.021 454.616 526.956 450.915 528.861 L 450.915 530.66 C 450.915 530.66 460.916 528.325 464.149 530.66 L 462.287 528.021" fill="rgb(172,191,195)"/><path d=" M 450.547 534.393 C 450.547 534.393 452.035 530.768 456.701 530.508 C 461.368 530.248 464.517 532.817 464.517 532.817 C 464.517 532.817 457.116 529.768 450.547 534.393" fill="rgb(172,191,195)"/><path d=" M 648.003 484.024 C 633.273 503.683 613.229 507.457 613.229 507.457 C 607.411 502.809 607.263 497.303 607.263 497.303 C 607.263 497.303 601.652 492.299 600.912 489.9 C 600.172 487.503 605.724 480.279 609.055 481.019 C 611.349 481.521 612.681 483.357 613.288 484.439 C 610.535 478.236 612.74 476.075 616.648 476.607 C 620.72 477.155 616.871 478.117 619.787 481.388 C 619.995 481.625 620.231 481.817 620.483 481.996 C 621.016 482.365 621.652 482.617 622.377 482.751 C 623.013 482.869 623.724 482.899 624.465 482.855 C 624.849 482.839 625.249 482.795 625.649 482.736 C 626.404 482.617 627.173 482.425 627.973 482.173 C 629.201 481.788 630.475 481.24 631.719 480.56 C 636.811 477.776 638.957 476.829 642.836 477.821 C 646.7 478.797 646.64 481.729 646.64 481.729 L 648.003 484.024 Z " fill="rgb(210,218,220)"/><path d=" M 648.003 484.024 C 633.273 503.683 613.229 507.457 613.229 507.457 C 623.459 503.061 632.859 497.303 639.283 490.211 C 645.693 483.12 648.003 484.024 648.003 484.024" fill="rgb(172,191,195)"/><path d=" M 620.483 481.996 C 621.016 482.365 621.652 482.617 622.377 482.751 C 618.484 483.535 618.203 487.013 618.203 487.013 L 616.545 486.481 C 616.9 482.307 620.201 482.011 620.483 481.996" fill="rgb(172,191,195)"/><path d=" M 623.103 487.428 L 621.371 487.488 C 620.72 485.031 621.563 483.564 622.377 482.751 C 623.013 482.869 623.724 482.899 624.465 482.855 C 622.407 484.883 623.103 487.428 623.103 487.428 Z " fill="rgb(172,191,195)"/><path d=" M 627.381 486.481 L 625.664 486.703 C 624.997 484.956 625.191 483.653 625.649 482.736 C 626.404 482.617 627.173 482.425 627.973 482.173 C 626.552 484.289 627.381 486.481 627.381 486.481" fill="rgb(172,191,195)"/><path d=" M 462.552 303.933 C 462.552 303.933 466.353 324.448 458.667 332.623 C 450.98 340.799 456.064 334.08 458.357 323.54 C 460.651 313 458.904 301.899 462.552 303.933 Z " fill="rgb(207,37,72)"/><path d=" M 498.029 294.777 C 498.029 294.777 510.147 298.759 516.485 309.951 C 516.485 309.951 508.021 291.729 498.029 294.777 Z " fill="rgb(207,37,72)"/><path d=" M 183.297 142.361 C 184.913 142.387 189.595 144.251 189.595 144.251 C 193.032 146.367 194.944 147.519 197.228 147.711 C 199.501 147.912 200.435 151.819 200.435 151.819 C 200.435 151.819 209.401 153.78 209.908 148.127 C 209.908 148.127 204.895 141.032 204.544 140.075 C 203.831 138.172 205.125 135.309 203.112 132.108 C 201.088 128.896 200.128 123.892 200.128 123.892 C 200.128 123.892 198.137 123.267 197.92 125.227 C 197.704 127.208 199.179 129.923 198.812 130.769 C 198.737 130.94 198.651 131.103 198.543 131.243 C 198.543 131.243 198.532 131.255 198.523 131.287 C 198.141 131.84 197.575 132.245 197 132.284 C 196.969 132.296 196.917 132.309 196.865 132.301 C 194.62 132.244 190.683 129.137 189.065 127.593 C 186.821 125.44 183.56 122.645 182.825 124.537 C 182.091 126.428 184.537 126.307 188.633 131.995 L 188.223 132.581 C 188.495 133.008 184.175 130.852 180.729 128.152 C 178.353 126.299 177.855 128.503 178.268 129.457 C 178.673 130.423 181.336 131.936 183.039 133.299 C 184.172 134.185 185.36 135.101 186.068 135.643 L 185.851 136.565 C 179.981 135.284 179.065 133.076 177.816 134.301 C 176.576 135.515 180.252 138.005 182.119 138.437 C 182.924 138.628 184.301 139.357 185.608 140.12 C 180.928 140.016 179.785 138.521 179.005 139.713 C 178.208 140.947 181.683 142.336 183.297 142.361" fill="rgb(245,117,89)"/><path d=" M 198.228 138.029 C 196.805 135.343 198.325 131.725 198.523 131.287 C 198.141 131.84 197.575 132.245 197 132.284 C 195.772 136.065 198.228 138.029 198.228 138.029 Z " fill="rgb(239,86,64)"/><path d=" M 447.105 142.361 C 445.489 142.387 440.807 144.251 440.807 144.251 C 437.369 146.367 435.457 147.519 433.175 147.711 C 430.9 147.912 429.968 151.819 429.968 151.819 C 429.968 151.819 421.001 153.78 420.495 148.127 C 420.495 148.127 425.508 141.032 425.859 140.075 C 426.571 138.172 425.277 135.309 427.291 132.108 C 429.315 128.896 430.275 123.892 430.275 123.892 C 430.275 123.892 432.265 123.267 432.483 125.227 C 432.699 127.208 431.224 129.923 431.591 130.769 C 431.665 130.94 431.752 131.103 431.86 131.243 C 431.86 131.243 431.871 131.255 431.879 131.287 C 432.26 131.84 432.828 132.245 433.401 132.284 C 433.433 132.296 433.484 132.309 433.537 132.301 C 435.783 132.244 439.72 129.137 441.337 127.593 C 443.581 125.44 446.843 122.645 447.577 124.537 C 448.312 126.428 445.865 126.307 441.769 131.995 L 442.18 132.581 C 441.908 133.008 446.227 130.852 449.672 128.152 C 452.049 126.299 452.548 128.503 452.133 129.457 C 451.729 130.423 449.067 131.936 447.364 133.299 C 446.231 134.185 445.043 135.101 444.335 135.643 L 444.551 136.565 C 450.42 135.284 451.337 133.076 452.587 134.301 C 453.825 135.515 450.149 138.005 448.284 138.437 C 447.479 138.628 446.1 139.357 444.795 140.12 C 449.475 140.016 450.617 138.521 451.396 139.713 C 452.195 140.947 448.72 142.336 447.105 142.361" fill="rgb(245,117,89)"/><path d=" M 432.175 138.029 C 433.596 135.343 432.077 131.725 431.879 131.287 C 432.26 131.84 432.828 132.245 433.401 132.284 C 434.629 136.065 432.175 138.029 432.175 138.029" fill="rgb(239,86,64)"/><path d=" M 368.308 414.156 L 351.083 307.501 L 316.591 311.353 L 282.1 307.501 L 264.875 414.156 L 256.601 517.597 C 256.601 517.597 259.232 526.169 276.439 520.248 C 276.439 520.248 289.203 424.304 291.177 422.191 C 293.151 420.077 313.421 357.409 313.421 357.409 L 319.761 357.409 C 319.761 357.409 340.031 420.077 342.005 422.191 C 343.979 424.304 356.744 520.248 356.744 520.248 C 373.951 526.169 376.58 517.597 376.58 517.597 L 368.308 414.156 Z " fill="rgb(27,53,64)"/><path d=" M 305.725 204.219 C 307.904 206.339 318.623 210.164 324.283 204.219 L 328.121 207.988 C 328.121 207.988 323.745 218.279 316.065 218.639 C 308.387 218.999 302.835 209.483 302.835 209.483 L 305.725 204.219" fill="rgb(31,67,107)"/><path d=" M 336.081 203.057 C 348.911 197.533 390.36 182.851 390.36 182.851 C 390.36 182.851 418.224 147.941 423.907 142.76 C 423.907 142.76 430.075 143.871 431.879 151.551 C 431.879 151.551 413.937 189.969 404.184 200.968 C 394.431 211.967 345.035 235.755 345.035 235.755 L 336.081 203.057 Z " fill="rgb(31,67,107)"/><path d=" M 291.177 202.265 C 294.993 199.851 314.156 212.671 314.156 212.671 C 314.156 212.671 339.068 199.441 344.915 202.004 C 344.915 202.004 350.183 209.053 352.3 227.179 C 354.417 245.305 354.557 319.893 354.557 319.893 C 354.557 319.893 337.808 325.819 315.153 325.819 C 289.327 325.819 275.432 318.412 275.432 318.412 C 275.432 318.412 270.823 215.139 291.177 202.265 Z " fill="rgb(249,173,99)"/><path d=" M 306.737 200.328 C 306.737 200.328 309.496 209.005 306.737 212.349 C 306.737 212.349 309.603 218.363 314.753 218.628 C 320.703 218.935 322.768 212.349 322.768 212.349 C 322.768 212.349 319.621 203.968 322.768 201.021 L 306.737 200.328 Z " fill="rgb(239,86,64)"/><path d=" M 299.859 191.785 C 299.859 191.785 294.052 180.608 295.203 168.665 C 296.352 156.721 314.347 153.984 326.475 159.851 C 326.475 159.851 322.875 156.331 324.283 155.352 C 325.692 154.375 328.121 160.633 328.121 160.633 C 328.121 160.633 331.952 159.46 332.539 160.633 C 333.125 161.808 328.613 162.449 328.613 162.449 C 328.613 162.449 336.44 166.789 329.128 189.887 L 299.859 191.785 Z " fill="rgb(135,43,57)"/><path d=" M 298.985 184.707 C 298.985 184.707 294.656 180.387 294.123 185.437 C 293.505 191.289 298.82 193.647 299.859 191.785 C 300.897 189.923 298.985 184.707 298.985 184.707 Z " fill="rgb(245,117,89)"/><path d=" M 329.303 185.012 C 329.303 185.012 333.633 180.691 334.165 185.741 C 334.783 191.593 329.468 193.951 328.429 192.089 C 327.391 190.228 329.303 185.012 329.303 185.012 Z " fill="rgb(245,117,89)"/><path d=" M 313.688 205.903 C 304.081 205.903 298.66 199.628 298.66 180.807 C 298.66 171.1 303.599 165.144 314.359 165.144 C 325.119 165.144 329.652 171.099 329.652 180.807 C 329.652 201.031 323.612 205.903 313.688 205.903" fill="rgb(245,117,89)"/><path d=" M 326.469 187.52 C 326.639 188.485 325.796 189.439 324.588 189.649 C 323.381 189.86 322.265 189.248 322.097 188.283 C 321.928 187.317 322.771 186.363 323.979 186.153 C 325.185 185.943 326.301 186.555 326.469 187.52 Z " fill="rgb(220,75,68)"/><path d=" M 306.711 188.045 C 306.647 189.024 305.603 189.752 304.38 189.672 C 303.157 189.592 302.217 188.735 302.281 187.756 C 302.345 186.779 303.388 186.051 304.611 186.131 C 305.835 186.209 306.775 187.067 306.711 188.045 Z " fill="rgb(220,75,68)"/><path d=" M 322.076 177.753 C 321.949 177.753 321.823 177.705 321.729 177.605 C 320.397 176.209 318.067 176.269 318.032 176.269 C 317.772 176.272 317.545 176.071 317.537 175.804 C 317.527 175.54 317.736 175.319 318.001 175.309 C 318.103 175.303 320.799 175.24 322.423 176.943 C 322.605 177.136 322.599 177.439 322.408 177.621 C 322.315 177.711 322.195 177.753 322.076 177.753 Z " fill="rgb(135,43,57)"/><path d=" M 303.988 177.753 C 303.869 177.753 303.751 177.711 303.657 177.621 C 303.465 177.439 303.459 177.136 303.64 176.943 C 305.263 175.24 307.956 175.305 308.061 175.309 C 308.327 175.319 308.533 175.54 308.525 175.804 C 308.517 176.069 308.285 176.273 308.031 176.269 C 308.013 176.265 305.652 176.221 304.336 177.605 C 304.24 177.705 304.115 177.753 303.988 177.753" fill="rgb(135,43,57)"/><path d=" M 321.245 182.852 C 321.245 184.044 320.709 185.012 320.047 185.012 C 319.383 185.012 318.845 184.044 318.845 182.852 C 318.845 181.659 319.383 180.691 320.047 180.691 C 320.709 180.691 321.245 181.659 321.245 182.852 Z " fill="rgb(34,67,77)"/><path d=" M 308.417 182.852 C 308.417 184.044 307.88 185.012 307.217 185.012 C 306.553 185.012 306.017 184.044 306.017 182.852 C 306.016 181.659 306.553 180.691 307.217 180.691 C 307.88 180.691 308.417 181.659 308.417 182.852 Z " fill="rgb(34,67,77)"/><path d=" M 308.417 195.616 C 308.417 195.616 316.888 196.705 321.245 194.615 C 321.245 194.615 318.783 200.383 314.155 199.865 C 309.528 199.348 308.417 195.616 308.417 195.616 Z " fill="rgb(34,67,77)"/><path d=" M 328.651 187.144 C 328.651 187.144 328.351 176.696 324.283 168.665 C 324.283 168.665 317.112 171.979 315.535 171.196 C 313.956 170.415 317.039 168.665 317.039 168.665 C 317.039 168.665 305.207 172.565 304.496 171.784 C 303.784 171.001 308.417 168.665 308.417 168.665 L 301.047 171.196 C 301.047 171.196 298.775 180.597 299.715 187.144 C 299.715 187.144 296.547 181.679 296.156 177.905 C 295.764 174.131 297.423 163.372 308.525 162.591 C 319.628 161.808 325.863 164.327 328.613 169.424 C 331.364 174.521 331.023 180.793 328.651 187.144" fill="rgb(135,43,57)"/><path d=" M 315.363 192.597 C 314.429 192.597 313.48 192.356 313.193 192.276 L 313.467 191.293 C 314.475 191.571 316.055 191.737 316.4 191.331 C 316.519 191.189 316.472 190.861 316.268 190.431 C 314.88 187.477 314.591 180.001 314.579 179.685 L 315.6 179.648 C 315.603 179.724 315.892 187.232 317.192 189.996 C 317.589 190.839 317.585 191.509 317.18 191.988 C 316.787 192.455 316.079 192.597 315.363 192.597" fill="rgb(220,75,68)"/><path d=" M 325.992 206.968 C 325.992 206.968 343.379 260.941 345.035 304.857 C 345.035 304.857 351.309 306.585 358.376 296.963 C 365.441 287.34 361.239 211.124 347.701 198.433 C 347.701 198.433 341.56 197.033 325.992 206.968 Z " fill="rgb(42,90,159)"/><path d=" M 328.825 216.408 C 328.825 216.408 331.937 209.176 330.555 204.219 C 329.172 199.26 324.283 204.219 324.283 204.219 C 324.283 204.219 326.259 212.337 328.825 216.408 Z " fill="rgb(31,67,107)"/><path d=" M 293.927 203.057 C 281.099 197.533 239.648 182.851 239.648 182.851 C 239.648 182.851 211.715 146.924 206.032 141.743 C 206.032 141.743 199 145.721 198.523 153.956 C 198.523 153.956 216.072 189.969 225.824 200.968 C 235.577 211.967 284.975 235.755 284.975 235.755 L 293.927 203.057 Z " fill="rgb(31,67,107)"/><path d=" M 304.017 206.968 C 304.017 206.968 286.631 260.941 284.975 304.857 C 284.975 304.857 278.699 306.585 271.633 296.963 C 264.568 287.34 268.771 211.124 282.307 198.433 C 282.307 198.433 288.448 197.033 304.017 206.968 Z " fill="rgb(42,90,159)"/><path d=" M 301.183 216.408 C 301.183 216.408 298.071 209.176 299.453 204.219 C 300.836 199.26 305.725 204.219 305.725 204.219 C 305.725 204.219 303.751 212.337 301.183 216.408 Z " fill="rgb(31,67,107)"/><path d=" M 391.917 545.414 L 357.396 545.414 C 354.984 531.691 358.832 517.953 358.832 517.953 L 374.613 515.244 C 376.048 523.919 377.781 527.339 380.179 529.1 C 380.193 529.1 380.193 529.1 380.193 529.1 C 381.94 530.373 384.028 530.788 386.633 531.691 C 389.608 532.727 391.177 534.607 391.963 536.649 C 393.517 540.705 391.917 545.414 391.917 545.414" fill="rgb(97,36,47)"/><path d=" M 391.963 536.649 C 383.451 537.716 364.753 539.536 365.893 534.607 C 366.841 530.492 374.731 529.381 380.179 529.1 C 380.193 529.1 380.193 529.1 380.193 529.1 C 381.94 530.373 384.028 530.788 386.633 531.691 C 389.608 532.727 391.177 534.607 391.963 536.649 Z " fill="rgb(135,43,57)"/><path d=" M 276.303 545.414 L 241.781 545.414 C 241.781 545.414 240.687 542.186 241.189 538.767 C 241.604 535.984 243.084 533.067 247.067 531.691 C 250.057 530.655 252.352 530.269 254.232 528.508 C 256.275 526.583 257.799 523.031 259.087 515.244 L 274.868 517.953 C 274.868 517.953 278.701 531.691 276.303 545.414" fill="rgb(97,36,47)"/><path d=" M 241.189 538.767 C 241.604 535.984 243.084 533.067 247.067 531.691 C 250.057 530.655 252.352 530.269 254.232 528.508 C 258.599 529.855 264.712 532.327 266.607 536.072 C 269.243 541.209 249.065 540.395 241.189 538.767 Z " fill="rgb(135,43,57)"/><path d=" M 524.143 542.941 C 524.143 544.392 523.993 545.414 523.993 545.414 L 482.056 545.414 C 482.056 544.584 482.071 543.755 482.115 542.941 C 482.589 531.972 486.053 522.453 486.053 522.453 L 496.533 517.953 C 497.436 523.356 499.761 526.805 502.677 529.056 C 503.447 529.663 504.247 530.165 505.075 530.595 C 505.46 530.803 505.845 530.995 506.244 531.172 C 507.119 531.572 508.021 531.897 508.924 532.164 C 512.625 533.289 516.371 533.527 518.991 533.925 C 523.461 534.621 524.143 539.788 524.143 542.941" fill="rgb(32,62,80)"/><path d=" M 524.143 542.941 C 524.143 544.392 523.993 545.414 523.993 545.414 L 482.056 545.414 C 482.056 544.584 482.071 543.755 482.115 542.941 L 524.143 542.941 Z " fill="rgb(42,84,101)"/><path d=" M 505.075 530.595 L 499.257 532.46 L 498.029 530.328 L 502.677 529.056 C 503.447 529.663 504.247 530.165 505.075 530.595 Z " fill="rgb(42,84,101)"/><path d=" M 508.924 532.164 L 505.001 534.769 L 502.588 533.822 L 506.244 531.172 C 507.119 531.572 508.021 531.897 508.924 532.164 Z " fill="rgb(42,84,101)"/><path d=" M 363.909 542.941 C 363.807 544.363 363.436 545.414 363.436 545.414 L 335.503 545.414 C 335.147 544.598 334.895 543.785 334.717 542.941 C 331.964 529.573 350.528 513.216 350.528 513.216 L 356.42 521.076 C 356.42 521.076 355.739 533.66 360.727 536.28 C 363.717 537.849 364.103 540.809 363.909 542.941 Z " fill="rgb(32,62,80)"/><path d=" M 334.717 542.941 L 363.909 542.941 C 363.807 544.363 363.436 545.414 363.436 545.414 L 335.503 545.414 C 335.147 544.598 334.895 543.785 334.717 542.941 Z " fill="rgb(42,84,101)"/><path d=" M 359.451 535.277 C 359.451 535.277 347.681 532.595 342.316 536.068 L 342.316 534.125 C 342.316 534.125 352.215 529.315 359.451 535.277 Z " fill="rgb(42,84,101)"/><path d=" M 357.119 532.292 C 357.119 532.292 349.604 528.856 342.316 532.292 L 343.148 530.332 C 343.148 530.332 351.853 527.04 357.119 532.292 Z " fill="rgb(42,84,101)"/><path d=" M 511.485 424.099 C 511.5 435.335 501.523 526.939 501.523 526.939 C 491.545 527.931 483.551 525.932 483.551 525.932 C 480.812 479.508 480.545 439.584 480.545 439.584 L 432.731 403.744 L 432.612 403.656 C 432.612 403.656 432.435 404.469 432.109 405.921 C 429.74 416.431 419.719 460.456 415.544 470.537 C 410.792 482.025 358.836 530.332 358.836 530.332 C 349.184 529 340.995 522.009 340.995 522.009 C 359.647 491.069 385.079 460.041 385.079 460.041 C 387.063 448.895 388.484 424.099 389.328 405.565 C 389.343 405.284 389.357 404.988 389.372 404.707 C 389.935 392.153 390.216 382.68 390.216 382.68 L 381.452 364.708 L 437.128 344.249 L 449.607 360.223 C 449.607 360.223 452.464 362.872 456.964 367.107 C 457.172 367.299 457.379 367.491 457.585 367.684 C 474.299 383.449 511.485 419.067 511.485 424.099" fill="rgb(145,193,223)"/><path d=" M 389.328 405.565 C 389.343 405.284 389.357 404.988 389.372 404.707 C 401.096 398.341 399.127 388.187 399.097 388.083 L 399.823 387.935 C 399.852 388.039 401.955 398.948 389.328 405.565" fill="rgb(97,150,180)"/><path d=" M 431.872 396.565 C 432.272 398.785 432.568 401.184 432.731 403.744 L 432.612 403.656 C 432.612 403.656 432.435 404.469 432.109 405.921 C 431.591 388.512 424.412 378.224 424.323 378.105 L 424.929 377.676 C 425.004 377.764 429.533 384.308 431.724 395.721 C 440.192 388.201 431.901 372.791 431.813 372.643 L 432.464 372.288 C 432.553 372.451 441.332 388.764 431.872 396.565" fill="rgb(97,150,180)"/><path d=" M 457.585 367.684 C 457.571 367.699 457.541 367.699 457.527 367.713 C 457.187 367.847 456.787 367.905 456.372 367.905 C 452.272 367.905 445.388 362.161 445.063 361.88 L 445.551 361.319 C 447.787 363.213 454.019 367.757 456.964 367.107 C 457.172 367.299 457.379 367.491 457.585 367.684" fill="rgb(97,150,180)"/><path d=" M 385.351 268.884 C 385.351 268.884 402.285 266.159 410.772 271.568 C 419.257 276.977 430.399 291.096 430.399 291.096 C 430.399 291.096 417.171 292.843 415.673 301.828 C 415.673 301.828 406.065 278.944 385.351 268.884" fill="rgb(172,191,195)"/><path d=" M 359.873 277.717 C 352.709 281.589 340.733 296.129 340.193 305.072 C 339.665 313.793 346.125 321.815 350.481 328.633 C 364.072 349.913 378.381 368.713 384.461 393.671 C 384.5 393.829 415.548 406.151 451.987 362.349 C 451.987 362.349 431.397 334.647 424.284 311.061 C 421.388 301.461 418.443 291.263 412.881 282.801 C 406.755 273.481 396.264 267.999 385.351 268.884 C 376.116 269.632 366.931 273.901 359.873 277.717 Z " fill="rgb(210,218,220)"/><path d=" M 356.867 268.791 C 356.867 268.791 361.449 276.62 359.332 280.925 C 359.332 280.925 375.055 286.353 375.055 277.556 C 375.055 277.556 372.092 270.963 373.208 266.7 L 356.867 268.791 Z " fill="rgb(239,86,64)"/><path d=" M 391.805 322.403 C 391.805 322.403 383.06 324.888 380.852 327.984 C 378.645 331.08 376.681 338.025 376.681 338.025 L 391.805 338.025 L 394.649 332.792 L 397.979 325.819 L 391.805 322.403" fill="rgb(239,86,64)"/><path d=" M 377.347 260.061 C 377.347 260.061 383.488 257.485 379.515 239.016 C 376.883 226.779 373.092 224.955 370.641 224.847 C 370.641 224.847 367.644 220.332 357.248 222.493 C 350.127 223.973 344.447 228.299 341.945 236.3 C 339.335 244.652 344.556 262.555 351.432 264.336 L 377.347 260.061" fill="rgb(32,62,80)"/><path d=" M 378.799 247.58 C 378.799 247.58 382.669 242.193 384.131 247.503 C 385.824 253.653 380.553 257.113 379.115 255.305 C 377.675 253.497 378.799 247.58 378.799 247.58 Z " fill="rgb(245,117,89)"/><path d=" M 346.42 253.256 C 346.42 253.256 341.025 249.399 341.347 254.896 C 341.719 261.265 347.821 262.849 348.604 260.675 C 349.387 258.5 346.42 253.256 346.42 253.256" fill="rgb(245,117,89)"/><path d=" M 366.812 272.849 C 377.088 271.153 381.781 263.484 378.46 243.351 C 376.747 232.965 370.412 227.467 358.901 229.365 C 347.389 231.265 343.592 238.435 345.305 248.82 C 348.875 270.453 356.195 274.6 366.812 272.849" fill="rgb(245,117,89)"/><path d=" M 349.893 255.439 C 349.884 256.503 350.953 257.373 352.283 257.387 C 353.612 257.397 354.697 256.547 354.707 255.484 C 354.716 254.421 353.647 253.549 352.317 253.537 C 350.989 253.525 349.904 254.377 349.893 255.439" fill="rgb(220,75,68)"/><path d=" M 371.125 252.515 C 371.365 253.549 372.611 254.144 373.905 253.844 C 375.199 253.543 376.053 252.459 375.812 251.424 C 375.572 250.389 374.327 249.793 373.032 250.095 C 371.739 250.396 370.884 251.48 371.125 252.515 Z " fill="rgb(220,75,68)"/><path d=" M 352.787 244.225 C 352.685 244.225 352.583 244.196 352.493 244.135 C 352.256 243.972 352.193 243.648 352.356 243.412 C 353.792 241.303 356.676 240.899 356.8 240.883 C 357.101 240.848 357.344 241.045 357.384 241.329 C 357.421 241.613 357.221 241.876 356.937 241.915 C 356.911 241.917 354.387 242.279 353.217 243.997 C 353.116 244.145 352.952 244.225 352.787 244.225 Z " fill="rgb(34,67,77)"/><path d=" M 372.136 241.032 C 372.027 241.032 371.916 240.999 371.823 240.927 C 370.159 239.671 367.659 240.145 367.635 240.149 C 367.348 240.212 367.079 240.023 367.023 239.74 C 366.967 239.459 367.151 239.184 367.432 239.129 C 367.552 239.105 370.413 238.56 372.449 240.096 C 372.68 240.268 372.724 240.596 372.552 240.824 C 372.449 240.96 372.293 241.032 372.136 241.032" fill="rgb(34,67,77)"/><path d=" M 354.659 249.523 C 354.869 250.8 355.615 251.74 356.323 251.623 C 357.032 251.505 357.436 250.376 357.225 249.1 C 357.016 247.824 356.269 246.884 355.561 247.001 C 354.852 247.117 354.448 248.247 354.659 249.523 Z " fill="rgb(34,67,77)"/><path d=" M 368.383 247.26 C 368.593 248.536 369.339 249.476 370.048 249.359 C 370.757 249.241 371.161 248.112 370.951 246.836 C 370.74 245.559 369.995 244.62 369.285 244.737 C 368.576 244.853 368.172 245.983 368.383 247.26 Z " fill="rgb(34,67,77)"/><path d=" M 372.236 258.847 C 372.236 258.847 363.32 261.239 358.376 260.289 C 358.376 260.289 361.793 264.593 366.672 263.352 C 371.552 262.111 372.236 258.847 372.236 258.847 Z " fill="rgb(34,67,77)"/><path d=" M 372.657 234.007 C 372.657 234.007 361.057 242.407 346.496 243.045 L 346.909 256.007 C 346.909 256.007 333.339 231.001 360.179 226.573 C 387.019 222.145 379.207 250.075 379.207 250.075 C 379.207 250.075 378.375 238.028 372.657 234.007 Z " fill="rgb(27,53,64)"/><path d=" M 363.169 255.365 L 363.095 254.244 C 363.111 254.243 364.659 254.123 365.061 253.164 C 365.228 252.769 364.568 251.512 363.985 250.401 C 363.177 248.86 362.173 246.94 361.745 244.808 L 362.847 244.588 C 363.241 246.561 364.205 248.401 364.98 249.881 C 365.843 251.527 366.467 252.716 366.096 253.6 C 365.424 255.2 363.261 255.359 363.169 255.365 Z " fill="rgb(220,75,68)"/><path d=" M 378.951 234.039 C 359.439 225.571 341.024 243.128 341.024 243.128 C 341.024 243.128 338.877 228.901 342.637 225.571 C 343.615 224.697 344.665 223.928 345.761 223.247 C 354.376 217.813 365.835 217.917 371.089 219.783 C 372.171 220.168 372.999 220.627 373.473 221.115 C 376.581 224.343 378.951 234.039 378.951 234.039 Z " fill="rgb(207,37,72)"/><path d=" M 376.581 230.871 C 376.581 230.871 360.195 227.628 344.917 237.739 C 344.917 237.739 343.94 228.561 345.761 223.247 C 354.376 217.813 365.835 217.917 371.089 219.783 C 374.153 223.276 376.581 230.871 376.581 230.871 Z " fill="rgb(210,218,220)"/><path d=" M 342.637 241.455 C 342.637 241.455 345.235 230.421 348.735 227.313 C 354.557 222.144 370.916 220.369 379.515 223.477 C 388.113 226.585 379.515 235.98 379.515 235.98 C 379.515 235.98 365.811 226.163 342.637 241.455 Z " fill="rgb(159,34,64)"/><path d=" M 367.941 314.771 C 367.941 314.771 374.639 325.144 386.044 331.247 C 386.044 331.247 400.312 318.861 418.812 319.976 C 418.812 319.976 403.479 347.64 390.312 350.704 C 383.395 352.313 358.376 335.747 358.376 335.747 C 358.376 335.747 363.371 318.14 367.941 314.771 Z " fill="rgb(245,117,89)"/><path d=" M 343.279 295.964 C 349.407 285.987 363.547 300.736 368.359 311.269 C 373.169 321.804 376.681 324.037 376.681 324.037 C 376.681 324.037 362.555 329.94 362.655 340.528 C 362.655 340.528 329.904 317.736 343.279 295.964 Z " fill="rgb(172,191,195)"/><path d=" M 386.044 326.689 C 386.044 326.689 394.649 318.247 422.945 307.228 L 419.291 295.735 C 422.537 291.464 428.505 291.464 428.505 291.464 C 428.505 291.464 443.003 311.935 440.507 318.049 C 438.948 321.869 408.709 325.877 386.044 326.689" fill="rgb(239,86,64)"/><path d=" M 417.032 309.987 C 417.032 309.987 417.256 308.776 418.301 307.3 C 419.347 305.824 419.064 303.137 419.439 302.305 C 419.815 301.472 422.04 298.069 423.517 297.407 C 424.995 296.744 426.933 295.661 427.345 297.537 C 427.757 299.412 424.699 298.88 423.325 301.577 C 423.325 301.577 426.331 300.605 428.713 301.169 C 431.097 301.735 431.773 303.913 428.828 303.841 C 426.479 303.783 423.453 305.459 423.453 305.459 C 423.453 305.459 426.515 305.919 426.02 307.329 C 425.337 309.281 421.604 308.08 417.032 309.987" fill="rgb(245,117,89)"/><path d=" M 207.759 348.528 C 210.288 355.004 220.649 366.107 220.649 366.107 C 220.649 366.107 245.961 350.933 257.639 357.317 C 269.316 363.701 278.596 367.596 286.169 364.816 C 293.741 362.036 261.268 302.976 261.268 302.976 L 219.163 286.909 C 219.163 286.909 218.244 297.559 213.433 299.451 C 208.623 301.343 203.493 318.921 203.837 322.252 C 204.181 325.583 207.759 348.528 207.759 348.528" fill="rgb(61,97,116)"/><path d=" M 255.132 366.493 C 255.132 366.493 244.276 387.775 221.86 415.031 C 221.86 415.031 219.563 447.443 160.288 498.439 L 154.083 493.557 C 154.083 493.557 189.383 438.263 196.443 421.309 C 203.504 404.356 192.54 388.823 225.023 345.941 L 255.132 366.493" fill="rgb(239,86,64)"/><path d=" M 220.576 328.832 C 211.229 346.736 208.093 369.623 208.093 369.623 L 203.837 380.36 C 203.837 380.36 218.933 388.501 236.365 391.463 L 243.357 372.959 L 220.576 328.832" fill="rgb(97,36,47)"/><path d=" M 269.321 364.816 C 269.321 364.816 273.949 388.255 273.187 423.536 C 273.187 423.536 291.424 450.429 276.373 527.16 L 268.479 527.16 C 268.479 527.16 262.029 461.877 257.095 444.187 C 252.16 426.497 233.939 421.069 232.952 367.284 L 269.321 364.816 Z " fill="rgb(245,117,89)"/><path d=" M 273.949 389.977 C 273.949 389.977 259.101 392.643 232.944 391.413 L 232.529 388.468 L 232.427 387.712 L 229.717 368.645 C 229.717 368.645 227.2 365.537 224.609 360.475 C 224.299 359.883 224.003 359.275 223.707 358.639 C 220.184 351.133 217.06 340.223 220.568 328.84 L 226.091 329.091 L 226.86 329.136 L 245.335 329.979 L 246.119 330.024 L 252.188 330.305 L 253.136 330.349 L 257.073 330.527 C 257.073 330.527 277.088 348.543 273.52 381.851 L 273.772 386.484 L 273.801 387.239 L 273.949 389.977" fill="rgb(135,43,57)"/><path d=" M 226.86 329.136 C 226.341 330.66 222.848 341.971 224.609 360.475 C 224.299 359.883 224.003 359.275 223.707 358.639 C 222.389 341.719 225.424 331.164 226.091 329.091 C 226.179 328.84 226.224 328.721 226.224 328.707 L 226.919 328.957 C 226.919 328.972 226.889 329.032 226.86 329.136 Z " fill="rgb(97,36,47)"/><path d=" M 273.801 387.239 C 268.547 388.585 259.635 388.956 251.167 388.956 C 243.573 388.956 236.364 388.645 232.529 388.468 L 232.427 387.712 C 239.073 388.039 256.571 388.719 267.851 387.491 L 267.125 375.573 C 267.303 361.673 263.099 349.801 259.043 341.6 C 248.769 339.735 245.941 332.125 245.335 329.979 C 245.245 329.639 245.201 329.432 245.201 329.417 L 245.927 329.299 C 245.927 329.313 245.985 329.58 246.119 330.024 C 246.785 332.244 249.539 338.861 258.613 340.756 C 255.875 335.412 253.284 331.756 252.188 330.305 C 251.863 329.861 251.656 329.609 251.641 329.595 L 252.204 329.121 C 252.233 329.151 252.573 329.565 253.136 330.349 C 256.571 335.012 268.161 352.555 267.865 375.544 L 268.591 387.401 C 270.56 387.165 272.321 386.869 273.772 386.484 L 273.801 387.239" fill="rgb(97,36,47)"/><path d=" M 235.979 248.519 C 230.087 245.275 187.629 261.924 187.629 261.924 C 187.629 261.924 181.348 273.129 185.263 277.521 C 189.179 281.915 203.071 279.977 207.327 277.521 C 211.583 275.065 222.856 273.208 222.856 273.208 L 235.979 248.519 Z " fill="rgb(145,193,223)"/><path d=" M 273.524 213.173 C 273.524 213.173 282.295 216.559 285.503 226.663 C 288.711 236.767 279.12 262.348 282.435 274.107 C 285.749 285.865 285.235 308.069 274.883 312.757 C 264.531 317.445 243.301 309.057 238.743 296.227 C 234.184 283.397 236.152 234.793 244.913 218.263 C 253.675 201.732 271.415 210.059 273.524 213.173 Z " fill="rgb(239,41,77)"/><path d=" M 263.445 256.768 C 265.759 259.261 271.705 254.817 271.705 254.817 C 271.705 254.817 271.584 276.867 265.176 278.556 C 258.769 280.247 242.436 261.188 243.108 256.007 C 243.78 250.825 258.316 251.237 263.445 256.768 Z " fill="rgb(145,193,223)"/><path d=" M 238.743 251.253 C 238.743 251.253 245.225 256.757 256.517 259.376 C 267.811 261.993 273.931 256.684 279.707 263.965 C 288.375 274.895 274.272 295.043 266.851 305.484 C 264.085 309.376 258.247 320.172 257.068 330.529 C 257.068 330.529 237.473 336.223 220.576 328.832 L 219.315 304.793 C 219.315 304.793 208.663 272.397 238.743 251.253" fill="rgb(27,53,64)"/><path d=" M 259.001 274.641 C 259.001 274.641 267.955 253.304 270.547 251.941 C 273.14 250.579 279.715 253.849 281.036 256.768 C 282.356 259.687 281.036 266.053 281.036 266.053 C 281.036 266.053 273.975 257.993 259.001 274.641" fill="rgb(145,193,223)"/><path d=" M 301.884 364.812 C 297.813 373.145 287.82 375.544 287.82 375.544 C 287.82 375.544 287.065 374.389 285.792 372.317 C 285.659 372.109 285.511 371.873 285.377 371.636 C 277.517 358.891 253.491 318.107 253.965 296.893 C 254.513 271.551 271.048 257.635 271.048 257.635 C 279.441 259.633 282.092 261.928 282.092 261.928 C 282.092 261.928 284.919 276.347 282.328 293.696 C 279.737 311.031 275.031 315.62 277.399 316.923 C 279.752 318.211 277.399 320.801 277.399 320.801 C 277.399 320.801 291.329 340.208 293.935 346.248 C 295.621 350.185 298.493 356.877 300.285 361.052 C 300.403 361.348 300.521 361.644 300.64 361.911 C 301.395 363.672 301.884 364.812 301.884 364.812" fill="rgb(97,150,180)"/><path d=" M 277.688 261.924 C 277.688 261.924 267.713 269.317 273.524 280.613 L 301.169 309.233 C 285.996 325.403 284.492 332.04 273.524 339.495 L 277.688 345.941 C 277.688 345.941 316.101 316.42 316.159 309.233 C 316.183 306.157 292.695 268.948 277.688 261.924 Z " fill="rgb(245,117,89)"/><path d=" M 272.919 339.496 C 272.919 339.496 267.649 340.081 264.331 340.911 C 261.012 341.74 256.588 342.569 256.449 343.261 C 256.312 343.952 263.777 343.261 263.777 343.261 C 263.777 343.261 257.695 345.76 257.556 346.723 C 257.417 347.685 265.299 346.027 265.299 346.027 C 265.299 346.027 260.321 349.068 260.597 349.897 C 260.875 350.727 267.005 348.653 267.005 348.653 C 267.005 348.653 265.865 351.556 264.683 352.939 C 264.683 352.939 265.871 353.592 268.28 350.915 C 270.691 348.239 274.539 349.097 277.584 346.723 C 280.629 344.347 275.692 339.139 272.919 339.496" fill="rgb(245,117,89)"/><path d=" M 244.669 254.804 C 244.669 254.804 237.081 259.708 232.289 271.551 C 227.496 283.393 212.376 305.679 208.833 311.436 C 205.292 317.195 207.759 348.528 207.759 348.528 C 207.759 348.528 203.317 329.531 201.344 322.128 C 199.369 314.727 207.717 296.437 208.972 295.467 C 210.225 294.496 216.64 296.272 215.407 288.845 C 214.173 281.419 231.385 249.42 235.979 248.519 C 235.979 248.519 243.339 249.901 244.669 254.804" fill="rgb(97,150,180)"/><path d=" M 221.205 256.407 C 221.072 256.657 220.924 256.909 220.747 257.147 C 219.029 259.619 215.832 261.588 215.832 261.588 C 215.832 261.588 210.043 269.7 209.984 270.632 C 209.925 271.432 199.932 278.685 195.492 278.537 L 195.477 278.537 C 194.869 278.523 194.367 278.36 194.011 278.035 C 191.376 275.547 202.983 254.675 205.543 250.175 C 205.705 249.877 205.839 249.656 205.928 249.508 C 205.987 249.389 206.032 249.316 206.032 249.316 C 206.032 249.316 203.988 241.707 212.516 243.128 C 219.607 244.297 221.012 249.937 221.753 253.712 C 221.931 254.615 221.679 255.533 221.205 256.407" fill="rgb(97,150,180)"/><path d=" M 191.432 264.295 C 197.289 256.595 217.9 241.661 228.756 237.24 L 231.471 242.285 C 231.471 242.285 210.492 260.728 205.564 268.619 C 200.636 276.508 194.531 279.771 188.699 277.143 C 182.865 274.516 190.2 265.915 191.432 264.295 Z " fill="rgb(245,117,89)"/><path d=" M 219.163 254.823 L 218.052 256.096 L 217.489 256.747 L 215.653 258.849 C 215.653 258.849 211.035 264.444 211.213 266.695 C 211.345 268.308 202.449 275.532 195.492 278.537 C 192.664 279.767 190.148 280.299 188.681 279.455 C 183.649 276.553 184.773 267.835 187.631 261.928 C 190.117 256.776 201.117 250.129 203.944 248.501 C 204.3 248.279 204.521 248.147 204.596 248.116 C 204.611 248.101 204.611 248.101 204.611 248.101 L 205.661 244.016 C 205.661 244.016 209.496 241.707 212.516 243.128 C 212.516 243.128 205.853 243.409 206.949 246 C 208.075 248.605 217.312 254.733 219.163 254.823" fill="rgb(145,193,223)"/><path d=" M 243.351 233.461 C 236.645 236.215 237.607 242.284 231.464 242.284 C 227.659 242.284 227.156 237.932 227.156 237.932 C 228.873 234.216 229.968 227.88 230.205 224.86 C 230.457 221.84 231.464 223.009 231.464 223.009 C 231.464 222.728 231.449 222.463 231.435 222.196 C 231.345 220.168 230.975 218.687 232.308 219.561 C 233.817 220.537 234.336 226.281 234.336 226.281 C 235.579 217.903 233.729 216.659 235.18 217.399 C 237.163 218.407 237.177 225.808 237.177 226.029 C 238.776 221.159 238.348 218.376 239.457 219.487 C 240.583 220.612 238.895 229.553 238.229 232.84 C 238.081 233.58 237.977 234.039 237.977 234.039 C 243.292 231.433 243.351 233.461 243.351 233.461" fill="rgb(245,117,89)"/><path d=" M 238.229 232.84 C 238.081 233.58 237.977 234.039 237.977 234.039 C 237.977 234.039 235.52 233.801 233.729 236.452 C 233.729 236.452 234.232 232.899 238.229 232.84" fill="rgb(239,86,64)"/><path d=" M 231.833 229.02 C 231.879 228.309 232.175 224.239 231.464 223.009 C 231.464 222.728 231.449 222.463 231.435 222.196 C 232.973 222.521 231.997 228.161 231.833 229.02 Z " fill="rgb(239,86,64)"/><path d=" M 235.995 264.336 C 235.995 264.336 240.527 252.053 241.968 249.312 C 243.411 246.569 250.919 247.04 256.601 248.1 C 262.284 249.16 263.445 256.768 263.445 256.768 C 263.445 256.768 246.157 248.611 235.995 264.336" fill="rgb(145,193,223)"/><path d=" M 265.176 240.163 C 265.176 240.163 259.747 250.188 259.833 261.305 C 259.833 261.305 251.015 267.299 247.859 259.792 C 247.859 259.792 251.208 249.957 249.589 236.681 C 248.505 227.791 265.176 240.163 265.176 240.163" fill="rgb(239,86,64)"/><path d=" M 247.859 226.252 C 247.859 226.252 246.245 220.505 243.373 224.545 C 240.047 229.225 243.437 233.775 245.212 232.689 C 246.987 231.604 247.859 226.252 247.859 226.252" fill="rgb(245,117,89)"/><path d=" M 273.493 241.029 C 273.493 241.029 279.243 239.428 277.279 243.979 C 275.001 249.251 269.353 248.709 269.361 246.629 C 269.369 244.549 273.493 241.029 273.493 241.029" fill="rgb(245,117,89)"/><path d=" M 250.212 251.316 C 242.043 246.716 240.437 238.784 249.449 222.78 C 254.097 214.525 261.149 211.828 270.299 216.98 C 279.448 222.132 280.451 229.365 275.801 237.62 C 266.119 254.816 258.651 256.068 250.212 251.316" fill="rgb(245,117,89)"/><path d=" M 269.883 241.805 C 269.563 242.707 268.391 243.115 267.263 242.715 C 266.135 242.316 265.48 241.261 265.799 240.36 C 266.117 239.457 267.291 239.051 268.419 239.449 C 269.547 239.849 270.201 240.903 269.883 241.805" fill="rgb(220,75,68)"/><path d=" M 252.828 232.791 C 252.307 233.592 251.071 233.712 250.068 233.059 C 249.067 232.404 248.677 231.225 249.2 230.424 C 249.723 229.623 250.959 229.503 251.96 230.156 C 252.963 230.809 253.351 231.989 252.828 232.791 Z " fill="rgb(220,75,68)"/><path d=" M 271.052 231.457 C 270.841 231.457 270.651 231.316 270.597 231.104 C 270.135 229.281 268.115 228.208 268.095 228.199 C 267.865 228.079 267.776 227.795 267.896 227.565 C 268.015 227.337 268.296 227.247 268.528 227.367 C 268.627 227.419 270.941 228.649 271.505 230.875 C 271.569 231.124 271.417 231.38 271.167 231.443 C 271.128 231.453 271.089 231.457 271.052 231.457" fill="rgb(34,67,77)"/><path d=" M 259.833 223.477 C 259.751 223.477 259.667 223.455 259.591 223.409 C 259.572 223.397 257.603 222.228 255.807 222.776 C 255.559 222.853 255.297 222.713 255.223 222.465 C 255.148 222.217 255.287 221.956 255.535 221.88 C 257.731 221.207 259.981 222.551 260.076 222.608 C 260.297 222.741 260.368 223.028 260.233 223.251 C 260.147 223.396 259.992 223.477 259.833 223.477" fill="rgb(34,67,77)"/><path d=" M 267.676 235.335 C 267.104 236.349 266.184 236.913 265.621 236.596 C 265.057 236.279 265.064 235.199 265.635 234.185 C 266.207 233.171 267.127 232.605 267.689 232.923 C 268.253 233.24 268.248 234.32 267.676 235.335" fill="rgb(34,67,77)"/><path d=" M 256.223 229.191 C 255.651 230.205 254.731 230.771 254.168 230.453 C 253.604 230.136 253.611 229.056 254.181 228.041 C 254.753 227.028 255.673 226.463 256.237 226.78 C 256.8 227.097 256.793 228.177 256.223 229.191" fill="rgb(34,67,77)"/><path d=" M 252.255 239.607 C 252.255 239.607 256.941 243.184 260.328 243.292 C 260.328 243.292 256.727 246.225 254.137 244.323 C 251.549 242.42 252.255 239.607 252.255 239.607 Z " fill="rgb(34,67,77)"/><path d=" M 265.213 233.284 C 265.213 233.284 267.365 231.204 268.245 231.936 C 269.125 232.668 268.665 235.228 268.665 235.228 L 270.547 235.276 L 268.991 234.649 C 268.991 234.649 269.492 231.991 268.524 231.441 C 267.147 230.656 265.213 233.284 265.213 233.284" fill="rgb(34,67,77)"/><path d=" M 257.109 229.124 C 257.109 229.124 257.772 226.205 256.689 225.832 C 255.608 225.459 253.659 227.18 253.659 227.18 L 252.641 225.595 L 253.984 226.601 C 253.984 226.601 255.997 224.795 256.969 225.336 C 258.355 226.108 257.109 229.124 257.109 229.124" fill="rgb(34,67,77)"/><path d=" M 272.468 220.401 C 272.468 220.401 269.541 216.335 265.5 219.564 C 261.459 222.792 252.343 227.96 247.859 226.252 C 243.373 224.545 257.669 205.439 270.081 211.033 C 282.493 216.629 281.376 234.843 276.213 240.633 C 271.051 246.424 273.493 241.029 273.493 241.029 C 273.493 241.029 273.837 232.813 275.563 227.369 C 277.288 221.924 272.468 220.401 272.468 220.401" fill="rgb(239,41,77)"/><path d=" M 258.711 237.744 C 258.484 237.744 258.247 237.713 258.003 237.652 L 258.251 236.672 C 259.085 236.884 259.496 236.525 259.693 236.188 C 259.972 235.711 259.932 235.096 259.712 234.865 C 259.583 234.731 259.363 234.744 259.053 234.907 L 258.584 234.009 C 259.613 233.471 260.227 233.94 260.444 234.168 C 261 234.751 261.053 235.861 260.567 236.697 C 260.169 237.377 259.503 237.744 258.711 237.744" fill="rgb(220,75,68)"/><path d=" M 318.537 308.1 C 318.049 315.28 300.285 338.653 297.324 339.483 C 296.555 339.691 295.769 340.12 295.029 340.623 C 294.719 340.845 294.408 341.081 294.112 341.319 C 292.424 342.68 291.151 344.249 291.151 344.249 C 285.969 343.909 271.419 337.173 276.096 335.693 C 276.377 335.604 276.688 335.441 277.029 335.205 C 277.221 335.072 277.428 334.924 277.636 334.731 C 283.143 330.112 293.86 311.371 293.935 309.951 C 293.993 308.396 295.844 308.1 295.844 308.1 C 295.844 308.1 285.733 293.252 279.871 291.461 C 274.009 289.669 271.048 282.579 271.048 282.579 C 265.26 258.079 282.092 261.928 282.092 261.928 C 294.497 269.315 319.025 300.905 318.537 308.1 Z " fill="rgb(145,193,223)"/><path d=" M 295.029 340.623 C 294.719 340.845 294.408 341.081 294.112 341.319 C 286.163 340.771 279.501 336.863 277.029 335.205 C 277.221 335.072 277.428 334.924 277.636 334.731 C 280.285 336.463 287.065 340.327 295.029 340.623 Z " fill="rgb(61,97,116)"/><path d=" M 221.205 256.407 C 221.072 256.657 220.924 256.909 220.747 257.147 C 219.607 257.103 218.525 256.969 217.489 256.747 C 212.235 255.681 208.193 252.735 205.543 250.175 C 204.936 249.581 204.403 249.02 203.944 248.501 C 204.3 248.279 204.521 248.147 204.596 248.116 C 204.98 248.545 205.424 249.02 205.928 249.508 C 208.563 252.099 212.664 255.119 218.052 256.096 C 219.059 256.288 220.109 256.392 221.205 256.407" fill="rgb(61,97,116)"/><path d=" M 300.64 361.911 C 298.197 366.04 293.683 371.029 285.792 372.317 C 285.659 372.109 285.511 371.873 285.377 371.636 C 293.475 370.423 297.961 365.167 300.285 361.052 C 300.403 361.348 300.521 361.644 300.64 361.911" fill="rgb(61,97,116)"/><path d=" M 165.915 496.607 C 165.915 496.607 164.064 498.427 162.14 501.773 C 160.215 505.119 162.332 508.197 153.02 515.955 C 153.02 515.955 134.235 504.956 125.753 490.819 C 125.753 490.819 125.901 486.777 130.002 485.829 C 132.207 485.327 138.276 488.168 144.109 489.264 C 144.937 489.412 145.767 489.545 146.581 489.604 C 147.603 489.693 148.609 489.708 149.571 489.589 C 150.46 489.501 151.304 489.308 152.088 488.983 L 152.103 488.983 C 154.087 488.168 155.656 486.555 156.469 483.728 C 156.469 483.728 161.459 486.569 158.128 491.381 C 158.128 491.381 164.049 488.791 165.915 496.607" fill="rgb(210,218,220)"/><path d=" M 153.02 515.955 C 153.02 515.955 134.235 504.956 125.753 490.819 C 125.753 490.819 128.906 490.152 131.511 494.829 C 134.116 499.523 154.545 510.167 153.02 515.955 Z " fill="rgb(172,191,195)"/><path d=" M 153.095 493.72 C 151.569 496.132 151.6 491.677 149.571 489.589 C 150.46 489.501 151.304 489.308 152.088 488.983 L 152.103 488.983 C 153.005 489.96 154.293 491.84 153.095 493.72 Z " fill="rgb(172,191,195)"/><path d=" M 147.188 493.853 C 145.575 495.377 145.056 491.396 144.109 489.264 C 144.937 489.412 145.767 489.545 146.581 489.604 C 147.528 490.892 148.417 492.684 147.188 493.853" fill="rgb(172,191,195)"/><path d=" M 281.484 545.414 L 254.912 545.414 C 254.912 545.414 253.803 541.712 254.912 537.641 C 255.387 535.88 258.14 534.237 260.7 531.943 C 261.411 531.305 262.092 530.64 262.728 529.884 C 263.232 529.292 263.691 528.641 264.076 527.945 C 264.564 527.101 264.949 526.184 265.171 525.177 C 265.6 523.164 265.437 520.795 264.283 517.953 C 264.283 517.953 273.328 516.059 276.555 520.988 C 276.555 520.988 276.865 518.708 279.737 520.232 C 279.737 520.232 279.323 524.807 279.885 528.641 C 280.448 532.46 284.016 533.571 281.484 545.414" fill="rgb(210,218,220)"/><path d=" M 274.571 529.411 C 274.335 529.677 274.009 529.811 273.683 529.811 C 273.401 529.811 273.136 529.721 272.899 529.544 C 271.521 528.448 268.487 526.747 264.076 527.945 C 264.564 527.101 264.949 526.184 265.171 525.177 C 266.948 524.525 270.293 524.141 274.423 527.664 C 274.956 528.108 275.031 528.892 274.571 529.411 Z " fill="rgb(172,191,195)"/><path d=" M 272.336 533.822 L 272.188 534.044 C 271.833 534.592 271.123 534.769 270.56 534.444 C 268.753 533.379 264.697 531.365 260.7 531.943 C 261.411 531.305 262.092 530.64 262.728 529.884 C 264.697 529.425 268.413 529.173 272.069 532.208 C 272.543 532.608 272.676 533.304 272.336 533.822" fill="rgb(172,191,195)"/></g></g></svg>