<?xml version="1.0" encoding="UTF-8" standalone="no"?><!-- Generator: Gravit.io --><svg xmlns="http://www.w3.org/2000/svg" xmlns:xlink="http://www.w3.org/1999/xlink" style="isolation:isolate" viewBox="0 0 666.667 666.667" width="666.667pt" height="666.667pt"><defs><clipPath id="_clipPath_yicL8ydwN0rJhpJFMItS7mCjb04fMHoK"><rect width="666.667" height="666.667"/></clipPath></defs><g clip-path="url(#_clipPath_yicL8ydwN0rJhpJFMItS7mCjb04fMHoK)"><g><path d=" M 77.835 451.721 C 77.835 451.721 97.884 505.107 99.099 521.933 C 99.099 521.933 104.121 525.933 112.691 522.392 C 112.691 522.392 112.929 471.365 104.541 455.599 C 96.152 439.831 77.835 451.721 77.835 451.721 Z " fill="rgb(245,117,89)"/><path d=" M 73.453 545.414 L 115.643 545.414 C 117.428 538.752 114.704 533.101 114.704 533.101 C 114.704 533.101 116.563 525.816 115.836 523.415 C 115.111 521.012 106.471 518.12 104.122 520.595 C 102.5 522.295 102.42 524.561 102.521 525.796 C 101.34 519.113 98.303 518.553 95.359 521.179 C 92.289 523.907 96.018 522.555 95.427 526.897 C 95.387 527.209 95.298 527.501 95.189 527.789 C 94.954 528.395 94.566 528.959 94.039 529.475 C 93.577 529.928 93.004 530.349 92.366 530.727 C 92.038 530.929 91.682 531.115 91.317 531.289 C 90.625 531.613 89.879 531.883 89.075 532.121 C 87.841 532.488 86.479 532.745 85.068 532.875 C 79.289 533.412 76.979 533.824 74.317 536.814 C 71.658 539.783 73.344 542.18 73.344 542.18 L 73.453 545.414" fill="rgb(210,218,220)"/><path d=" M 95.189 527.789 C 94.954 528.395 94.566 528.959 94.039 529.475 C 97.706 527.951 99.883 530.679 99.883 530.679 L 100.96 529.311 C 98.334 526.047 95.43 527.645 95.189 527.789 Z " fill="rgb(172,191,195)"/><path d=" M 96.051 533.759 L 97.52 532.841 C 96.687 530.439 95.169 529.695 94.039 529.475 C 93.577 529.928 93.004 530.349 92.366 530.727 C 95.205 531.259 96.051 533.759 96.051 533.759" fill="rgb(172,191,195)"/><path d=" M 91.973 535.364 L 93.521 534.588 C 93.098 532.768 92.21 531.795 91.317 531.289 C 90.625 531.613 89.879 531.884 89.075 532.121 C 91.436 533.083 91.973 535.364 91.973 535.364 Z " fill="rgb(172,191,195)"/><path d=" M 163.935 535.305 C 165.087 534.7 166.149 533.369 167.104 531.687 C 167.104 531.685 167.925 526.709 167.104 521.481 C 166.281 516.252 168.559 511.983 175.96 510.379 C 183.156 508.82 187.425 512.287 185.764 526.753 C 185.764 526.755 185.763 526.756 185.763 526.759 C 186.857 532.768 187.084 539.631 184.588 545.414 L 162.437 545.414 C 162.437 545.414 158.944 537.925 163.935 535.305" fill="rgb(210,218,220)"/><path d=" M 144.503 457.333 C 144.503 457.333 144.503 471.767 152.645 486.569 C 160.936 501.644 171.185 522.333 171.185 522.333 C 171.185 522.333 178.015 528.996 182.353 517.96 C 182.353 517.96 179.291 479.539 172.26 465.475 C 165.228 451.412 144.503 457.333 144.503 457.333" fill="rgb(245,117,89)"/><path d=" M 180.771 523.7 C 180.771 523.7 182.82 519.52 180.993 517.724 C 179.168 515.928 177.017 519.259 173.899 518.519 C 170.779 517.779 170.056 515.561 169.245 518.581 C 168.435 521.603 169.423 531.101 180.771 523.7" fill="rgb(210,218,220)"/><path d=" M 169.029 523.515 C 169.029 523.515 177.408 526.483 181.751 523.515 L 180.648 527.141 C 180.648 527.141 171.541 528.107 170.285 525.811 L 169.029 523.515 Z " fill="rgb(172,191,195)"/><path d=" M 169.143 528.021 C 169.143 528.021 176.813 526.956 180.515 528.861 L 180.515 530.66 C 180.515 530.66 170.513 528.325 167.28 530.66 L 169.143 528.021 Z " fill="rgb(172,191,195)"/><path d=" M 180.883 534.393 C 180.883 534.393 179.395 530.768 174.728 530.508 C 170.061 530.248 166.912 532.817 166.912 532.817 C 166.912 532.817 174.313 529.768 180.883 534.393 Z " fill="rgb(172,191,195)"/><path d=" M 178.74 453.528 C 178.74 453.528 177.98 455.355 176.247 457.701 C 176.047 457.981 175.82 458.261 175.58 458.555 C 170.967 464.261 160.82 471.875 142.287 464.368 C 142.287 464.368 141.82 463.301 141.167 461.621 C 141.06 461.328 140.94 461.021 140.807 460.688 C 139.66 457.675 138.153 453.301 137.473 449.555 C 132.633 422.675 130.833 403.195 128.273 392.141 C 121.153 409.315 105.18 442.635 104.473 444.061 C 103.58 445.835 107.14 457.301 107.14 457.301 C 93.807 461.648 74.7 456.101 74.7 456.101 C 74.7 456.101 68.914 439.168 68.033 427.088 C 67.353 417.835 90.66 365.995 101.607 342.235 C 101.886 341.608 102.167 341.021 102.42 340.435 C 105.3 334.208 107.14 330.328 107.14 330.328 L 125.807 336.635 L 171.153 357.035 C 171.153 357.035 171.953 357.955 172.7 367.301 C 172.713 367.541 172.753 367.808 172.767 368.048 C 173.193 373.608 173.593 381.941 173.833 394.421 L 173.833 395.195 C 173.887 397.915 173.927 400.835 173.967 403.955 L 173.967 404.701 C 174.02 411.875 174.033 420.115 173.993 429.608 C 173.98 429.861 173.98 430.115 173.98 430.381 C 173.967 433.328 173.927 436.381 173.9 439.568 C 173.873 442.475 176.167 447.968 177.607 451.128 C 177.727 451.395 177.847 451.648 177.94 451.875 C 178.42 452.888 178.74 453.528 178.74 453.528" fill="rgb(31,67,107)"/><path d=" M 176.247 457.701 C 176.047 457.981 175.82 458.261 175.58 458.555 C 173.513 455.035 170.3 449.035 169.553 444.928 C 168.473 439.035 167.953 415.861 169.54 391.475 C 171.087 367.835 165.887 344.648 165.833 344.408 L 166.807 344.195 C 166.86 344.421 172.1 367.755 170.54 391.541 C 168.953 415.848 169.46 438.915 170.54 444.741 C 171.233 448.541 174.22 454.195 176.247 457.701 Z " fill="rgb(27,53,64)"/><path d=" M 169.216 364.775 C 154.725 359.553 151.029 347.672 150.995 347.552 L 151.952 347.265 C 151.987 347.38 155.559 358.791 169.555 363.835 L 169.216 364.775 Z " fill="rgb(27,53,64)"/><path d=" M 115.753 338.221 C 115.447 338.435 114.9 338.475 113.62 338.555 C 110.807 338.728 105.686 339.035 101.607 342.235 C 101.886 341.608 102.167 341.021 102.42 340.435 C 106.42 337.981 110.94 337.715 113.553 337.555 C 114.247 337.515 115.033 337.461 115.207 337.381 L 115.753 338.221 Z " fill="rgb(27,53,64)"/><path d=" M 127.823 392.367 C 117.298 371.363 130.924 343.117 131.063 342.835 L 131.96 343.275 C 131.825 343.553 118.416 371.361 128.718 391.92 L 127.823 392.367" fill="rgb(27,53,64)"/><path d=" M 125.755 371.864 C 124.844 371.864 124.198 371.66 124.148 371.644 L 124.455 370.692 C 124.473 370.699 126.44 371.301 128.191 370.171 C 129.72 369.184 130.67 367.191 131.015 364.247 C 132.055 355.373 138.848 344.413 139.136 343.951 L 139.984 344.479 C 139.915 344.591 133.021 355.715 132.008 364.364 C 131.626 367.625 130.52 369.865 128.72 371.02 C 127.68 371.687 126.602 371.864 125.755 371.864" fill="rgb(27,53,64)"/><path d=" M 75.009 140.369 C 75.009 140.369 76.656 136.577 83.614 136.576 C 88.975 136.575 91.027 139.536 91.027 139.536 C 94.234 148.912 97.682 184.809 98.915 186.088 C 99.541 186.735 139.56 217.287 139.56 217.287 C 117.979 217.691 117.14 253.559 117.14 253.559 C 116.443 244.817 86.34 222.789 78.696 208.403 C 71.577 195.005 68.127 162.204 75.009 140.369" fill="rgb(242,155,83)"/><path d=" M 204.46 268.521 C 201.18 304.708 188.113 339.675 183.58 354.248 C 182.607 357.395 182.02 359.155 182.02 359.155 C 182.02 359.155 111.047 349.955 102.647 330.781 C 102.647 330.781 102.78 330.261 103.007 329.275 C 105.127 320.555 115.607 285.253 116.807 256.361 C 118.14 224.213 128.914 212.84 135.447 214.307 C 135.447 214.307 150.127 225.907 159.527 225.867 C 168.913 225.84 191.367 215.64 191.367 215.64 C 191.367 215.64 208.447 224.521 204.46 268.521 Z " fill="rgb(249,173,99)"/><path d=" M 159.625 204.152 C 157.277 204.152 155.375 206.055 155.375 208.403 C 155.375 210.751 157.277 212.653 159.625 212.653 C 161.972 212.653 163.876 210.751 163.876 208.403 C 163.876 206.055 161.972 204.152 159.625 204.152 Z " fill="rgb(239,41,77)"/><path d=" M 247.32 142.908 C 247.32 142.908 245.673 139.116 238.716 139.115 C 233.355 139.113 231.303 142.076 231.303 142.076 C 228.096 151.451 224.648 187.349 223.415 188.627 C 222.789 189.275 182.769 219.827 182.769 219.827 C 181.807 244.893 205.189 256.097 205.189 256.097 C 205.887 247.356 235.989 225.328 243.633 210.941 C 250.752 197.544 254.203 164.743 247.32 142.908" fill="rgb(242,155,83)"/><path d=" M 150.624 225.351 C 150.624 225.351 146.739 226.904 145.939 228.595 C 145.14 230.285 148.128 237.235 153.856 237.76 C 159.584 238.285 170.473 231.676 170.029 229.536 C 169.584 227.396 161.441 224.639 150.624 225.351 Z " fill="rgb(242,155,83)"/><path d=" M 150.064 217.287 C 150.064 217.287 152.204 226.103 148.94 229.619 C 148.94 229.619 154.268 238.216 166.319 229.536 C 166.319 229.536 164.024 223.741 166.319 219.979 L 150.064 217.287" fill="rgb(239,86,64)"/><path d=" M 184.083 193.308 C 184.083 191.199 182.575 189.445 180.579 189.056 C 181.36 188.272 181.843 187.191 181.843 185.997 C 181.843 183.641 179.963 181.735 177.623 181.672 C 178.067 180.992 178.329 180.183 178.329 179.311 C 178.329 176.916 176.388 174.975 173.993 174.975 C 172.969 174.975 172.04 175.344 171.297 175.939 C 171.284 173.557 169.351 171.629 166.964 171.629 C 165.451 171.629 164.121 172.408 163.345 173.584 C 162.764 171.876 161.164 170.639 159.257 170.639 C 157.644 170.639 156.252 171.531 155.505 172.839 C 154.727 172.093 153.676 171.629 152.513 171.629 C 150.228 171.629 148.376 173.404 148.209 175.647 C 147.541 175.227 146.757 174.975 145.911 174.975 C 143.516 174.975 141.575 176.916 141.575 179.311 C 141.575 179.657 141.627 179.991 141.703 180.313 C 141.66 180.312 141.619 180.301 141.575 180.301 C 139.18 180.301 137.239 182.243 137.239 184.637 C 137.239 185.804 137.705 186.86 138.456 187.64 C 136.467 188.033 134.965 189.785 134.965 191.891 C 134.965 193.753 136.148 195.329 137.797 195.943 C 136.704 196.729 135.985 198.005 135.985 199.456 C 135.985 201.661 137.639 203.463 139.771 203.736 C 140.909 207.757 143.692 209.18 143.692 209.18 C 145.659 210.988 161.656 212.809 169.304 212.161 C 170.092 212.976 171.192 213.488 172.416 213.488 C 174.811 213.488 176.752 211.547 176.752 209.152 C 176.752 209.137 176.748 209.123 176.748 209.107 C 178.931 208.883 180.64 207.059 180.64 204.816 C 180.64 204.417 180.569 204.04 180.469 203.673 C 182.031 203.017 183.128 201.475 183.128 199.675 C 183.128 198.627 182.741 197.68 182.123 196.931 C 183.301 196.155 184.083 194.825 184.083 193.308" fill="rgb(239,41,77)"/><path d=" M 173.653 201.475 C 173.653 201.475 178.181 196.956 178.74 202.239 C 179.385 208.36 173.827 210.825 172.739 208.879 C 171.653 206.932 173.653 201.475 173.653 201.475 Z " fill="rgb(245,117,89)"/><path d=" M 141.939 201.793 C 141.939 201.793 137.409 197.275 136.852 202.557 C 136.207 208.679 141.765 211.144 142.852 209.197 C 143.939 207.251 141.939 201.793 141.939 201.793 Z " fill="rgb(245,117,89)"/><path d=" M 158.273 223.647 C 168.323 223.647 173.993 217.083 173.993 197.395 C 173.993 187.24 168.827 181.012 157.571 181.012 C 146.315 181.012 141.575 187.24 141.575 197.395 C 141.575 218.549 147.892 223.647 158.273 223.647 Z " fill="rgb(245,117,89)"/><path d=" M 144.903 204.417 C 144.727 205.427 145.608 206.425 146.871 206.645 C 148.133 206.865 149.301 206.225 149.477 205.215 C 149.653 204.205 148.772 203.208 147.509 202.987 C 146.245 202.767 145.079 203.408 144.903 204.417 Z " fill="rgb(220,75,68)"/><path d=" M 165.572 204.967 C 165.639 205.991 166.731 206.752 168.009 206.668 C 169.289 206.585 170.272 205.688 170.205 204.665 C 170.139 203.643 169.048 202.88 167.768 202.964 C 166.489 203.047 165.505 203.944 165.572 204.967 Z " fill="rgb(220,75,68)"/><path d=" M 149.328 193.861 C 149.459 193.883 149.597 193.851 149.711 193.763 C 151.309 192.535 153.711 192.969 153.747 192.975 C 154.015 193.019 154.281 192.847 154.332 192.573 C 154.385 192.301 154.204 192.039 153.932 191.988 C 153.827 191.964 151.051 191.467 149.099 192.968 C 148.879 193.136 148.837 193.452 149.007 193.672 C 149.088 193.779 149.205 193.843 149.328 193.861" fill="rgb(239,41,77)"/><path d=" M 168.561 193.932 C 168.684 193.916 168.803 193.856 168.887 193.752 C 169.063 193.537 169.032 193.22 168.819 193.045 C 166.913 191.485 164.127 191.899 164.019 191.917 C 163.744 191.96 163.557 192.216 163.6 192.489 C 163.643 192.764 163.909 192.947 164.173 192.909 C 164.191 192.903 166.636 192.555 168.18 193.821 C 168.293 193.912 168.429 193.948 168.561 193.932" fill="rgb(239,41,77)"/><path d=" M 150.367 199.533 C 150.367 200.781 150.929 201.793 151.623 201.793 C 152.316 201.793 152.877 200.781 152.877 199.533 C 152.877 198.285 152.316 197.275 151.623 197.275 C 150.929 197.275 150.367 198.285 150.367 199.533 Z " fill="rgb(34,67,77)"/><path d=" M 163.787 199.533 C 163.787 200.781 164.349 201.793 165.043 201.793 C 165.736 201.793 166.297 200.781 166.297 199.533 C 166.299 198.285 165.736 197.275 165.043 197.275 C 164.349 197.275 163.787 198.285 163.787 199.533 Z " fill="rgb(34,67,77)"/><path d=" M 169.532 185.831 C 169.532 185.831 162.544 185.347 147.189 184.244 C 147.189 184.244 141.575 190.091 141.972 204.489 C 141.972 204.489 132.981 178.553 159.227 178.553 C 185.472 178.553 173.648 203.913 173.648 203.913 C 173.648 203.913 174.415 190.689 169.532 185.831" fill="rgb(239,41,77)"/><path d=" M 157.637 206.245 L 158.389 205.487 L 156.401 203.512 C 158.329 200.787 158.319 194.48 158.317 194.199 L 157.249 194.205 C 157.249 194.273 157.26 201.057 155.293 203.191 L 154.944 203.568 L 157.637 206.245 Z " fill="rgb(220,75,68)"/><path d=" M 164.307 209.531 C 164.307 209.531 154.416 209.949 149.423 208.628 C 149.423 208.628 148.54 215.82 156.205 216.177 C 164.307 216.555 164.307 209.531 164.307 209.531 Z " fill="rgb(34,67,77)"/><path d=" M 84.309 135.619 C 84.309 135.619 76.858 135.965 76.888 138.347 C 76.918 140.729 76.918 143.611 83.14 143.281 C 89.363 142.952 89.434 140.509 89.509 138.175 C 89.584 135.84 86.342 135.425 84.309 135.619 Z " fill="rgb(249,173,99)"/><path d=" M 240.616 136.983 C 240.616 136.983 233.159 136.936 233.063 139.317 C 232.967 141.697 232.815 144.575 239.047 144.573 C 245.277 144.571 245.477 142.136 245.675 139.809 C 245.873 137.481 242.656 136.896 240.616 136.983" fill="rgb(249,173,99)"/><path d=" M 72.596 120.736 C 73.662 121.949 75.424 126.672 75.424 126.672 C 76.164 130.639 76.593 132.831 77.985 134.651 C 79.361 136.472 78.636 139.684 78.636 139.684 C 78.636 139.684 84.025 142.452 88.554 139.033 C 88.554 139.033 88.081 135.851 88.554 134.947 C 89.487 133.141 92.477 132.179 93.498 128.537 C 94.52 124.881 97.584 120.809 97.584 120.809 C 97.584 120.809 96.711 118.915 95.113 120.069 C 93.498 121.239 92.477 124.155 91.604 124.452 C 91.426 124.511 91.248 124.555 91.071 124.569 C 91.071 124.569 91.056 124.569 91.027 124.585 C 90.36 124.673 89.679 124.525 89.265 124.127 C 89.235 124.111 89.191 124.081 89.161 124.037 C 87.696 122.335 87.355 117.331 87.415 115.096 C 87.503 111.987 87.385 107.695 85.49 108.419 C 83.595 109.145 85.327 110.876 83.861 117.731 L 83.151 117.82 C 83.018 118.308 81.715 113.66 81.404 109.293 C 81.182 106.288 79.214 107.397 78.784 108.345 C 78.34 109.293 79.006 112.283 79.14 114.46 C 79.243 115.895 79.361 117.391 79.435 118.279 L 78.606 118.737 C 75.616 113.527 76.637 111.365 74.891 111.261 C 73.159 111.157 73.78 115.555 74.713 117.228 C 75.113 117.952 75.498 119.463 75.808 120.943 C 72.744 117.405 73.085 115.555 71.679 115.776 C 70.228 116.013 71.53 119.521 72.596 120.736" fill="rgb(245,117,89)"/><path d=" M 85.83 128.893 C 86.867 126.036 90.568 124.733 91.027 124.585 C 90.36 124.673 89.679 124.525 89.265 124.127 C 85.638 125.755 85.83 128.893 85.83 128.893 Z " fill="rgb(239,86,64)"/><path d=" M 249.988 121.719 C 248.923 122.933 247.161 127.656 247.161 127.656 C 246.42 131.623 245.992 133.813 244.6 135.635 C 243.223 137.456 243.948 140.668 243.948 140.668 C 243.948 140.668 238.56 143.436 234.031 140.016 C 234.031 140.016 234.504 136.833 234.031 135.931 C 233.097 134.125 230.107 133.163 229.085 129.521 C 228.064 125.864 225 121.793 225 121.793 C 225 121.793 225.873 119.899 227.472 121.053 C 229.085 122.223 230.107 125.139 230.98 125.436 C 231.159 125.495 231.336 125.539 231.513 125.553 C 231.513 125.553 231.528 125.553 231.559 125.568 C 232.224 125.657 232.905 125.509 233.32 125.109 C 233.349 125.095 233.393 125.065 233.423 125.021 C 234.889 123.319 235.229 118.315 235.171 116.079 C 235.081 112.971 235.2 108.677 237.095 109.403 C 238.989 110.128 237.257 111.86 238.723 118.715 L 239.433 118.803 C 239.567 119.292 240.869 114.643 241.18 110.276 C 241.403 107.272 243.371 108.381 243.8 109.329 C 244.244 110.276 243.579 113.267 243.445 115.443 C 243.341 116.879 243.223 118.373 243.149 119.261 L 243.979 119.721 C 246.968 114.511 245.947 112.349 247.693 112.245 C 249.425 112.141 248.804 116.539 247.872 118.211 C 247.472 118.936 247.087 120.447 246.776 121.927 C 249.84 118.388 249.5 116.539 250.907 116.76 C 252.357 116.997 251.055 120.505 249.988 121.719" fill="rgb(245,117,89)"/><path d=" M 236.755 129.876 C 235.717 127.019 232.017 125.716 231.559 125.568 C 232.224 125.657 232.905 125.509 233.32 125.109 C 236.947 126.739 236.755 129.876 236.755 129.876 Z " fill="rgb(239,86,64)"/><path d=" M 183.58 354.248 C 182.607 357.395 182.02 359.155 182.02 359.155 C 182.02 359.155 111.047 349.955 102.647 330.781 C 102.647 330.781 102.78 330.261 103.007 329.275 C 107.52 336.753 161.917 354.947 183.58 354.248 Z " fill="rgb(242,155,83)"/><path d=" M 442.976 545.414 L 477.497 545.414 C 479.911 531.691 476.061 517.953 476.061 517.953 L 460.281 515.244 C 458.845 523.919 457.113 527.339 454.715 529.1 C 454.7 529.1 454.7 529.1 454.7 529.1 C 452.953 530.373 450.865 530.788 448.26 531.691 C 445.285 532.727 443.716 534.607 442.931 536.649 C 441.377 540.705 442.976 545.414 442.976 545.414" fill="rgb(27,53,64)"/><path d=" M 442.931 536.649 C 451.443 537.716 470.14 539.536 469 534.607 C 468.052 530.492 460.163 529.381 454.715 529.1 C 454.7 529.1 454.7 529.1 454.7 529.1 C 452.953 530.373 450.865 530.788 448.26 531.691 C 445.285 532.727 443.716 534.607 442.931 536.649 Z " fill="rgb(40,77,94)"/><path d=" M 558.591 545.414 L 593.112 545.414 C 593.112 545.414 594.207 542.186 593.704 538.767 C 593.289 535.984 591.809 533.067 587.827 531.691 C 584.836 530.655 582.543 530.269 580.663 528.508 C 578.619 526.583 577.095 523.031 575.807 515.244 L 560.027 517.953 C 560.027 517.953 556.192 531.691 558.591 545.414" fill="rgb(27,53,64)"/><path d=" M 593.704 538.767 C 593.289 535.984 591.809 533.067 587.827 531.691 C 584.836 530.655 582.543 530.269 580.663 528.508 C 576.295 529.855 570.181 532.327 568.287 536.072 C 565.652 541.209 585.828 540.395 593.704 538.767" fill="rgb(40,77,94)"/><path d=" M 578.287 517.596 C 578.287 517.596 575.66 526.169 558.46 520.249 C 558.46 520.249 545.687 424.303 543.713 422.196 C 541.74 420.076 521.473 357.409 521.473 357.409 L 515.127 357.409 C 515.127 357.409 494.86 420.076 492.887 422.196 C 490.913 424.303 478.153 520.249 478.153 520.249 C 460.94 526.169 458.313 517.596 458.313 517.596 L 466.58 414.156 L 483.807 307.503 L 518.3 311.356 L 552.793 307.503 L 557.287 335.356 L 557.473 336.449 L 570.02 414.156 L 578.287 517.596" fill="rgb(135,43,57)"/><path d=" M 557.473 336.449 C 545.54 333.356 542.033 322.663 541.993 322.543 L 542.953 322.249 C 542.993 322.356 546.247 332.263 557.287 335.356 L 557.473 336.449" fill="rgb(97,36,47)"/><path d=" M 520.673 347.943 C 519.767 348.903 518.593 349.396 517.18 349.396 C 517.22 351.969 517.18 354.689 517.033 357.409 L 516.033 357.409 C 516.607 346.196 515.327 334.809 515.313 334.663 L 516.3 334.543 C 516.313 334.649 517.007 340.729 517.153 348.383 C 518.3 348.383 519.22 348.023 519.953 347.263 C 523.247 343.783 521.34 333.729 521.313 333.636 L 522.3 333.449 C 522.38 333.876 524.327 344.103 520.673 347.943" fill="rgb(97,36,47)"/><path d=" M 613.649 119.883 C 612.067 120.209 607.816 122.917 607.816 122.917 C 604.835 125.639 603.173 127.128 600.965 127.743 C 598.769 128.367 598.584 132.379 598.584 132.379 C 598.584 132.379 590.143 135.983 588.588 130.524 C 588.588 130.524 592.184 122.617 592.351 121.612 C 592.695 119.608 590.888 117.039 592.265 113.516 C 593.653 109.983 593.66 104.888 593.66 104.888 C 593.66 104.888 595.499 103.901 596.08 105.787 C 596.663 107.692 595.721 110.635 596.24 111.397 C 596.345 111.552 596.461 111.695 596.593 111.813 C 596.593 111.813 596.605 111.821 596.62 111.852 C 597.099 112.324 597.731 112.616 598.303 112.547 C 598.336 112.552 598.388 112.556 598.439 112.539 C 600.635 112.061 603.92 108.273 605.22 106.453 C 607.021 103.919 609.703 100.564 610.779 102.284 C 611.853 104.005 609.428 104.344 606.468 110.697 L 606.981 111.196 C 606.793 111.667 610.633 108.741 613.513 105.443 C 615.501 103.179 616.403 105.251 616.175 106.265 C 615.959 107.289 613.625 109.275 612.208 110.931 C 611.26 112.015 610.265 113.137 609.671 113.801 L 610.056 114.667 C 615.583 112.309 616.069 109.969 617.525 110.939 C 618.971 111.9 615.825 115.033 614.073 115.807 C 613.317 116.145 612.1 117.119 610.96 118.113 C 615.537 117.136 616.381 115.453 617.369 116.477 C 618.384 117.54 615.231 119.556 613.649 119.883" fill="rgb(245,117,89)"/><path d=" M 598.172 118.42 C 599.067 115.516 596.897 112.245 596.62 111.852 C 597.099 112.324 597.731 112.616 598.303 112.547 C 600.216 116.031 598.172 118.42 598.172 118.42 Z " fill="rgb(239,86,64)"/><path d=" M 354.5 169.236 C 356.091 168.959 361.04 169.915 361.04 169.915 C 364.812 171.349 366.905 172.124 369.185 171.884 C 371.456 171.657 373.103 175.32 373.103 175.32 C 373.103 175.32 382.277 175.569 381.719 169.921 C 381.719 169.921 375.467 163.891 374.943 163.015 C 373.887 161.279 374.623 158.225 372.047 155.456 C 369.457 152.68 367.577 147.944 367.577 147.944 C 367.577 147.944 365.505 147.703 365.659 149.668 C 365.816 151.655 367.773 154.045 367.572 154.945 C 367.529 155.128 367.475 155.303 367.395 155.463 C 367.395 155.463 367.387 155.475 367.384 155.508 C 367.113 156.123 366.632 156.627 366.075 156.772 C 366.047 156.791 365.999 156.812 365.945 156.815 C 363.729 157.179 359.28 154.864 357.403 153.649 C 354.795 151.953 351.069 149.819 350.701 151.815 C 350.333 153.809 352.715 153.233 357.801 158.055 L 357.508 158.707 C 357.855 159.075 353.208 157.767 349.319 155.757 C 346.637 154.381 346.56 156.64 347.145 157.5 C 347.723 158.373 350.623 159.361 352.549 160.381 C 353.829 161.041 355.167 161.719 355.964 162.117 L 355.924 163.065 C 349.919 162.903 348.605 160.905 347.607 162.343 C 346.616 163.768 350.693 165.527 352.607 165.601 C 353.435 165.639 354.924 166.096 356.349 166.601 C 351.733 167.375 350.331 166.12 349.788 167.437 C 349.235 168.799 352.908 169.513 354.5 169.236" fill="rgb(245,117,89)"/><path d=" M 368.356 162.187 C 366.456 159.815 367.272 155.976 367.384 155.508 C 367.113 156.123 366.632 156.627 366.075 156.772 C 365.576 160.717 368.356 162.187 368.356 162.187 Z " fill="rgb(239,86,64)"/><path d=" M 600.86 134.116 C 600.86 134.116 599.94 137.489 598.447 142.583 C 597.847 144.663 597.14 147.023 596.367 149.569 C 595.167 153.503 593.793 157.849 592.34 162.169 C 591.553 164.529 590.74 166.876 589.913 169.143 C 587.82 174.916 585.66 180.223 583.66 183.943 C 583.38 184.463 583.1 184.956 582.833 185.409 C 582.073 186.689 580.927 188.169 579.487 189.809 C 577.18 192.463 574.1 195.516 570.607 198.716 C 568.86 200.329 567.007 201.983 565.1 203.636 C 561.98 206.343 558.713 209.089 555.473 211.729 C 553.447 213.396 551.433 215.023 549.487 216.569 C 539.5 224.529 531.233 230.649 531.233 230.649 L 516.327 200.196 C 520.58 197.316 528.42 192.489 536.62 187.556 C 538.553 186.383 540.5 185.209 542.433 184.049 C 545.433 182.263 548.38 180.516 551.1 178.889 C 553.233 177.636 555.233 176.449 557.033 175.396 C 559.58 173.889 561.727 172.636 563.26 171.729 C 564.913 170.756 565.873 170.196 565.873 170.196 C 565.873 170.196 566.553 168.876 567.687 166.676 C 569.007 164.103 570.967 160.316 573.207 156.036 C 574.193 154.143 575.233 152.143 576.313 150.116 C 578.007 146.889 579.78 143.569 581.487 140.396 C 582.593 138.343 583.687 136.343 584.7 134.489 C 587.567 129.316 589.967 125.183 591.207 123.529 C 591.207 123.529 598.847 126.116 600.86 134.116 Z " fill="rgb(210,218,220)"/><path d=" M 555.473 211.729 C 553.447 213.396 551.433 215.023 549.487 216.569 C 547.727 202.796 541.047 192.823 536.62 187.556 C 538.553 186.383 540.5 185.209 542.433 184.049 C 546.967 189.596 553.007 198.983 555.473 211.729 Z " fill="rgb(145,193,223)"/><path d=" M 570.607 198.716 C 568.86 200.329 567.007 201.983 565.1 203.636 C 561.62 190.436 555.22 182.716 551.1 178.889 C 553.233 177.636 555.233 176.449 557.033 175.396 C 561.407 179.836 567.02 187.303 570.607 198.716" fill="rgb(145,193,223)"/><path d=" M 583.66 183.943 C 583.38 184.463 583.1 184.956 582.833 185.409 C 582.073 186.689 580.927 188.169 579.487 189.809 C 573.74 180.676 567.527 174.956 563.26 171.729 C 564.913 170.756 565.873 170.196 565.873 170.196 C 565.873 170.196 566.553 168.876 567.687 166.676 C 572.087 170.049 578.007 175.556 583.66 183.943" fill="rgb(145,193,223)"/><path d=" M 592.34 162.169 C 591.553 164.529 590.74 166.876 589.913 169.143 C 584.207 163.236 577.593 158.716 573.207 156.036 C 574.193 154.143 575.233 152.143 576.313 150.116 C 580.473 152.623 586.593 156.729 592.34 162.169 Z " fill="rgb(145,193,223)"/><path d=" M 598.447 142.583 C 597.847 144.663 597.14 147.023 596.367 149.569 C 591.26 144.929 585.34 141.983 581.487 140.396 C 582.593 138.343 583.687 136.343 584.7 134.489 C 588.447 136.089 593.567 138.703 598.447 142.583" fill="rgb(145,193,223)"/><path d=" M 474.913 208.089 L 472.247 241.889 C 472.247 241.889 462.9 239.396 451.193 235.836 C 448.94 235.156 446.607 234.436 444.247 233.689 C 440.073 232.369 435.793 230.956 431.66 229.503 C 429.407 228.716 427.207 227.929 425.087 227.116 C 420.113 225.249 415.647 223.369 412.22 221.583 C 410.34 220.609 408.78 219.676 407.62 218.783 C 407.233 218.489 406.833 218.156 406.407 217.783 C 403.607 215.409 400.207 211.836 396.62 207.769 C 395.14 206.063 393.62 204.289 392.087 202.463 C 389.087 198.849 386.087 195.089 383.34 191.556 C 381.86 189.676 380.473 187.863 379.18 186.169 C 374.46 179.956 371.18 175.409 371.18 175.409 C 371.513 167.529 377.367 165.289 377.367 165.289 C 379.447 166.569 384.3 170.396 389.953 175.009 C 391.633 176.383 393.393 177.823 395.167 179.289 C 398.167 181.769 401.22 184.329 404.06 186.729 C 405.873 188.249 407.593 189.703 409.18 191.036 C 411.767 193.236 413.967 195.116 415.5 196.423 C 416.967 197.663 417.82 198.396 417.82 198.396 C 417.82 198.396 419.26 198.623 421.713 198.996 C 423.873 199.329 426.833 199.796 430.247 200.343 C 432.34 200.663 434.593 201.023 436.967 201.409 C 439.887 201.889 442.967 202.383 446.087 202.903 C 448.3 203.263 450.527 203.636 452.727 203.996 C 461.687 205.516 470.14 207.023 474.913 208.089" fill="rgb(210,218,220)"/><path d=" M 451.193 235.836 C 448.94 235.156 446.607 234.436 444.247 233.689 C 443.007 220.623 444.433 210.036 446.087 202.903 C 448.3 203.263 450.527 203.636 452.727 203.996 C 451.06 211.036 449.513 222.116 451.193 235.836" fill="rgb(145,193,223)"/><path d=" M 436.967 201.409 C 434.873 207.263 432.087 217.209 431.66 229.503 C 429.407 228.716 427.207 227.929 425.087 227.116 C 425.713 215.703 428.167 206.396 430.247 200.343 C 432.34 200.663 434.593 201.023 436.967 201.409" fill="rgb(145,193,223)"/><path d=" M 421.713 198.996 C 418.473 205.129 414.593 213.396 412.22 221.583 C 410.34 220.609 408.78 219.676 407.62 218.783 C 407.233 218.489 406.833 218.156 406.407 217.783 C 408.873 209.929 412.433 202.289 415.5 196.423 C 416.967 197.663 417.82 198.396 417.82 198.396 C 417.82 198.396 419.26 198.623 421.713 198.996" fill="rgb(145,193,223)"/><path d=" M 409.18 191.036 C 405.433 195.343 400.553 201.383 396.62 207.769 C 395.14 206.063 393.62 204.289 392.087 202.463 C 396.007 196.383 400.5 190.809 404.06 186.729 C 405.873 188.249 407.593 189.703 409.18 191.036" fill="rgb(145,193,223)"/><path d=" M 395.167 179.289 C 391.66 182.489 387.167 186.889 383.34 191.556 C 381.86 189.676 380.473 187.863 379.18 186.169 C 382.753 181.929 386.687 178.023 389.953 175.009 C 391.633 176.383 393.393 177.823 395.167 179.289" fill="rgb(145,193,223)"/><path d=" M 564.167 315.583 C 564.167 315.583 545.513 335.089 520.14 339.916 C 497.887 344.156 477.887 344.209 477.887 344.209 C 477.887 344.209 476.753 339.129 475.007 331.156 C 474.567 329.103 474.073 326.849 473.553 324.449 C 472.62 320.143 471.58 315.329 470.5 310.236 C 470.033 308.063 469.567 305.849 469.087 303.583 C 468.207 299.436 467.313 295.169 466.42 290.889 C 465.967 288.689 465.513 286.476 465.073 284.276 C 463.967 278.849 462.887 273.476 461.9 268.383 C 461.447 266.076 461.02 263.836 460.62 261.663 C 459.46 255.556 458.487 250.036 457.78 245.543 C 457.367 242.876 457.047 240.569 456.847 238.716 C 456.78 238.049 456.727 237.436 456.687 236.889 C 456.353 232.263 456.18 227.969 456.127 224.116 C 456.087 221.609 456.1 219.303 456.127 217.223 C 456.247 209.876 456.687 205.383 456.687 205.383 C 461.953 201.783 498.26 213.436 498.26 213.436 C 498.26 213.436 525.073 190.356 529.273 192.023 C 531.647 192.956 533.9 195.076 536.047 198.116 C 537.26 199.836 538.433 201.849 539.567 204.116 C 541.487 207.916 543.287 212.396 544.993 217.369 C 545.767 219.663 546.527 222.063 547.273 224.543 C 548.5 228.636 549.647 232.943 550.753 237.369 C 551.3 239.609 551.847 241.889 552.367 244.183 C 553.353 248.503 554.287 252.889 555.14 257.263 C 555.607 259.583 556.047 261.889 556.473 264.183 C 557.207 268.129 557.9 272.023 558.527 275.783 C 558.94 278.209 559.327 280.596 559.687 282.903 C 560.5 288.036 561.207 292.823 561.807 297.063 C 562.167 299.663 562.487 302.049 562.767 304.196 C 563.7 311.249 564.167 315.583 564.167 315.583 Z " fill="rgb(210,218,220)"/><path d=" M 539.567 204.116 C 531.46 212.383 517.18 224.556 500.753 227.836 C 497.46 228.489 493.793 228.783 489.9 228.783 C 479.233 228.783 466.927 226.636 456.127 224.116 C 456.087 221.609 456.1 219.303 456.127 217.223 C 470.5 220.689 487.86 223.609 499.447 221.303 C 514.927 218.223 528.807 205.716 536.047 198.116 C 537.26 199.836 538.433 201.849 539.567 204.116 Z " fill="rgb(145,193,223)"/><path d=" M 547.273 224.543 C 538.993 232.303 518.207 246.809 478.713 246.809 C 472.247 246.809 465.273 246.423 457.78 245.543 C 457.367 242.876 457.047 240.569 456.847 238.716 C 514.38 245.849 539.393 223.409 544.993 217.369 C 545.767 219.663 546.527 222.063 547.273 224.543" fill="rgb(145,193,223)"/><path d=" M 552.367 244.183 C 536.34 253.209 503.58 268.423 464.9 268.423 C 463.9 268.423 462.9 268.409 461.9 268.383 C 461.447 266.076 461.02 263.836 460.62 261.663 C 500.753 262.823 535.513 246.063 550.753 237.369 C 551.3 239.609 551.847 241.889 552.367 244.183 Z " fill="rgb(145,193,223)"/><path d=" M 556.473 264.183 C 542.58 271.769 507.193 288.809 466.42 290.889 C 465.967 288.689 465.513 286.476 465.073 284.276 C 506.553 282.343 543.273 263.849 555.14 257.263 C 555.607 259.583 556.047 261.889 556.473 264.183" fill="rgb(145,193,223)"/><path d=" M 559.687 282.903 C 543.78 292.223 509.14 309.556 470.5 310.236 C 470.033 308.063 469.567 305.849 469.087 303.583 C 508.3 303.236 544.26 284.329 558.527 275.783 C 558.94 278.209 559.327 280.596 559.687 282.903 Z " fill="rgb(145,193,223)"/><path d=" M 562.767 304.196 C 546.38 313.329 510.153 331.196 477.367 331.196 C 476.58 331.196 475.793 331.183 475.007 331.156 C 474.567 329.103 474.073 326.849 473.553 324.449 C 506.967 326.009 546.713 305.609 561.807 297.063 C 562.167 299.663 562.487 302.049 562.767 304.196" fill="rgb(145,193,223)"/><path d=" M 503.233 199.919 C 503.233 199.919 502.147 208.96 505.481 211.728 C 505.481 211.728 503.792 218.171 498.783 219.396 C 492.995 220.811 489.735 214.728 489.735 214.728 C 489.735 214.728 491.257 205.904 487.615 203.6 L 503.233 199.919 Z " fill="rgb(239,86,64)"/><path d=" M 507.611 180.753 C 507.611 180.753 511.14 174.771 502.696 165.288 C 502.696 165.288 498.696 156.208 484.917 154.117 C 471.14 152.028 460.917 167.06 460.917 175.321 C 460.917 183.583 465.807 175.321 465.807 175.321 C 465.807 175.321 466.917 181.112 468.473 183.681 C 468.473 183.681 467.963 192.007 473.219 192.017 C 478.473 192.028 507.611 180.753 507.611 180.753 Z " fill="rgb(42,90,159)"/><path d=" M 475.981 190.74 C 475.981 190.74 470.503 188.02 471.604 192.979 C 472.879 198.723 478.667 199.268 479.06 197.173 C 479.453 195.079 475.981 190.74 475.981 190.74 Z " fill="rgb(245,117,89)"/><path d=" M 504.824 181.391 C 504.824 181.391 507.555 175.917 509.665 180.537 C 512.112 185.889 507.821 189.813 506.245 188.379 C 504.669 186.944 504.824 181.391 504.824 181.391 Z " fill="rgb(245,117,89)"/><path d=" M 496.66 206.161 C 487.552 209.216 480.416 204.991 474.432 187.147 C 471.347 177.943 474.136 170.727 484.339 167.305 C 494.54 163.884 500.731 168.089 503.817 177.293 C 510.245 196.468 506.069 203.007 496.66 206.161" fill="rgb(245,117,89)"/><path d=" M 502.935 184.669 C 503.401 185.531 502.905 186.704 501.828 187.287 C 500.749 187.871 499.497 187.645 499.031 186.783 C 498.564 185.921 499.06 184.749 500.137 184.165 C 501.215 183.583 502.468 183.808 502.935 184.669 Z " fill="rgb(220,75,68)"/><path d=" M 484.367 191.449 C 484.617 192.397 483.86 193.42 482.675 193.733 C 481.489 194.045 480.325 193.532 480.076 192.584 C 479.825 191.636 480.583 190.615 481.768 190.301 C 482.953 189.988 484.116 190.503 484.367 191.449" fill="rgb(220,75,68)"/><path d=" M 495.664 176.807 C 495.544 176.848 495.408 176.841 495.288 176.777 C 493.581 175.877 491.391 176.675 491.357 176.685 C 491.112 176.771 490.832 176.651 490.74 176.401 C 490.647 176.153 490.775 175.877 491.023 175.785 C 491.119 175.747 493.653 174.829 495.735 175.928 C 495.969 176.052 496.06 176.343 495.936 176.576 C 495.877 176.691 495.776 176.769 495.664 176.807" fill="rgb(249,173,99)"/><path d=" M 478.515 182.557 C 478.401 182.596 478.275 182.592 478.159 182.537 C 477.917 182.425 477.815 182.14 477.927 181.9 C 478.924 179.768 481.497 178.975 481.599 178.945 C 481.853 178.869 482.12 179.013 482.196 179.267 C 482.273 179.52 482.117 179.788 481.876 179.865 C 481.857 179.867 479.605 180.576 478.797 182.307 C 478.737 182.431 478.635 182.517 478.515 182.557" fill="rgb(249,173,99)"/><path d=" M 496.497 181.904 C 496.876 183.035 496.675 184.123 496.047 184.333 C 495.419 184.544 494.601 183.799 494.221 182.667 C 493.843 181.536 494.044 180.448 494.673 180.237 C 495.301 180.027 496.117 180.773 496.497 181.904" fill="rgb(34,67,77)"/><path d=" M 484.333 185.983 C 484.713 187.113 484.511 188.201 483.883 188.412 C 483.255 188.623 482.437 187.877 482.059 186.745 C 481.679 185.615 481.88 184.527 482.509 184.316 C 483.137 184.105 483.955 184.852 484.333 185.983 Z " fill="rgb(34,67,77)"/><path d=" M 488.392 198.084 C 488.392 198.084 496.771 196.425 500.237 193.057 C 500.237 193.057 499.735 199.309 495.184 200.289 C 490.632 201.269 488.392 198.084 488.392 198.084 Z " fill="rgb(34,67,77)"/><path d=" M 494.017 193.015 C 493.132 193.312 492.156 193.384 491.859 193.4 L 491.805 192.381 C 492.849 192.324 494.401 191.98 494.599 191.484 C 494.667 191.312 494.517 191.016 494.188 190.673 C 491.932 188.315 489.281 181.319 489.169 181.021 L 490.125 180.661 C 490.152 180.733 492.813 187.759 494.925 189.967 C 495.569 190.639 495.779 191.277 495.547 191.86 C 495.323 192.428 494.697 192.787 494.017 193.015 Z " fill="rgb(220,75,68)"/><path d=" M 481.696 163.249 C 461.329 170.801 473.561 190.019 473.561 190.019 L 476.517 192.705 C 475.197 187.189 476.14 184.139 476.14 184.139 C 474.728 181.973 474.587 178.032 475.001 176.176 C 477.591 173.996 483.931 169.876 495.655 168.623 C 495.749 168.719 498.812 171.853 499.14 174.916 C 499.14 174.916 503.82 179.195 505.813 184.223 L 506.171 179.496 C 506.171 179.496 501.473 155.916 481.696 163.249" fill="rgb(249,173,99)"/><path d=" M 479.367 519.68 L 470.393 521.773 C 470.393 521.773 456.367 446.6 453.14 438.653 C 450.367 431.8 438.513 405.587 434.58 385.453 C 434.393 385.547 433.167 385.333 431.5 385.013 L 431.487 385.013 C 431.073 384.92 430.633 384.827 430.167 384.733 C 429.753 384.64 429.313 384.547 428.873 384.453 C 428.54 404.52 424.18 429.267 422.847 436.2 C 421.233 444.613 422.1 521.133 422.1 521.133 L 412.887 520.827 C 395.407 458.867 404.633 435.587 404.633 435.587 C 404.633 435.587 388.607 379.813 394.287 360.147 C 396.167 353.587 398.487 347.64 400.727 342.64 C 400.913 342.227 401.087 341.827 401.287 341.44 C 405.553 332.133 409.433 326.36 409.433 326.36 L 428.167 328.707 L 428.34 328.4 L 428.887 328.507 L 428.887 334.387 L 431.26 334.267 L 431.793 334.227 L 431.807 334.227 L 439.58 333.813 L 440.647 333.76 L 447.447 333.4 C 447.447 333.4 451.527 339.893 457.34 350.333 C 457.553 350.733 457.78 351.133 457.993 351.533 C 460.06 355.28 462.327 359.493 464.7 364.067 C 474.1 382.267 470.887 434.507 470.887 434.507 C 470.887 434.507 484.46 455.507 479.367 519.68" fill="rgb(145,193,223)"/><path d=" M 415.607 328.52 C 415.54 328.653 410.713 340.133 400.727 342.64 C 400.913 342.227 401.087 341.827 401.287 341.44 C 410.247 338.653 414.62 328.267 414.673 328.147 L 415.607 328.52" fill="rgb(97,150,180)"/><path d=" M 457.993 351.533 C 446.807 349.133 441.1 337.427 439.58 333.813 C 439.313 333.16 439.18 332.773 439.167 332.747 L 440.113 332.413 C 440.127 332.44 440.3 332.947 440.647 333.76 C 442.247 337.467 447.487 347.72 457.34 350.333 C 457.553 350.733 457.78 351.133 457.993 351.533 Z " fill="rgb(97,150,180)"/><path d=" M 431.487 385.013 C 431.073 384.92 430.633 384.827 430.167 384.733 C 428.54 381.733 425.58 375.28 423.153 364.52 C 419.66 349.027 427.607 332.52 427.687 332.36 L 428.593 332.8 C 428.513 332.96 420.713 349.16 424.127 364.307 C 424.273 364.947 424.42 365.573 424.567 366.173 C 424.647 366.507 424.727 366.827 424.807 367.147 C 427.287 377 430.18 382.72 431.487 385.013" fill="rgb(97,150,180)"/><path d=" M 424.295 367.2 C 424.247 367.2 424.199 367.199 424.149 367.195 L 424.212 366.197 C 424.749 366.224 425.361 365.929 425.852 365.371 C 426.515 364.613 427.935 362.219 426.789 356.341 C 425.252 348.448 431.097 334.621 431.347 334.036 L 432.267 334.428 C 432.207 334.569 426.292 348.559 427.772 356.152 C 428.956 362.236 427.549 364.952 426.604 366.029 C 425.945 366.779 425.112 367.2 424.295 367.2" fill="rgb(97,150,180)"/><path d=" M 424.493 255.681 C 424.493 255.681 427.46 250.312 423.288 241.084 C 419.115 231.857 419.972 206.355 440.876 207.439 C 440.876 207.439 453.276 205.384 459.529 213.511 C 465.781 221.636 470.861 250.264 464.321 271.505 C 457.781 292.747 416.093 287.061 424.493 255.681 Z " fill="rgb(239,41,77)"/><path d=" M 447.448 333.4 C 447.448 333.4 427.888 340.293 409.435 326.36 C 409.435 326.36 406.008 255.92 412.528 251.2 C 415.381 249.133 421.008 250.787 426.435 253.307 C 433.435 256.56 440.128 261.24 440.128 261.24 C 440.128 261.24 452.275 259.52 461.848 260.573 C 467.941 261.227 472.981 263.013 473.208 267.053 C 473.808 277.467 447.448 333.4 447.448 333.4 Z " fill="rgb(245,117,89)"/><path d=" M 462.368 260.733 C 458.261 260.307 457.501 263.413 453.395 264.907 C 449.275 266.413 444.341 267.573 442.475 267.747 C 440.608 267.92 439.621 270.24 439.621 270.24 C 439.621 270.24 438.955 267.107 437.941 266.84 C 436.955 266.587 428.248 257.827 426.435 253.307 C 433.435 256.56 440.128 261.24 440.128 261.24 C 440.128 261.24 452.275 259.52 461.848 260.573 C 462.181 260.68 462.368 260.733 462.368 260.733" fill="rgb(239,86,64)"/><path d=" M 408.752 528.641 C 409.315 524.807 407.899 522.081 408.9 520.232 C 410.448 517.373 412.083 520.988 412.083 520.988 C 412.213 516.636 419.507 516.644 420.237 518.636 C 420.432 519.168 420.655 519.647 420.884 520.105 C 421.336 519.057 422.104 518.037 423.103 518.636 C 427 520.969 422.155 526.992 425.7 531.381 C 430.213 536.969 427.435 545.414 427.435 545.414 L 405.819 545.414 C 403.287 533.571 408.189 532.46 408.752 528.641 Z " fill="rgb(210,218,220)"/><path d=" M 422.103 527.211 C 422.103 527.211 416.992 524.524 410.213 528.08 L 411.547 525.636 C 411.547 525.636 416.036 522.837 421.48 524.925 L 422.103 527.211" fill="rgb(172,191,195)"/><path d=" M 422.993 531.272 C 422.993 531.272 415.717 528.745 408.94 532.3 L 410.213 529.709 C 410.213 529.709 416.659 526.92 422.103 529.008 L 422.993 531.272 Z " fill="rgb(172,191,195)"/><path d=" M 483.331 528.641 C 482.768 524.807 484.184 522.081 483.183 520.232 C 481.635 517.373 480 520.988 480 520.988 C 479.868 516.636 472.576 516.644 471.845 518.636 C 471.651 519.168 471.428 519.647 471.199 520.105 C 470.745 519.057 469.977 518.037 468.98 518.636 C 465.083 520.969 469.928 526.992 466.383 531.381 C 461.868 536.969 464.647 545.414 464.647 545.414 L 486.264 545.414 C 488.795 533.571 483.893 532.46 483.331 528.641" fill="rgb(210,218,220)"/><path d=" M 469.98 527.211 C 469.98 527.211 475.091 524.524 481.868 528.08 L 480.535 525.636 C 480.535 525.636 476.047 522.837 470.601 524.925 L 469.98 527.211" fill="rgb(172,191,195)"/><path d=" M 469.089 531.272 C 469.089 531.272 476.365 528.745 483.143 532.3 L 481.868 529.709 C 481.868 529.709 475.424 526.92 469.98 529.008 L 469.089 531.272" fill="rgb(172,191,195)"/><path d=" M 438.557 237.94 C 438.557 237.94 440.115 256.747 434.881 259.436 C 434.881 259.436 438.748 266.564 449.115 262.225 C 449.115 262.225 447.363 252.553 454.219 241.069 C 458.811 233.379 438.557 237.94 438.557 237.94 Z " fill="rgb(239,86,64)"/><path d=" M 457.448 231.483 C 457.448 231.483 461.34 226.959 462.233 231.833 C 463.268 237.483 458.271 240.169 457.123 238.435 C 455.973 236.701 457.448 231.483 457.448 231.483" fill="rgb(245,117,89)"/><path d=" M 427.969 234.027 C 427.969 234.027 423.436 230.144 423.291 235.097 C 423.124 240.837 428.471 242.737 429.344 240.849 C 430.216 238.961 427.969 234.027 427.969 234.027 Z " fill="rgb(245,117,89)"/><path d=" M 444.712 253.197 C 454.06 252.485 458.871 245.977 457.476 227.664 C 456.756 218.219 451.509 212.789 441.039 213.587 C 430.568 214.384 426.6 220.515 427.319 229.961 C 428.817 249.639 435.055 253.933 444.712 253.197" fill="rgb(245,117,89)"/><path d=" M 430.912 236.257 C 430.82 237.209 431.711 238.075 432.901 238.191 C 434.091 238.305 435.132 237.627 435.224 236.675 C 435.316 235.723 434.425 234.857 433.235 234.743 C 432.044 234.627 431.004 235.305 430.912 236.257" fill="rgb(220,75,68)"/><path d=" M 450.179 235.304 C 450.313 236.252 451.381 236.883 452.567 236.715 C 453.751 236.547 454.601 235.643 454.467 234.695 C 454.332 233.748 453.264 233.116 452.079 233.285 C 450.895 233.453 450.044 234.357 450.179 235.304" fill="rgb(220,75,68)"/><path d=" M 434.231 226.387 C 434.421 226.476 434.653 226.428 434.792 226.259 C 435.981 224.803 438.267 224.685 438.289 224.684 C 438.548 224.673 438.748 224.453 438.737 224.196 C 438.725 223.937 438.509 223.737 438.248 223.748 C 438.137 223.753 435.519 223.889 434.067 225.667 C 433.903 225.865 433.932 226.161 434.133 226.325 C 434.163 226.351 434.197 226.371 434.231 226.387 Z " fill="rgb(239,41,77)"/><path d=" M 447.772 223.903 C 447.847 223.937 447.932 223.952 448.02 223.943 C 448.043 223.941 450.321 223.715 451.716 224.971 C 451.909 225.145 452.205 225.128 452.379 224.936 C 452.551 224.744 452.536 224.448 452.343 224.273 C 450.637 222.735 448.029 223 447.92 223.012 C 447.663 223.039 447.477 223.269 447.505 223.527 C 447.523 223.696 447.628 223.835 447.772 223.903" fill="rgb(239,41,77)"/><path d=" M 435.649 231.328 C 435.737 232.488 436.332 233.389 436.977 233.34 C 437.621 233.291 438.073 232.311 437.985 231.149 C 437.896 229.988 437.301 229.088 436.657 229.136 C 436.012 229.185 435.56 230.167 435.649 231.328" fill="rgb(34,67,77)"/><path d=" M 448.561 230.26 C 448.649 231.42 449.244 232.323 449.889 232.272 C 450.535 232.224 450.985 231.243 450.897 230.081 C 450.808 228.921 450.215 228.02 449.569 228.069 C 448.924 228.117 448.473 229.099 448.561 230.26 Z " fill="rgb(34,67,77)"/><path d=" M 447.815 241.724 C 447.815 241.724 442.055 242.981 438.94 241.647 C 438.94 241.647 440.963 245.829 444.113 245.2 C 447.264 244.571 447.815 241.724 447.815 241.724" fill="rgb(34,67,77)"/><path d=" M 438.748 230.512 C 438.748 230.512 437.679 227.717 436.571 228.008 C 435.464 228.299 434.799 230.813 434.799 230.813 L 433.072 230.06 L 434.748 230.151 C 434.748 230.151 435.417 227.531 436.528 227.441 C 438.108 227.313 438.748 230.512 438.748 230.512" fill="rgb(34,67,77)"/><path d=" M 447.851 230.171 C 447.851 230.171 448.485 227.247 449.624 227.367 C 450.763 227.485 451.8 229.869 451.8 229.869 L 453.393 228.864 L 451.749 229.208 C 451.749 229.208 450.691 226.719 449.58 226.799 C 447.999 226.912 447.851 230.171 447.851 230.171" fill="rgb(34,67,77)"/><path d=" M 442.753 237.304 C 442.959 237.4 443.187 237.473 443.433 237.52 L 443.623 236.527 C 442.777 236.365 442.556 235.867 442.521 235.479 C 442.471 234.928 442.767 234.388 443.064 234.272 C 443.237 234.204 443.432 234.311 443.644 234.588 L 444.447 233.973 C 443.743 233.051 442.989 233.216 442.696 233.331 C 441.945 233.623 441.427 234.607 441.515 235.571 C 441.587 236.355 442.036 236.969 442.753 237.304" fill="rgb(220,75,68)"/><path d=" M 444.401 216.58 C 444.401 216.58 447.859 215.452 449.3 220.725 C 451.8 229.869 453.605 244.736 459.529 252.08 C 463.831 257.413 466.448 255.247 466.448 255.247 C 466.448 255.247 467.615 249.967 465.781 244.689 C 463.948 239.413 466.276 220.44 459.529 213.511 C 452.781 206.58 440.876 211.011 440.876 211.011 C 440.876 211.011 435.141 207.609 429.545 211.011 C 423.948 214.413 422.364 229.685 428.073 236.467 C 428.073 236.467 427.781 230.72 430.281 228.484 C 432.781 226.247 434.188 213.747 444.401 216.58" fill="rgb(239,41,77)"/><path d=" M 400.531 141.484 C 398.377 148.407 403.667 151.535 399.751 156.268 C 397.325 159.199 393.651 156.812 393.651 156.812 C 391.883 153.12 387.7 148.237 385.524 146.131 C 383.357 144.011 384.9 143.981 384.9 143.981 C 384.684 143.801 384.469 143.643 384.255 143.485 C 382.635 142.26 381.259 141.601 382.781 141.132 C 384.496 140.592 389.252 143.853 389.252 143.853 C 383.589 137.555 381.451 138.188 382.947 137.541 C 384.987 136.655 390.699 141.363 390.869 141.504 C 388.136 137.167 385.719 135.724 387.281 135.576 C 388.865 135.427 394.679 142.427 396.787 145.035 C 397.263 145.62 397.549 145.993 397.549 145.993 C 398.931 140.237 400.531 141.484 400.531 141.484" fill="rgb(245,117,89)"/><path d=" M 396.787 145.035 C 397.263 145.62 397.549 145.993 397.549 145.993 C 397.549 145.993 395.801 147.735 396.7 150.804 C 396.7 150.804 394.284 148.152 396.787 145.035 Z " fill="rgb(239,86,64)"/><path d=" M 389.767 147.527 C 389.248 147.04 386.3 144.217 384.9 143.981 C 384.684 143.801 384.469 143.643 384.255 143.485 C 385.487 142.507 389.209 146.855 389.767 147.527 Z " fill="rgb(239,86,64)"/><path d=" M 399.751 156.268 C 399.751 156.268 398.976 201.943 396.6 211.011 C 396.6 211.011 404.907 239.699 417.344 250.112 C 417.344 250.112 419.283 257.892 408.532 273.208 C 408.532 273.208 387.616 235.789 384.255 214.379 L 393.651 156.812 L 399.751 156.268" fill="rgb(245,117,89)"/><path d=" M 427.237 253.688 C 428.303 257.471 428.895 270.767 441.505 277.591 C 454.115 284.413 467.611 274.425 471.277 263.533 C 471.277 263.533 472.811 261.219 477.801 266.841 C 477.801 266.841 504.028 279.551 507.405 286.149 C 510.781 292.747 508.752 317.993 498.267 318.369 C 487.781 318.747 475.115 307.08 471.781 314.747 C 468.448 322.413 448.949 349.793 408.532 327.769 C 408.532 327.769 403.448 321.413 403.448 315.747 C 403.448 310.08 400.867 272.715 400.867 272.715 C 400.867 272.715 385.968 268.4 389.708 233.24 C 389.708 233.24 399.969 238.921 399.709 220.167 C 399.709 220.167 408.175 216.237 410.979 231.992 C 412.856 242.547 423.288 250.264 423.288 250.264 C 423.288 250.264 425.615 247.932 427.237 253.688" fill="rgb(42,90,159)"/><path d=" M 513.376 299.237 C 522.299 295.5 541.927 279.295 548.929 269.896 L 544.727 266.003 C 544.727 266.003 521.611 281.681 512.736 284.472 C 503.863 287.264 499.172 292.355 500.252 298.66 C 501.332 304.965 511.499 300.024 513.376 299.237 Z " fill="rgb(245,117,89)"/><path d=" M 556.251 256.716 C 551.903 262.517 546.268 260.063 544.727 266.009 C 543.772 269.692 547.859 271.271 547.859 271.271 C 551.887 270.541 558.295 271.071 561.277 271.599 C 564.264 272.113 563.384 270.845 563.384 270.845 C 563.657 270.916 563.911 270.997 564.165 271.079 C 566.107 271.673 567.447 272.403 566.935 270.895 C 566.368 269.188 560.939 267.245 560.939 267.245 C 569.361 268.144 570.1 270.247 569.748 268.656 C 569.271 266.484 562.109 264.612 561.895 264.556 C 567.011 264.231 569.597 265.345 568.801 263.992 C 567.993 262.62 558.916 262.011 555.567 261.831 C 554.813 261.788 554.343 261.773 554.343 261.773 C 558.199 257.283 556.251 256.716 556.251 256.716" fill="rgb(245,117,89)"/><path d=" M 555.567 261.831 C 554.813 261.788 554.343 261.773 554.343 261.773 C 554.343 261.773 553.956 264.212 550.941 265.28 C 550.941 265.28 554.507 265.684 555.567 261.831" fill="rgb(239,86,64)"/><path d=" M 557.66 268.98 C 558.359 269.115 562.373 269.849 563.384 270.845 C 563.657 270.916 563.911 270.997 564.165 271.079 C 564.236 269.507 558.532 269.037 557.66 268.98 Z " fill="rgb(239,86,64)"/><path d=" M 304.891 360.141 C 310.571 340.469 321.807 325.889 321.807 325.889 L 338.775 328.703 L 338.944 328.395 L 340.319 328.669 L 340.516 328.665 L 340.513 328.708 L 358.035 332.212 C 358.035 332.212 365.576 346.255 370.589 366.107 C 375.604 385.959 360.603 436.105 360.603 436.105 C 360.603 436.105 369.048 459.636 349.492 520.969 L 340.279 520.969 C 340.279 520.969 343.713 444.576 342.38 436.105 C 341.231 428.8 339.752 402.033 340.507 381.54 C 339.444 381.768 338.332 381.861 337.168 381.784 L 337.168 381.784 C 337.229 402.284 334.853 428.943 333.46 436.2 C 331.843 444.62 332.705 521.131 332.705 521.131 L 323.497 520.82 C 306.016 458.864 315.248 435.587 315.248 435.587 C 315.248 435.587 299.212 379.813 304.891 360.141" fill="rgb(245,117,89)"/><path d=" M 383.824 267.059 C 383.227 256.647 350.735 261.236 350.735 261.236 C 350.735 261.236 329.656 246.473 323.135 251.196 C 320.827 252.868 319.765 262.78 319.359 274.883 C 316.909 279.22 314.787 285.756 319.148 291.692 C 319.223 309.477 320.044 326.355 320.044 326.355 C 338.505 340.289 358.063 333.399 358.063 333.399 C 358.063 333.399 365.845 316.884 372.857 300.133 C 377.364 296.489 378.333 291.2 378.188 286.865 C 381.599 277.901 384.009 270.289 383.824 267.059" fill="rgb(27,53,64)"/><path d=" M 379.751 214.029 C 370.319 197.933 346.483 199.908 338.328 210.403 C 328.465 223.096 333.708 252.66 333.708 252.66 C 333.708 252.66 356.423 233.732 370.035 259.605 C 370.035 259.605 390.3 232.033 379.751 214.029" fill="rgb(249,173,99)"/><path d=" M 319.363 528.641 C 319.924 524.807 318.509 522.081 319.511 520.232 C 321.059 517.373 322.693 520.988 322.693 520.988 C 322.824 516.636 330.117 516.644 330.847 518.636 C 331.043 519.168 331.264 519.647 331.495 520.105 C 331.947 519.057 332.715 518.037 333.713 518.636 C 337.611 520.969 332.764 526.992 336.311 531.381 C 340.824 536.969 338.045 545.414 338.045 545.414 L 316.429 545.414 C 313.897 533.571 318.8 532.46 319.363 528.641" fill="rgb(27,53,64)"/><path d=" M 332.713 527.211 C 332.713 527.211 327.601 524.524 320.824 528.08 L 322.157 525.636 C 322.157 525.636 326.647 522.837 332.091 524.925 L 332.713 527.211" fill="rgb(40,77,94)"/><path d=" M 333.604 531.272 C 333.604 531.272 326.328 528.745 319.551 532.3 L 320.824 529.709 C 320.824 529.709 327.268 526.92 332.713 529.008 L 333.604 531.272 Z " fill="rgb(40,77,94)"/><path d=" M 353.916 528.641 C 353.353 524.807 354.769 522.081 353.768 520.232 C 352.22 517.373 350.585 520.988 350.585 520.988 C 350.453 516.636 343.161 516.644 342.431 518.636 C 342.236 519.168 342.013 519.647 341.784 520.105 C 341.331 519.057 340.563 518.037 339.565 518.636 C 335.668 520.969 340.513 526.992 336.968 531.381 C 332.453 536.969 335.232 545.414 335.232 545.414 L 356.849 545.414 C 359.38 533.571 354.479 532.46 353.916 528.641" fill="rgb(27,53,64)"/><path d=" M 340.565 527.211 C 340.565 527.211 345.676 524.524 352.453 528.08 L 351.12 525.636 C 351.12 525.636 346.632 522.837 341.187 524.925 L 340.565 527.211" fill="rgb(40,77,94)"/><path d=" M 339.675 531.272 C 339.675 531.272 346.949 528.745 353.728 532.3 L 352.453 529.709 C 352.453 529.709 346.009 526.92 340.565 529.008 L 339.675 531.272" fill="rgb(40,77,94)"/><path d=" M 349.168 237.94 C 349.168 237.94 350.073 249.305 345.492 259.436 C 345.492 259.436 349.359 266.564 359.725 262.225 C 359.725 262.225 357.973 252.553 364.829 241.069 C 369.421 233.379 349.168 237.94 349.168 237.94 Z " fill="rgb(239,86,64)"/><path d=" M 372.113 232.619 C 372.113 232.619 377.04 229.248 376.648 234.188 C 376.195 239.912 370.675 241.224 370.011 239.252 C 369.347 237.281 372.113 232.619 372.113 232.619 Z " fill="rgb(245,117,89)"/><path d=" M 342.973 227.491 C 342.973 227.491 339.592 222.572 338.177 227.323 C 336.539 232.825 341.217 236.037 342.545 234.437 C 343.875 232.837 342.973 227.491 342.973 227.491" fill="rgb(245,117,89)"/><path d=" M 354.219 250.324 C 363.436 252.041 369.759 246.991 373.124 228.936 C 374.859 219.621 371.185 213.027 360.863 211.103 C 350.539 209.179 345.127 214.081 343.391 223.395 C 339.776 242.796 344.699 248.551 354.219 250.324 Z " fill="rgb(245,117,89)"/><path d=" M 345.244 230.404 C 344.909 231.3 345.547 232.365 346.668 232.783 C 347.788 233.201 348.968 232.813 349.303 231.917 C 349.636 231.021 348.999 229.956 347.879 229.537 C 346.757 229.12 345.577 229.507 345.244 230.404" fill="rgb(220,75,68)"/><path d=" M 364.107 234.44 C 363.992 235.391 364.863 236.275 366.051 236.417 C 367.239 236.56 368.293 235.905 368.407 234.955 C 368.52 234.005 367.651 233.12 366.463 232.979 C 365.275 232.836 364.22 233.491 364.107 234.44 Z " fill="rgb(220,75,68)"/><path d=" M 350.989 221.72 C 351.151 221.853 351.388 221.868 351.565 221.74 C 353.089 220.64 355.328 221.113 355.349 221.119 C 355.603 221.173 355.852 221.013 355.908 220.761 C 355.964 220.509 355.805 220.26 355.551 220.203 C 355.443 220.179 352.877 219.637 351.016 220.981 C 350.807 221.132 350.76 221.424 350.911 221.635 C 350.933 221.667 350.961 221.695 350.989 221.72" fill="rgb(249,173,99)"/><path d=" M 364.715 222.803 C 364.779 222.856 364.856 222.892 364.943 222.907 C 364.965 222.909 367.227 223.277 368.251 224.851 C 368.392 225.068 368.683 225.128 368.9 224.987 C 369.116 224.845 369.177 224.556 369.036 224.339 C 367.784 222.412 365.196 221.997 365.087 221.98 C 364.831 221.941 364.593 222.116 364.553 222.372 C 364.527 222.54 364.593 222.701 364.715 222.803 Z " fill="rgb(249,173,99)"/><path d=" M 351.089 226.859 C 350.876 228.004 351.219 229.028 351.855 229.145 C 352.491 229.264 353.179 228.432 353.392 227.288 C 353.605 226.143 353.263 225.12 352.627 225.001 C 351.991 224.883 351.303 225.713 351.089 226.859 Z " fill="rgb(34,67,77)"/><path d=" M 363.657 229.392 C 363.444 230.536 363.787 231.56 364.423 231.679 C 365.059 231.797 365.747 230.965 365.96 229.821 C 366.173 228.676 365.831 227.652 365.195 227.533 C 364.559 227.415 363.871 228.247 363.657 229.392" fill="rgb(34,67,77)"/><path d=" M 360.171 240.035 C 360.171 240.035 354.28 239.768 351.615 237.677 C 351.615 237.677 352.492 242.239 355.699 242.441 C 358.905 242.645 360.171 240.035 360.171 240.035 Z " fill="rgb(34,67,77)"/><path d=" M 354.293 226.868 C 354.293 226.868 353.979 223.892 352.835 223.888 C 351.689 223.884 350.4 226.143 350.4 226.143 L 348.925 224.971 L 350.521 225.489 C 350.521 225.489 351.843 223.129 352.939 223.329 C 354.499 223.612 354.293 226.868 354.293 226.868" fill="rgb(34,67,77)"/><path d=" M 363.177 228.88 C 363.177 228.88 364.543 226.217 365.612 226.627 C 366.683 227.035 367.072 229.607 367.072 229.607 L 368.869 229.044 L 367.193 228.953 C 367.193 228.953 366.811 226.276 365.717 226.067 C 364.159 225.769 363.177 228.88 363.177 228.88" fill="rgb(34,67,77)"/><path d=" M 356.416 234.461 C 356.589 234.608 356.791 234.736 357.019 234.847 L 357.456 233.935 C 356.68 233.561 356.596 233.023 356.661 232.639 C 356.755 232.093 357.179 231.648 357.497 231.612 C 357.683 231.592 357.843 231.744 357.976 232.067 L 358.911 231.68 C 358.467 230.607 357.696 230.572 357.384 230.608 C 356.583 230.697 355.828 231.515 355.665 232.468 C 355.533 233.244 355.809 233.953 356.416 234.461" fill="rgb(220,75,68)"/><path d=" M 342.376 230.653 C 342.376 230.653 338.544 219.481 345.495 210.315 C 352.447 201.149 371.209 207.951 374.652 215.009 C 378.095 222.068 371.371 236.332 371.371 236.332 C 371.371 236.332 376.565 217.419 366.109 214.293 C 366.109 214.293 364.812 219.028 356.704 222.392 C 348.731 225.7 343.953 225.205 343.953 225.205 L 342.376 230.653" fill="rgb(249,173,99)"/><path d=" M 375.403 261.007 C 375.403 261.007 387.243 261.221 416.263 290.365 C 420.288 294.409 415.7 307.081 403.669 299.267 C 390.421 290.66 381.632 281.753 378.871 285.047 C 378.871 285.047 371.959 268.363 375.403 261.007" fill="rgb(239,86,64)"/><path d=" M 417.979 288.689 C 417.887 279.016 410.291 254.724 404.231 244.689 L 399.039 247.112 C 399.039 247.112 404.831 274.437 404.065 283.708 C 403.299 292.979 406.243 299.244 412.489 300.624 C 418.736 302.004 417.999 290.725 417.979 288.689" fill="rgb(245,117,89)"/><path d=" M 394.789 232.936 C 398.52 239.152 394.12 243.441 399.045 247.115 C 402.095 249.388 405.1 246.2 405.1 246.2 C 405.944 242.195 408.855 236.461 410.469 233.899 C 412.073 231.328 410.567 231.663 410.567 231.663 C 410.735 231.437 410.907 231.233 411.077 231.028 C 412.361 229.456 413.543 228.489 411.952 228.393 C 410.157 228.275 406.309 232.569 406.309 232.569 C 410.321 225.109 412.548 225.219 410.943 224.944 C 408.751 224.565 404.313 230.491 404.181 230.668 C 405.811 225.808 407.819 223.833 406.265 224.06 C 404.691 224.289 400.699 232.467 399.268 235.499 C 398.944 236.18 398.752 236.611 398.752 236.611 C 396.049 231.345 394.789 232.936 394.789 232.936" fill="rgb(245,117,89)"/><path d=" M 399.268 235.499 C 398.944 236.18 398.752 236.611 398.752 236.611 C 398.752 236.611 400.864 237.889 400.716 241.084 C 400.716 241.084 402.436 237.936 399.268 235.499" fill="rgb(239,86,64)"/><path d=" M 406.677 236.26 C 407.067 235.664 409.263 232.224 410.567 231.663 C 410.735 231.437 410.907 231.233 411.077 231.028 C 409.648 230.369 407.06 235.475 406.677 236.26" fill="rgb(239,86,64)"/><path d=" M 327.136 250.279 C 327.136 250.279 315.437 247.808 281.063 270.388 C 276.293 273.52 278.188 286.864 291.565 281.68 C 306.296 275.971 317.409 268.968 319.437 272.759 C 319.437 272.759 328.999 258.185 327.136 250.279" fill="rgb(239,86,64)"/><path d=" M 279.725 268.395 C 281.799 258.945 294.212 236.725 302.199 228.147 L 306.784 231.58 C 306.784 231.58 295.516 257.139 294.365 266.371 C 293.215 275.601 289.051 281.131 282.653 281.201 C 276.257 281.272 279.289 270.384 279.725 268.395" fill="rgb(245,117,89)"/><path d=" M 313.848 218.576 C 308.923 223.896 312.351 228.996 306.777 231.581 C 303.325 233.183 301.037 229.447 301.037 229.447 C 301.032 225.353 299.359 219.145 298.303 216.305 C 297.26 213.46 298.665 214.097 298.665 214.097 C 298.548 213.843 298.421 213.607 298.296 213.372 C 297.363 211.569 296.404 210.381 297.98 210.613 C 299.76 210.864 302.648 215.857 302.648 215.857 C 300.249 207.733 298.048 207.384 299.675 207.444 C 301.899 207.523 305.027 214.231 305.12 214.432 C 304.521 209.341 302.96 206.997 304.435 207.537 C 305.929 208.084 308.161 216.905 308.94 220.167 C 309.117 220.901 309.216 221.361 309.216 221.361 C 312.94 216.761 313.848 218.576 313.848 218.576" fill="rgb(245,117,89)"/><path d=" M 308.94 220.167 C 309.117 220.901 309.216 221.361 309.216 221.361 C 309.216 221.361 306.887 222.18 306.377 225.337 C 306.377 225.337 305.339 221.903 308.94 220.167 Z " fill="rgb(239,86,64)"/><path d=" M 301.531 219.393 C 301.272 218.731 299.828 214.913 298.665 214.097 C 298.548 213.843 298.421 213.607 298.296 213.372 C 299.831 213.019 301.317 218.547 301.531 219.393" fill="rgb(239,86,64)"/><path d=" M 319.892 322.891 C 319.892 322.891 280.271 377.153 292.705 434.616 C 292.705 434.616 306.115 447.08 316.627 442.747 C 327.14 438.413 338.021 454.067 347.415 449.073 C 356.807 444.08 365.092 440.413 371.616 443.08 C 378.14 445.747 389.105 434.617 389.105 434.617 C 389.105 434.617 384.255 371.08 360.171 329.113 C 360.171 329.113 340.553 338.08 319.892 322.891" fill="rgb(249,173,99)"/><path d=" M 336.311 531.381 C 336.311 531.381 340.643 536.825 338.892 545.414 L 335.232 545.414 C 335.232 545.414 334.391 537.695 336.311 531.381" fill="rgb(21,35,40)"/><path d=" M 207.699 383.921 C 207.699 383.921 214.933 406.691 232.597 437.241 C 232.597 437.241 229.572 469.593 279.724 529.584 L 286.643 525.781 C 286.643 525.781 260.845 465.465 256.648 447.585 C 252.451 429.707 254.252 405.857 240.759 368.563 L 207.699 383.921" fill="rgb(245,117,89)"/><path d=" M 238.276 338.02 C 238.276 338.02 214.555 328.389 214.553 328.395 C 210.429 341.549 199.78 351.057 200.628 371.711 C 201.048 381.932 207.699 392.424 207.699 392.424 C 235.707 391.413 245.233 379.68 245.233 379.68 L 240.984 359.94 C 240.984 359.94 238.108 346.608 238.276 338.02" fill="rgb(207,37,72)"/><path d=" M 182.044 368.66 C 182.044 368.66 181.265 392.539 187.72 427.233 C 187.72 427.233 174.069 456.72 201.323 530.009 L 209.115 528.733 C 209.115 528.733 204.928 463.267 206.939 445.011 C 208.949 426.756 219.441 410.685 218.336 365.216 L 182.044 368.66 Z " fill="rgb(245,117,89)"/><path d=" M 238.273 338.027 L 228.887 353.947 L 226.607 357.8 L 221.753 366.04 L 218.633 388.053 L 218.487 389.04 L 218.42 389.52 C 194.353 386.747 181.54 394.24 181.54 394.24 L 181.313 392.173 L 181.247 391.507 C 181.207 391.387 181.167 391.28 181.113 391.147 C 178.873 384.587 175.727 366.853 179.46 354.787 C 185.553 335.04 196.5 336.907 204.78 325.893 C 204.82 325.893 238.273 338.027 238.273 338.027" fill="rgb(239,41,77)"/><path d=" M 196.547 523.191 C 196.547 523.191 199.633 530.043 198.68 534.636 C 198.105 537.409 195.125 540.969 197.515 545.414 L 216.247 545.414 C 216.247 545.414 218.417 540.414 214.017 535.747 C 211.585 533.167 209.792 521.191 209.792 521.191 C 207.699 521.524 208.236 523.191 208.236 523.191 C 208.236 523.191 208.3 517.545 203.569 518.303 C 197.899 519.211 199.236 524.191 199.236 524.191 C 199.236 524.191 198.575 522.373 196.547 523.191" fill="rgb(31,67,107)"/><path d=" M 309.02 545.414 L 277.513 545.414 C 277.513 545.414 276.633 538.72 278.02 536.48 C 280.02 533.253 273.1 526.107 273.1 526.107 C 273.1 526.107 277.3 520.867 281.02 523.84 C 281.02 523.84 280.687 517.28 285.353 517.347 C 285.353 517.347 289.687 528.467 294.687 532.44 C 294.793 532.533 294.913 532.613 295.033 532.693 C 298.78 535.386 305.5 536.067 308.14 539.733 C 309.14 541.107 309.553 542.92 309.02 545.414" fill="rgb(31,67,107)"/><path d=" M 219.953 388.44 L 219.66 389.387 C 219.26 389.267 218.873 389.16 218.487 389.04 C 198.713 383.547 185.1 390.013 181.313 392.173 L 181.247 391.507 C 181.207 391.387 181.167 391.28 181.113 391.147 C 182.873 390.173 186.193 388.587 190.847 387.413 C 190.633 385.56 189.273 372.827 190.873 358.76 C 192.593 343.44 207.593 334.2 207.753 334.107 L 208.26 334.973 C 208.14 335.04 197.54 341.587 193.367 352.707 C 207.287 352.547 212.82 335.133 212.873 334.96 L 213.833 335.253 C 213.78 335.44 207.98 353.707 193.18 353.707 L 193.007 353.707 C 192.46 355.333 192.06 357.067 191.86 358.88 C 190.313 372.573 191.567 384.987 191.82 387.173 C 198.487 385.64 207.633 385.027 218.633 388.053 C 219.06 388.173 219.513 388.307 219.953 388.44 Z " fill="rgb(207,37,72)"/><path d=" M 230.141 342.548 C 230.129 342.684 228.788 356.328 222.48 366.653 L 223.333 367.173 C 229.76 356.656 231.125 342.78 231.137 342.641 L 230.141 342.548" fill="rgb(207,37,72)"/><path d=" M 273.18 336.413 C 273.18 336.413 270.847 347.413 268.347 348.247 C 265.847 349.08 268.013 342.593 268.013 342.593 C 268.013 342.593 250.709 335.624 243.612 335.101 C 236.513 334.58 246.513 321.08 273.18 336.413 Z " fill="rgb(31,67,107)"/><path d=" M 270.18 338.413 C 270.18 338.413 251.935 330.08 239.308 330.747 C 226.68 331.413 256.847 289.413 264.347 293.747 C 271.847 298.08 273.513 333.08 270.18 338.413 Z " fill="rgb(31,67,107)"/><path d=" M 224.96 257.832 C 224.96 257.832 226.744 253.247 235.796 252.413 C 244.847 251.58 252.815 260.983 251.081 266.531 C 249.347 272.08 224.96 257.832 224.96 257.832" fill="rgb(31,67,107)"/><path d=" M 239.308 218.087 C 239.308 218.087 238.679 206.413 227.763 204.58 C 216.847 202.747 208.18 205.413 212.013 221.08 C 215.847 236.747 213.347 242.989 206.18 243.701 C 199.013 244.413 199.513 236.023 199.513 236.023 C 199.513 236.023 198.013 243.747 205.847 246.58 C 205.847 246.58 197.576 247.247 200.545 252.413 C 203.513 257.58 212.645 256.747 216.247 252.413 C 216.247 252.413 216.513 255.935 221.013 254.673 C 221.013 254.673 219.192 254.08 219.353 251.747 C 219.513 249.413 231.895 253.357 235.78 238.753 C 239.667 224.149 231.9 221.747 231.9 221.747 L 239.308 218.087" fill="rgb(27,53,64)"/><path d=" M 260.08 264.392 C 253.463 264.08 253.201 270.679 256.589 277.125 C 259.976 283.572 292.377 312.725 297.365 307.232 C 299.292 305.111 293.737 295.377 293.737 295.377 C 293.737 295.377 284.471 287.292 272.504 273.707 C 267.005 267.464 263.531 264.553 260.08 264.392" fill="rgb(245,117,89)"/><path d=" M 301.769 296.691 C 303.585 287.188 300.925 261.875 296.961 250.844 L 291.395 252.196 C 291.395 252.196 291.688 280.125 289.109 289.064 C 286.532 298.003 288.184 304.725 294.036 307.309 C 299.888 309.893 301.388 298.689 301.769 296.691 Z " fill="rgb(245,117,89)"/><path d=" M 284.937 244.739 C 290.975 248.751 288.843 254.515 294.868 255.717 C 296.112 255.965 297.091 255.667 297.843 255.16 C 299.268 254.199 299.904 252.427 299.641 250.728 C 299.031 246.787 299.197 241.516 299.512 238.876 C 299.856 235.865 298.64 236.816 298.64 236.816 C 298.695 236.54 298.761 236.281 298.828 236.023 C 299.312 234.051 299.965 232.672 298.488 233.268 C 296.816 233.931 295.184 239.461 295.184 239.461 C 295.604 231.001 297.661 230.144 296.095 230.587 C 293.952 231.185 292.489 238.441 292.445 238.659 C 291.831 233.569 292.796 230.924 291.491 231.796 C 290.167 232.679 290.072 241.777 290.081 245.131 C 290.083 245.885 290.093 246.356 290.093 246.356 C 285.392 242.761 284.937 244.739 284.937 244.739" fill="rgb(245,117,89)"/><path d=" M 290.081 245.131 C 290.083 245.885 290.093 246.356 290.093 246.356 C 290.093 246.356 292.551 246.605 293.788 249.553 C 293.788 249.553 293.989 245.972 290.081 245.131 Z " fill="rgb(239,86,64)"/><path d=" M 297.101 242.637 C 297.196 241.932 297.703 237.881 298.64 236.816 C 298.695 236.54 298.761 236.281 298.828 236.023 C 297.255 236.041 297.109 241.763 297.101 242.637" fill="rgb(239,86,64)"/><path d=" M 250.352 263.975 C 250.352 263.975 259.347 260.268 270.347 266.841 C 281.347 273.413 287.931 283.859 287.931 283.859 C 287.931 283.859 288.036 264.265 291.359 261.007 C 291.359 261.007 295.471 265.935 300.575 266.841 C 300.575 266.841 313.68 293.989 305.347 310.868 C 297.013 327.747 272.347 310.868 272.347 310.868 L 250.352 263.975" fill="rgb(31,67,107)"/><path d=" M 204.775 325.889 C 204.775 325.889 211.368 308.561 208.005 298.692 C 202.253 281.815 205.397 267.555 211.441 263.341 C 221.22 256.524 241.683 264.317 241.683 264.317 C 241.683 264.317 261.601 262.205 263.633 268.253 C 265.664 274.303 270.427 298.823 260.935 311.896 C 251.441 324.969 238.276 345.184 238.276 345.184 C 238.276 345.184 210.108 342.593 204.775 325.889 Z " fill="rgb(210,218,220)"/><path d=" M 216.247 336.413 C 216.247 336.413 213.513 345.789 210.013 345.184 C 206.513 344.58 191.383 336.457 191.364 335.101 C 191.347 333.747 193.513 330.747 193.513 330.747 C 193.513 330.747 192.68 323.58 194.513 322.913 C 196.347 322.247 216.247 336.413 216.247 336.413" fill="rgb(31,67,107)"/><path d=" M 248.244 261.007 C 248.244 261.007 269.013 297.108 268.013 342.593 C 268.013 342.593 277.459 340.08 279.236 323.08 C 281.013 306.08 274.929 273.512 266.639 264.963 C 266.639 264.963 260.693 258.757 248.244 261.007 Z " fill="rgb(42,90,159)"/><path d=" M 230.68 259.508 C 230.68 259.508 246.187 314.913 216.247 336.413 C 216.247 336.413 203.68 335.7 194.68 325.889 C 185.68 316.08 197.853 263.341 197.853 263.341 C 197.853 263.341 213.879 252.743 230.68 259.508 Z " fill="rgb(42,90,159)"/><path d=" M 233.861 276.855 C 233.861 276.855 233.787 260.199 231.9 255.805 C 230.013 251.413 224.96 257.832 224.96 257.832 C 224.96 257.832 226.347 265.561 233.861 276.855 Z " fill="rgb(31,67,107)"/><path d=" M 254.943 275.267 C 254.943 275.267 256.856 258.864 251.18 255.983 C 245.504 253.101 245.407 263.341 245.407 263.341 C 245.407 263.341 250.392 262.833 254.943 275.267 Z " fill="rgb(31,67,107)"/><path d=" M 238.644 241.635 C 238.644 241.635 239.984 252.956 235.796 263.256 C 235.796 263.256 241.776 272.084 247.481 266.275 C 247.481 266.275 248.004 255.899 254.415 244.16 C 258.707 236.299 238.644 241.635 238.644 241.635" fill="rgb(239,86,64)"/><path d=" M 229.48 242.02 C 229.48 242.02 224.436 238.828 225.005 243.752 C 225.665 249.456 231.228 250.568 231.821 248.573 C 232.413 246.58 229.48 242.02 229.48 242.02" fill="rgb(245,117,89)"/><path d=" M 258.417 235.845 C 258.417 235.845 261.619 230.808 263.204 235.504 C 265.039 240.944 260.48 244.323 259.095 242.772 C 257.708 241.221 258.417 235.845 258.417 235.845" fill="rgb(245,117,89)"/><path d=" M 248.001 259.069 C 238.852 261.117 232.351 256.299 228.339 238.376 C 226.268 229.131 229.703 222.407 239.949 220.112 C 250.196 217.817 255.781 222.521 257.852 231.767 C 262.164 251.025 257.452 256.953 248.001 259.069" fill="rgb(245,117,89)"/><path d=" M 256.253 238.837 C 256.62 239.721 256.02 240.809 254.916 241.268 C 253.811 241.725 252.617 241.38 252.252 240.496 C 251.885 239.613 252.484 238.525 253.589 238.068 C 254.695 237.609 255.887 237.955 256.253 238.837 Z " fill="rgb(220,75,68)"/><path d=" M 237.548 243.552 C 237.696 244.497 236.857 245.413 235.676 245.597 C 234.495 245.783 233.416 245.167 233.268 244.221 C 233.121 243.276 233.959 242.36 235.14 242.176 C 236.323 241.991 237.4 242.607 237.548 243.552 Z " fill="rgb(220,75,68)"/><path d=" M 249.883 230.487 C 249.795 230.487 249.704 230.461 249.624 230.408 C 248.06 229.364 245.843 229.919 245.819 229.924 C 245.564 229.991 245.313 229.837 245.248 229.587 C 245.184 229.336 245.335 229.08 245.585 229.016 C 245.693 228.989 248.235 228.353 250.144 229.628 C 250.36 229.772 250.417 230.063 250.273 230.279 C 250.183 230.413 250.035 230.487 249.883 230.487" fill="rgb(27,53,64)"/><path d=" M 232.657 234.344 C 232.576 234.344 232.492 234.321 232.417 234.276 C 232.195 234.143 232.123 233.856 232.257 233.633 C 233.44 231.667 236.011 231.156 236.12 231.136 C 236.369 231.096 236.617 231.253 236.667 231.508 C 236.716 231.761 236.549 232.007 236.296 232.056 C 236.273 232.061 234.024 232.513 233.059 234.116 C 232.972 234.263 232.816 234.344 232.657 234.344" fill="rgb(27,53,64)"/><path d=" M 250.284 235.507 C 250.537 236.643 250.232 237.679 249.601 237.819 C 248.969 237.96 248.252 237.155 247.997 236.019 C 247.743 234.881 248.049 233.847 248.68 233.705 C 249.311 233.564 250.029 234.369 250.284 235.507" fill="rgb(34,67,77)"/><path d=" M 237.577 238.352 C 237.832 239.488 237.527 240.524 236.895 240.665 C 236.264 240.807 235.545 240 235.292 238.864 C 235.037 237.728 235.343 236.692 235.975 236.551 C 236.605 236.409 237.323 237.216 237.577 238.352 Z " fill="rgb(34,67,77)"/><path d=" M 242.021 248.724 C 242.021 248.724 246.917 248.857 250.807 246.08 C 250.807 246.08 251.807 252.912 247.149 253.523 C 243.911 253.947 242.021 248.724 242.021 248.724" fill="rgb(34,67,77)"/><path d=" M 247.081 235.631 C 247.081 235.631 247.288 232.645 248.432 232.6 C 249.576 232.555 250.947 234.765 250.947 234.765 L 252.377 233.541 L 250.801 234.117 C 250.801 234.117 249.396 231.807 248.308 232.045 C 246.76 232.385 247.081 235.631 247.081 235.631 Z " fill="rgb(34,67,77)"/><path d=" M 238.276 237.963 C 238.276 237.963 236.815 235.351 235.761 235.797 C 234.707 236.244 234.411 238.828 234.411 238.828 L 232.593 238.331 L 234.265 238.18 C 234.265 238.18 234.552 235.489 235.637 235.241 C 237.183 234.888 238.276 237.963 238.276 237.963" fill="rgb(34,67,77)"/><path d=" M 244.647 243.701 L 244.176 242.808 C 244.937 242.405 245.001 241.864 244.923 241.483 C 244.811 240.941 244.371 240.512 244.051 240.487 C 243.868 240.477 243.711 240.633 243.589 240.959 L 242.641 240.607 C 243.047 239.516 243.815 239.457 244.128 239.479 C 244.932 239.54 245.715 240.329 245.912 241.276 C 246.119 242.268 245.645 243.175 244.647 243.701" fill="rgb(220,75,68)"/><path d=" M 230.204 245.247 C 230.204 245.247 229.024 240.903 228.644 235.849 C 228.148 229.277 232.125 223.139 238.432 221.229 C 240.521 220.596 242.955 220.251 245.727 220.46 C 249.86 220.771 253.419 223.477 255.113 227.26 C 256.497 230.349 258.108 234.599 259.191 239.523 C 259.191 239.523 260.824 234.181 259.296 225.969 C 257.768 217.756 251.079 210.923 235.408 214.303 C 222.013 217.191 216.247 233.303 230.204 245.247" fill="rgb(34,67,77)"/><path d=" M 249.716 218.42 C 249.716 218.42 248.013 231.149 230.68 232.751 C 230.68 232.751 241.18 229.049 241.18 221.663 C 241.18 221.663 237.013 231.12 227.013 230.016 C 227.013 230.016 226.084 214.793 249.716 218.42" fill="rgb(34,67,77)"/><path d=" M 196.967 267.419 C 205.411 269.936 211.112 283.597 209.335 285.152 C 207.556 286.707 167.729 294.407 167.729 294.407 L 191.988 329.4 L 187.887 335.375 C 187.887 335.375 150.052 301.931 150.263 290.46 C 150.472 278.989 196.967 267.419 196.967 267.419" fill="rgb(245,117,89)"/><path d=" M 192.092 328.355 C 192.092 328.355 197.361 328.939 200.679 329.768 C 203.997 330.599 208.421 331.428 208.56 332.119 C 208.699 332.811 201.232 332.119 201.232 332.119 C 201.232 332.119 207.316 334.619 207.453 335.58 C 207.592 336.543 199.711 334.884 199.711 334.884 C 199.711 334.884 204.688 337.925 204.412 338.755 C 204.136 339.585 198.004 337.511 198.004 337.511 C 198.004 337.511 199.145 340.415 200.327 341.797 C 200.327 341.797 199.139 342.449 196.729 339.773 C 194.319 337.096 190.472 337.956 187.425 335.58 C 184.38 333.205 189.317 327.997 192.092 328.355" fill="rgb(245,117,89)"/><path d=" M 197.853 263.341 C 197.853 263.341 212.68 265.044 213.347 286.895 C 214.013 308.747 180.876 301.761 180.876 301.761 C 180.876 301.761 188.976 311.061 186.467 321.435 C 186.467 321.435 177.455 321.367 177.735 325.889 C 177.735 325.889 163.841 326.753 150.261 307.917 C 136.68 289.08 155.799 268.016 197.853 263.341" fill="rgb(31,67,107)"/><path d=" M 273.024 284.285 C 274 287.493 273.24 290.567 271.325 291.151 C 269.411 291.733 267.067 289.605 266.089 286.396 C 265.113 283.188 265.873 280.115 267.788 279.532 C 269.703 278.949 272.047 281.077 273.024 284.285 Z " fill="rgb(31,67,107)"/><path d=" M 230.472 288.083 C 230.309 291.745 227.709 294.603 224.664 294.468 C 221.62 294.332 219.284 291.253 219.448 287.591 C 219.611 283.929 222.212 281.071 225.256 281.207 C 228.3 281.343 230.636 284.421 230.472 288.083 Z " fill="rgb(31,67,107)"/><path d=" M 180.853 279.216 C 177.276 280.017 173.837 278.255 173.172 275.281 C 172.505 272.308 174.865 269.248 178.443 268.447 C 182.02 267.645 185.459 269.408 186.125 272.381 C 186.791 275.355 184.431 278.415 180.853 279.216 Z " fill="rgb(42,90,159)"/><path d=" M 198.251 538.524 C 198.251 538.524 203.363 531.889 213.807 537.191 C 213.807 537.191 214.251 541.857 209.363 540.969 C 204.473 540.08 201.584 543.636 198.251 538.524" fill="rgb(42,90,159)"/><path d=" M 308.14 539.733 C 301.447 542.96 287.58 535.307 287.58 535.307 C 289.78 535.68 293.073 533.92 295.033 532.693 C 298.78 535.386 305.5 536.067 308.14 539.733" fill="rgb(42,90,159)"/></g></g></svg>