<?xml version="1.0" encoding="iso-8859-1"?>
<!-- Generator: Adobe Illustrator 19.0.0, SVG Export Plug-In . SVG Version: 6.00 Build 0)  -->
<svg xmlns="http://www.w3.org/2000/svg" xmlns:xlink="http://www.w3.org/1999/xlink" version="1.1" id="Layer_1" x="0px" y="0px" viewBox="0 0 500.004 500.004" style="enable-background:new 0 0 500.004 500.004;" xml:space="preserve" width="512" height="512">
<g>
	<g>
		<path style="fill:#D3976E;" d="M296.169,56.464c-2.345,0-4.577,0.481-6.606,1.345c-2.256-28.155-25.803-50.305-54.539-50.305h0    c-28.736,0-52.283,22.15-54.539,50.305c-2.029-0.865-4.261-1.345-6.606-1.345c-9.314,0-16.864,7.55-16.864,16.864    s7.55,16.864,16.864,16.864c2.473,0,4.814-0.545,6.929-1.501c3.632,26.706,26.513,47.292,54.216,47.292h0    c27.703,0,50.584-20.586,54.216-47.292c2.116,0.956,4.457,1.501,6.929,1.501c9.314,0,16.864-7.55,16.864-16.864    S305.483,56.464,296.169,56.464z"/>
		<path style="fill:#B7794F;" d="M246.865,134.688c-3.81,0.85-7.77,1.29-11.84,1.29c-27.71,0-50.59-20.59-54.22-47.29    c-2.11,0.95-4.46,1.5-6.93,1.5c-9.31,0-16.86-7.55-16.86-16.86c0-9.32,7.55-16.87,16.86-16.87c2.35,0,4.58,0.48,6.61,1.35    c1.13-14.08,7.57-26.66,17.34-35.72c9.76-9.05,22.83-14.59,37.2-14.59c4.07,0,8.03,0.44,11.84,1.29    c-24.36,5.38-42.59,27.11-42.59,53.09v19.72C204.275,107.578,222.505,129.308,246.865,134.688z"/>
		<path style="fill:#5C5E70;" d="M288.474,50.494l1.089,7.315c-49.36,6.46-72.189-20.865-72.189-20.865    c-8.25,14.77-20.409,20.865-36.889,20.865l0.129-1.435c1.44-13.49,7.78-25.53,17.21-34.28c9.77-9.05,22.83-14.59,37.2-14.59    C261.224,7.504,283.104,25.904,288.474,50.494z"/>
		<path style="fill:#3B3D4C;" d="M246.864,8.794c-20.66,4.56-37.131,21.966-41.591,42.666c-6.7,4.46-15.008,6.349-24.788,6.349    l0.129-1.435c1.44-13.49,7.78-25.53,17.21-34.28c9.77-9.05,22.83-14.59,37.2-14.59c4.05,0,7.99,0.44,11.79,1.27    C246.834,8.784,246.844,8.794,246.864,8.794z"/>
		<path style="fill:#5C5E70;" d="M235.185,180.726l-19.547-28.344h-20.525c0,0-26.389,50.823-26.389,121.194    c0,0,0,142.697,16.615,218.927h18.57c0,0,2.932-85.368,23.457-180.173h15.638c20.525,94.805,23.457,180.173,23.457,180.173h18.57    c16.615-76.231,16.615-218.927,16.615-218.927c0-70.371-26.389-121.194-26.389-121.194h-20.525L235.185,180.726z"/>
		<path style="fill:#3B3D4C;" d="M210.043,152.383c0,0-16.55,50.82-16.55,121.19c0,0,0,142.7,10.42,218.93h-18.57    c-16.61-76.23-16.61-218.93-16.61-218.93c0-70.37,26.38-121.19,26.38-121.19H210.043z"/>
		<path style="fill:#34ABE0;" d="M301.642,273.573c0,0,0,142.7-16.61,218.93h-18.57c0,0-2.93-85.37-23.46-180.18h-15.64    c-20.52,94.81-23.45,180.18-23.45,180.18h-18.57c-16.62-76.23-16.62-218.93-16.62-218.93c8.24-1.17,16.51-2.13,24.78-2.86    C229.512,267.523,265.802,268.473,301.642,273.573z"/>
		<path style="fill:#1895B7;" d="M203.912,492.503h-18.57c-16.62-76.23-16.62-218.93-16.62-218.93c8.24-1.17,16.51-2.13,24.78-2.86    c-0.01,0.95-0.01,1.9-0.01,2.86C193.492,273.573,193.492,416.273,203.912,492.503z"/>
		<g>
			<path style="fill:#4BC999;" d="M326.033,58.8v43h-58.19c-7.83,0-14.17-9.62-14.17-21.5c0-11.87,6.34-21.5,14.17-21.5H326.033z"/>
			<path style="fill:#3AAF80;" d="M326.033,80.3v21.5h-58.19c-7.83,0-14.17-9.62-14.17-21.5H326.033z"/>
			<ellipse style="fill:#E3F4FC;" cx="326.032" cy="80.301" rx="14.172" ry="21.502"/>
			<ellipse style="fill:#E3F4FC;" cx="354.376" cy="80.301" rx="14.172" ry="21.502"/>
		</g>
	</g>
	<g>
		<path d="M229.686,67.472c-4.143,0-7.5,3.358-7.5,7.5v9.857c0,4.142,3.357,7.5,7.5,7.5s7.5-3.358,7.5-7.5v-9.857    C237.186,70.83,233.829,67.472,229.686,67.472z"/>
		<path d="M340.204,102.401c3.774,4.318,8.705,6.902,14.172,6.902c12.152,0,21.672-12.739,21.672-29.002s-9.52-29.002-21.672-29.002    c-5.467,0-10.397,2.584-14.172,6.902c-3.768-4.31-8.688-6.892-14.144-6.901c-0.009,0-0.018-0.001-0.028-0.001h-29.757    c-2.354-13.269-8.955-25.423-18.951-34.701C265.791,5.895,250.767,0,235.022,0c-3.813,0-7.634,0.349-11.354,1.036    c-4.073,0.752-6.765,4.665-6.012,8.738c0.753,4.073,4.659,6.767,8.738,6.012c2.822-0.521,5.726-0.786,8.627-0.786    c21.932,0,40.822,15.363,45.879,36.109c-38.964,2.376-57.003-18.08-57.769-18.973c-1.583-1.895-3.992-2.889-6.454-2.661    c-2.458,0.229-4.646,1.654-5.85,3.809c-5.081,9.092-11.831,14.279-21.271,16.177c2.329-8.318,6.912-15.881,13.363-21.863    c3.037-2.816,3.217-7.562,0.4-10.599c-2.817-3.037-7.562-3.216-10.6-0.4c-9.409,8.725-15.812,20-18.496,32.362    c-0.114-0.001-0.229-0.002-0.344-0.002c-13.438,0-24.37,10.933-24.37,24.37c0,13.432,10.933,24.36,24.37,24.36    c0.374,0,0.748-0.008,1.12-0.025c7.277,26.613,31.79,45.815,60.02,45.815c15.156,0,29.749-5.506,41.079-15.495    c5.941-5.218,10.853-11.615,14.438-18.682h21.023c4.109,7.095,13.427,23.781,21.06,41.822c11.74,27.749,14.813,48.25,8.221,54.843    c-3.604,3.605-6.354,3.923-8.104,3.859c-9.398-0.378-21.962-15.144-31.136-25.925c-3.396-3.992-6.628-7.789-9.726-11.018    c-5.131-14.516-9.522-23.107-9.964-23.958c-1.29-2.485-3.856-4.044-6.656-4.044h-20.524c-2.466,0-4.774,1.212-6.174,3.242    l-13.374,19.392l-13.374-19.392c-1.399-2.03-3.708-3.242-6.174-3.242h-20.524c-2.8,0-5.366,1.559-6.656,4.044    c-0.31,0.596-2.56,4.996-5.644,12.568c-37.753,18.607-75.052,93.079-51.508,164.194c1.043,3.15,3.973,5.145,7.119,5.145    c0.781,0,1.576-0.123,2.358-0.382c3.932-1.302,6.064-5.545,4.763-9.478c-18.299-55.271,4.072-109.026,28.41-134.126    c-6.503,21.852-12.731,51.873-12.731,86.728c0,0.358,0.023,36.365,2.085,81.222c2.523,54.922,6.842,98.648,12.851,130.206h-7.436    c-4.143,0-7.5,3.358-7.5,7.5s3.357,7.5,7.5,7.5h16.615h18.569c4.042,0,7.356-3.203,7.495-7.243    c0.029-0.829,3.014-82.208,22.032-172.93h3.498c3.237,15.441,6.21,31.561,8.854,48.01c0.657,4.089,4.495,6.878,8.596,6.215    c4.089-0.657,6.872-4.505,6.215-8.595c-3.025-18.826-6.479-37.235-10.264-54.717c-0.747-3.451-3.8-5.913-7.33-5.913h-15.639    c-3.53,0-6.583,2.462-7.33,5.913c-17.013,78.583-22.052,151.548-23.278,174.26h-5.316    c-13.126-66.233-14.931-176.916-15.178-204.866c39.134-5.009,78.71-5.009,117.844,0c-0.247,27.95-2.052,138.634-15.178,204.866    h-5.313c-0.763-14.252-3.016-48.271-8.762-90.757c-0.556-4.105-4.338-6.984-8.438-6.427c-4.105,0.555-6.982,4.333-6.428,8.438    c7.495,55.408,8.963,96.1,8.978,96.504c0.139,4.039,3.454,7.242,7.495,7.242h18.569h16.615c4.143,0,7.5-3.358,7.5-7.5    s-3.357-7.5-7.5-7.5h-7.436c6.009-31.558,10.328-75.284,12.851-130.206c2.062-44.856,2.085-80.863,2.085-81.222    c0-25.338-3.292-48.12-7.588-67.069c9.256,9.744,19.387,17.857,30.578,18.308c0.328,0.013,0.655,0.02,0.981,0.02    c6.684,0,12.848-2.776,18.332-8.26c11.908-11.908,10.248-35.276-5.074-71.437c-5.995-14.148-12.829-27.245-17.694-36.049    C333.089,108.399,337.051,106.008,340.204,102.401z M176.371,264.996c1.648-52.351,17.861-92.625,23.489-105.114h11.839    l17.313,25.102c1.399,2.03,3.708,3.242,6.174,3.242s4.774-1.212,6.174-3.242l17.313-25.102h11.839    c5.631,12.495,21.841,52.766,23.489,105.114C254.928,260.163,215.442,260.163,176.371,264.996z M354.376,66.299    c2.656,0,6.672,5.584,6.672,14.002s-4.016,14.002-6.672,14.002s-6.672-5.584-6.672-14.002S351.72,66.299,354.376,66.299z     M326.032,94.303c-2.656,0-6.672-5.584-6.672-14.002s4.016-14.002,6.672-14.002s6.672,5.584,6.672,14.002    S328.688,94.303,326.032,94.303z M285.79,94.303c-0.074,0-0.147-0.002-0.221,0h-17.726c-2.656,0-6.672-5.584-6.672-14.002    s4.016-14.002,6.672-14.002h6.185c0.224,0.001,0.442,0.008,0.667,0.008c0.155,0,0.316-0.007,0.472-0.008h31.802    c-1.667,4.129-2.608,8.891-2.608,14.002c0,5.111,0.941,9.873,2.608,14.002H285.79z M266.192,116.724    c-8.599,7.581-19.669,11.756-31.17,11.756c-23.507,0-43.617-17.54-46.778-40.8c-0.319-2.348-1.729-4.406-3.801-5.553    c-2.074-1.147-4.567-1.247-6.725-0.269c-1.22,0.552-2.51,0.832-3.836,0.832c-5.167,0-9.37-4.199-9.37-9.36    c0-5.167,4.203-9.37,9.37-9.37c1.268,0,2.494,0.25,3.644,0.743c0.917,0.394,1.89,0.583,2.862,0.595    c0.032,0.002,0.063,0.011,0.096,0.011c16.537,0,29.132-5.559,38.249-16.941c6.235,4.909,16.621,11.344,31.4,15.022    c-1.506,2.849-2.638,6.088-3.296,9.608c-3.33,0.766-5.815,3.741-5.815,7.303s2.485,6.537,5.815,7.303    c2.361,12.617,10.745,21.699,21.005,21.699h5.141C270.985,112.006,268.716,114.508,266.192,116.724z"/>
	</g>
</g>















</svg>
