<svg id="Capa_1" enable-background="new 0 0 512.013 512.013" height="512" viewBox="0 0 512.013 512.013" width="512" xmlns="http://www.w3.org/2000/svg"><g><g><g><path d="m481.254 415.483v-320.871c0-11.107-9.004-20.111-20.111-20.111h-410.273c-11.107 0-20.111 9.004-20.111 20.111v320.871z" fill="#f8f7f7"/><path d="m56.756 388.316c-2.761 0-5-2.239-5-5v-308.82h-.89c-11.1 0-20.11 9.01-20.11 20.12v320.87h450.5v-27.17z" fill="#e8e8e8"/><path d="m19.525 403.164 3.931-.847h191.82l41.515 2.378 40.945-2.378h196.32c6.939 0 11.948 6.642 10.041 13.314l-.002.007c-.7 2.448-1.691 4.753-2.928 6.88-5.308 9.125-20.305 12.012-31.226 12.012l-431.683 1.541c-13.471 0-25.077-6.643-28.775-19.596-1.904-6.672 3.105-13.311 10.042-13.311z" fill="#9e959e"/><path d="m297.736 402.316v35.2l-41.73-2.223-40.73 2.223v-35.2z" fill="#8e868e"/><path d="m501.166 422.516c-5.3 9.13-15.16 15-26.08 15h-177.35l-39.335-1.446-43.124 1.446h-178.351c-13.48 0-25.31-8.94-29.01-21.89-.28-.97-.41-1.94-.41-2.89 0-5.57 4.52-10.42 10.45-10.42h5.5c4.21 12.03 15.58 20.2 28.47 20.2z" fill="#8e868e"/><path d="m215.276 422.516h82.46v15h-82.46z" fill="#766d78"/></g><g><path d="m61.473 286.146.44 46.294c0 11.075 8.978 20.053 20.053 20.053l185.818-.237c8.592 0 17.238-3.716 20.093-11.31.825-2.195 1.276-4.572 1.276-7.056v-49.894c0-11.075-8.978-20.053-20.053-20.053h-188.892c-2.482 0-4.859.451-7.053 1.275-7.595 2.856-11.682 12.335-11.682 20.928z" fill="#e8e8e8"/><path d="m287.878 340.946c-2.85 7.6-10.18 13-18.78 13h-188.89c-11.07 0-20.05-8.98-20.05-20.06v-49.89c0-8.59 5.41-15.92 13-18.77v68.67c0 3.88 3.16 7.05 7.05 7.05z" fill="#d8d8d8"/></g><g><g><path d="m188.089 167.805c0-35.104-28.457-63.561-63.561-63.561s-63.561 28.457-63.561 63.561c0 19.746 9.004 37.389 23.13 49.047l40.431 10.553 39.52-9.815c14.648-11.644 24.041-29.618 24.041-49.785z" fill="#df646e"/></g><g><path d="m164.051 215.064v2.53c-4.54 3.61-9.59 6.61-15.02 8.88-7.54 3.15-15.82 4.89-24.5 4.89-8.88 0-17.33-1.82-25-5.1-5.43-2.32-10.46-5.38-14.98-9.05v-2.5c.07-15.15 12.4-27.4 27.5-27.4h.13l24.5.12c7.35.04 14.24 2.93 19.41 8.15s7.999 12.14 7.96 19.48z" fill="#dc4955"/></g><g><path d="m147.001 149.354c-.01 3.01-.61 5.92-1.75 8.61-1.12 2.69-2.78 5.16-4.92 7.27-4.24 4.2-9.86 6.51-15.83 6.51h-.11c-6.01-.03-11.65-2.4-15.88-6.67s-6.54-9.93-6.51-15.94c.06-12.37 10.14-22.39 22.5-22.39h.11c6.01.03 11.65 2.4 15.88 6.67 4.22 4.27 6.54 9.93 6.51 15.94z" fill="#f2bb88"/></g></g><path d="m223.612 145.006.44 46.294c0 11.075 8.978 20.053 20.053 20.053l185.818-.237c8.592 0 17.238-3.716 20.093-11.31.825-2.195 1.276-4.572 1.276-7.056v-49.894c0-11.075-8.978-20.053-20.053-20.053h-188.892c-2.482 0-4.859.451-7.053 1.275-7.596 2.856-11.682 12.335-11.682 20.928z" fill="#e8e8e8"/><path d="m450.016 199.806c-2.85 7.6-10.18 13-18.78 13h-188.89c-11.07 0-20.05-8.98-20.05-20.06v-49.89c0-8.59 5.41-15.92 13-18.77v68.67c0 3.88 3.16 7.05 7.05 7.05z" fill="#d8d8d8"/><g><g><path d="m451.184 308.067c0-35.104-28.457-63.561-63.561-63.561s-63.561 28.457-63.561 63.561c0 19.746 9.004 37.389 23.13 49.047l40.431 10.552 39.52-9.815c14.649-11.643 24.041-29.616 24.041-49.784z" fill="#d6ccf2"/></g><g><path d="m427.146 355.326v2.53c-4.54 3.61-9.59 6.61-15.02 8.88-7.54 3.15-15.82 4.89-24.5 4.89-8.88 0-17.33-1.82-25-5.1-5.43-2.32-10.46-5.38-14.98-9.05v-2.5c.07-15.15 12.4-27.4 27.5-27.4h.13l24.5.12c7.35.04 14.24 2.93 19.41 8.15s8 12.14 7.96 19.48z" fill="#c8b8f4"/></g><g><path d="m410.096 289.616c-.01 3.01-.61 5.92-1.75 8.61-1.12 2.69-2.78 5.16-4.92 7.27-4.24 4.2-9.86 6.51-15.83 6.51h-.11c-6.01-.03-11.65-2.4-15.88-6.67s-6.54-9.93-6.51-15.94c.06-12.37 10.14-22.39 22.5-22.39h.11c6.01.03 11.65 2.4 15.88 6.67 4.22 4.27 6.54 9.93 6.51 15.94z" fill="#f2bb88"/></g></g></g><g><path d="m508.383 401.956c-3.422-4.536-8.644-7.139-14.326-7.139h-5.303v-88.832c0-4.143-3.357-7.5-7.5-7.5s-7.5 3.357-7.5 7.5v88.832h-315.663c-4.143 0-7.5 3.357-7.5 7.5s3.357 7.5 7.5 7.5h49.684v20.195h-170.854c-10.068 0-19.031-6.762-21.796-16.443-.351-1.228.15-2.145.48-2.581.33-.438 1.074-1.171 2.35-1.171h105.029c4.143 0 7.5-3.357 7.5-7.5s-3.357-7.5-7.5-7.5h-84.726v-300.204c0-6.954 5.657-12.613 12.611-12.613h236.126c4.143 0 7.5-3.357 7.5-7.5s-3.357-7.5-7.5-7.5h-236.126c-15.225 0-27.611 12.387-27.611 27.612v300.204h-5.303c-5.681 0-10.901 2.601-14.323 7.136-3.422 4.536-4.49 10.271-2.931 15.734 4.595 16.089 19.489 27.325 36.22 27.325h438.17c16.726 0 31.618-11.231 36.218-27.32 1.562-5.463.495-11.198-2.926-15.735zm-285.608 7.861h67.457v20.195h-67.457zm274.11 3.759c-2.768 9.678-11.729 16.437-21.794 16.437h-169.859v-20.195h188.825c1.276 0 2.021.733 2.35 1.171.33.436.831 1.353.478 2.587z"/><path d="m321.878 82h139.265c6.954 0 12.611 5.658 12.611 12.612v176.394c0 4.143 3.357 7.5 7.5 7.5s7.5-3.357 7.5-7.5v-176.393c0-15.226-12.387-27.612-27.611-27.612h-139.265c-4.143 0-7.5 3.357-7.5 7.5s3.358 7.499 7.5 7.499z"/><path d="m387.703 267.006c-.037 0-.073 0-.11 0-12.355 0-22.438 10.022-22.498 22.393-.028 6.01 2.285 11.671 6.514 15.94 4.229 4.271 9.869 6.638 15.878 6.666h.111c5.969 0 11.587-2.311 15.83-6.514 4.271-4.229 6.638-9.868 6.667-15.878 0 0 0 0 0-.001.028-6.01-2.285-11.671-6.514-15.94-4.229-4.27-9.869-6.637-15.878-6.666zm5.169 27.828c-1.414 1.401-3.287 2.171-5.277 2.171-.012 0-.024 0-.037 0-2.003-.01-3.882-.798-5.291-2.222-1.41-1.423-2.182-3.311-2.172-5.313.02-4.123 3.38-7.464 7.5-7.464h.037c2.003.01 3.882.798 5.291 2.222 1.41 1.423 2.182 3.31 2.172 5.313s-.799 3.883-2.223 5.293z"/><path d="m387.963 237.007c-.117 0-.229-.001-.346-.001-39.022 0-70.867 31.655-71.055 70.721-.188 39.183 31.537 71.213 70.72 71.401.117 0 .229.001.346.001 39.023 0 70.868-31.656 71.056-70.722.187-39.182-31.538-71.212-70.721-71.4zm-.336 127.122c-.091 0-.182 0-.272-.001-8.881-.043-17.27-2.167-24.722-5.895l.015-3.213c.033-6.872 5.635-12.44 12.499-12.44h.061l24.5.117c6.893.033 12.474 5.667 12.44 12.56l-.015 3.217c-7.411 3.618-15.726 5.655-24.506 5.655zm38.716-15.577c-1.176-4.76-3.617-9.133-7.157-12.707-5.169-5.219-12.061-8.112-19.406-8.147l-24.5-.117c-.046 0-.089 0-.134 0-12.769 0-23.551 8.76-26.621 20.606-10.516-10.252-17.038-24.577-16.962-40.388.071-14.975 5.97-29.024 16.609-39.563 10.574-10.473 24.571-16.23 39.443-16.23.091 0 .185 0 .275.001 30.912.147 55.941 25.417 55.793 56.328-.075 15.808-6.73 30.067-17.34 40.217z"/><path d="m458.793 142.857c0-15.192-12.36-27.553-27.553-27.553h-188.893c-15.193 0-27.554 12.36-27.554 27.553v49.895c0 15.192 12.36 27.553 27.554 27.553h188.894c15.192 0 27.553-12.36 27.553-27.553v-49.895zm-15 49.894c0 6.922-5.631 12.553-12.553 12.553h-188.893c-6.922 0-12.554-5.631-12.554-12.553v-49.895c0-6.922 5.632-12.553 12.554-12.553h188.894c6.922 0 12.553 5.631 12.553 12.553v49.895z"/><path d="m53.293 332.804c0 15.439 12.561 28 28 28h188c15.439 0 28-12.561 28-28v-49c0-15.439-12.561-28-28-28h-188c-15.439 0-28 12.561-28 28zm15-49c0-7.168 5.832-13 13-13h188c7.168 0 13 5.832 13 13v49c0 7.168-5.832 13-13 13h-188c-7.168 0-13-5.832-13-13z"/><path d="m421.506 145.006h-169c-4.143 0-7.5 3.357-7.5 7.5s3.357 7.5 7.5 7.5h169c4.143 0 7.5-3.357 7.5-7.5s-3.357-7.5-7.5-7.5z"/><path d="m421.506 175.006h-169c-4.143 0-7.5 3.357-7.5 7.5s3.357 7.5 7.5 7.5h169c4.143 0 7.5-3.357 7.5-7.5s-3.357-7.5-7.5-7.5z"/><path d="m90.506 301.006h169c4.143 0 7.5-3.357 7.5-7.5s-3.357-7.5-7.5-7.5h-169c-4.143 0-7.5 3.357-7.5 7.5s3.358 7.5 7.5 7.5z"/><path d="m90.506 331.006h169c4.143 0 7.5-3.357 7.5-7.5s-3.357-7.5-7.5-7.5h-169c-4.143 0-7.5 3.357-7.5 7.5s3.358 7.5 7.5 7.5z"/><path d="m85.708 208.108c-7.594-7.317-13.162-16.833-15.688-27.769-.933-4.037-4.964-6.55-8.995-5.62-4.036.932-6.553 4.959-5.62 8.995 3.556 15.396 12.327 29.361 24.699 39.324 12.563 10.117 28.382 15.688 44.541 15.688 39.183 0 71.061-31.878 71.061-71.062 0-39.183-31.878-71.061-71.061-71.061-30.136 0-57.088 19.095-67.065 47.516-1.372 3.908.684 8.188 4.592 9.561 3.913 1.376 8.189-.684 9.561-4.592 7.872-22.421 29.136-37.484 52.913-37.484 30.912 0 56.061 25.148 56.061 56.061 0 15.812-6.59 30.105-17.155 40.306-3.023-11.902-13.827-20.734-26.656-20.734h-24.5c-12.879.001-23.713 8.901-26.688 20.871zm26.687-5.87h24.5c6.893 0 12.5 5.607 12.5 12.5v3.213c-7.47 3.692-15.869 5.776-24.75 5.776-8.845 0-17.255-2.031-24.75-5.691v-3.298c0-6.893 5.607-12.5 12.5-12.5z"/><path d="m147.028 149.105c0-12.406-10.094-22.5-22.5-22.5s-22.5 10.094-22.5 22.5 10.094 22.5 22.5 22.5 22.5-10.094 22.5-22.5zm-30 0c0-4.136 3.364-7.5 7.5-7.5s7.5 3.364 7.5 7.5-3.364 7.5-7.5 7.5-7.5-3.364-7.5-7.5z"/></g></g></svg>